<?xml version="1.0" encoding="utf-8"?>
<!-- Generator: Adobe Illustrator 16.0.0, SVG Export Plug-In . SVG Version: 6.00 Build 0)  -->
<!DOCTYPE svg PUBLIC "-//W3C//DTD SVG 1.1//EN" "http://www.w3.org/Graphics/SVG/1.1/DTD/svg11.dtd">
<svg version="1.1" id="Layer_1" xmlns="http://www.w3.org/2000/svg" xmlns:xlink="http://www.w3.org/1999/xlink" x="0px" y="0px"
	 width="640px" height="480px" viewBox="0 0 640 480" enable-background="new 0 0 640 480" xml:space="preserve">
<rect fill="none" width="639.6" height="479.7"/>
<path fill="#FDDF00" d="M0,0h639.6v53.3H0V0z"/>
<path fill="#DD0A08" d="M0,53.3h639.6v53.3H0V53.3z"/>
<path fill="#FDDF00" d="M0,106.6h639.6v53.3H0V106.6z"/>
<path fill="#DD0A08" d="M0,159.9h639.6v53.3H0V159.9z"/>
<path fill="#FDDF00" d="M0,213.2h639.6v53.3H0V213.2z"/>
<path fill="#DD0A08" d="M0,266.5h639.6v53.3H0V266.5z"/>
<path fill="#FDDF00" d="M0,319.8h639.6v53.3H0V319.8z"/>
<path fill="#DD0A08" d="M0,373.1h639.6V426.4H0V373.1z"/>
<path fill="#FDDF00" d="M0,426.4h639.6v53.3H0V426.4z"/>
</svg>
