<?xml version="1.0" encoding="utf-8"?>
<!-- Generator: Adobe Illustrator 16.0.0, SVG Export Plug-In . SVG Version: 6.00 Build 0)  -->
<!DOCTYPE svg PUBLIC "-//W3C//DTD SVG 1.1//EN" "http://www.w3.org/Graphics/SVG/1.1/DTD/svg11.dtd">
<svg version="1.1" id="Layer_1" xmlns="http://www.w3.org/2000/svg" xmlns:xlink="http://www.w3.org/1999/xlink" x="0px" y="0px"
	 width="640px" height="480px" viewBox="0 0 640 480" enable-background="new 0 0 640 480" xml:space="preserve">
<g>
	<path fill="#229E45" d="M-0.001,0h640v480h-640V0z"/>
	<path fill="#F8E509" d="M321.405,435.935l301.483-195.67L319.58,44.065L17.109,240.734L321.405,435.935L321.405,435.935z"/>
	<path fill="#2B49A3" d="M452.769,240.005c0,70.329-57.103,127.341-127.544,127.341s-127.544-57.012-127.544-127.341
		c0-70.327,57.104-127.34,127.544-127.34C395.667,112.665,452.77,169.677,452.769,240.005L452.769,240.005z"/>
	<path fill="#FFFFEF" d="M283.299,316.274L279.356,314l-4.093,2.025l0.917-4.55l-3.162-3.332l4.521-0.53l2.124-4.08l1.894,4.221
		l4.46,0.81l-3.345,3.13 M368.769,337.918l-3.939-2.274l-4.093,2.025l0.916-4.551l-3.159-3.332l4.52-0.529l2.122-4.08l1.894,4.22
		l4.46,0.811l-3.345,3.13 M331.929,303.344l-3.404-1.965l-3.536,1.748l0.792-3.93l-2.729-2.88l3.904-0.457l1.834-3.523l1.636,3.646
		l3.853,0.7l-2.89,2.705 M418.253,290.91l-3.343-1.928l-3.472,1.718l0.777-3.858l-2.681-2.826l3.833-0.45l1.801-3.46l1.606,3.58
		l3.783,0.686l-2.837,2.657 M330.369,265.03l-3.94-2.273l-4.093,2.025l0.916-4.55l-3.162-3.332l4.521-0.53l2.123-4.08l1.895,4.22
		l4.46,0.811l-3.346,3.13 M225.129,225.52l-3.94-2.274l-4.094,2.025l0.916-4.548l-3.16-3.333l4.521-0.53l2.122-4.08l1.894,4.22
		l4.46,0.811l-3.345,3.13 M237.785,278.08l-3.94-2.274l-4.094,2.024l0.916-4.548l-3.16-3.334l4.52-0.53l2.123-4.08l1.895,4.221
		l4.46,0.81l-3.345,3.132 M369.113,206.17l-3.479-2.007l-3.616,1.788l0.811-4.017l-2.794-2.944l3.993-0.47l1.875-3.604l1.674,3.729
		l3.939,0.715l-2.955,2.766 M361.895,240.366l-2.74-1.582l-2.85,1.408l0.64-3.164l-2.199-2.32l3.145-0.368l1.478-2.838l1.317,2.937
		l3.104,0.562l-2.327,2.181 M219.262,287.603l-2.63-1.519l-2.734,1.353l0.61-3.037l-2.11-2.226l3.021-0.354l1.416-2.723l1.264,2.817
		l2.979,0.54l-2.233,2.09 M418.983,299.71l-2.144-1.135l-2.228,1.01l0.5-2.27l-1.72-1.666l2.46-0.266l1.154-2.037l1.029,2.107
		l2.427,0.404l-1.82,1.562"/>
	<path fill="#FFFFEF" d="M219.262,287.603l-2.63-1.519l-2.734,1.353l0.61-3.037l-2.11-2.226l3.021-0.354l1.416-2.723l1.264,2.817
		l2.979,0.54l-2.233,2.09"/>
	<path fill="#FFFFEF" d="M219.262,287.603l-2.63-1.519l-2.734,1.353l0.61-3.037l-2.11-2.226l3.021-0.354l1.416-2.723l1.264,2.817
		l2.979,0.54l-2.233,2.09 M261.142,287.594l-2.63-1.521l-2.733,1.354l0.61-3.037l-2.11-2.226l3.021-0.354l1.416-2.723l1.265,2.817
		l2.979,0.54l-2.233,2.09 M255.939,301.525l-2.63-1.519l-2.733,1.353l0.611-3.038l-2.109-2.225l3.017-0.354l1.417-2.724l1.265,2.816
		l2.978,0.54l-2.233,2.09 M342.901,276.164l-2.63-1.52l-2.732,1.353l0.609-3.036l-2.109-2.225l3.018-0.354l1.417-2.724l1.265,2.817
		l2.978,0.54l-2.233,2.09 M317.383,276.154l-2.63-1.518l-2.734,1.352l0.612-3.037l-2.11-2.225l3.019-0.354l1.417-2.724l1.264,2.816
		l2.98,0.54l-2.234,2.091 M248.166,267.258l-1.648-0.951l-1.714,0.847l0.384-1.902l-1.323-1.394l1.891-0.223l0.89-1.705l0.792,1.765
		l1.864,0.34l-1.4,1.31 M415.739,310.728l-2.63-1.518l-2.732,1.35l0.611-3.035l-2.109-2.227l3.017-0.354l1.417-2.724l1.264,2.816
		l2.979,0.54l-2.233,2.09 M394.489,313.512l-2.178-1.261l-2.264,1.122l0.507-2.521l-1.748-1.848l2.5-0.295l1.174-2.262l1.048,2.34
		l2.467,0.45l-1.851,1.735 M404.515,313.27l-2.03-1.173l-2.107,1.044l0.472-2.344l-1.63-1.719l2.33-0.273l1.093-2.104l0.976,2.178
		l2.296,0.417l-1.723,1.614 M433.301,288.15l-1.955-1.13l-2.03,1.006l0.454-2.257l-1.567-1.655l2.243-0.262l1.054-2.024l0.939,2.092
		l2.21,0.402l-1.658,1.553 M394.239,327.69l-2.554-1.395l-2.651,1.239l0.594-2.786l-2.05-2.043l2.93-0.324l1.376-2.5l1.227,2.586
		l2.891,0.496l-2.167,1.92 M394.382,339.131l-2.33-1.396l-2.418,1.24l0.542-2.786l-1.87-2.044l2.673-0.324l1.255-2.5l1.12,2.586
		l2.636,0.496l-1.978,1.918 M375.083,313.266l-1.955-1.13l-2.032,1.006l0.455-2.257l-1.568-1.653l2.242-0.263l1.054-2.025
		l0.94,2.093l2.213,0.402l-1.66,1.554 M356.991,313.266l-1.954-1.13l-2.03,1.006l0.454-2.257l-1.57-1.653l2.244-0.263l1.053-2.025
		l0.94,2.093l2.21,0.402l-1.658,1.554 M326.272,286.403l-1.955-1.128l-2.029,1.004l0.454-2.257l-1.568-1.654l2.243-0.264
		l1.053-2.024l0.94,2.094l2.212,0.402l-1.66,1.553 M329.696,341.153l-1.656-0.956l-1.72,0.851l0.386-1.91l-1.33-1.4l1.899-0.223
		l0.894-1.715l0.795,1.771l1.874,0.34l-1.407,1.316 M283.299,252.597l-3.942-2.274l-4.093,2.025l0.917-4.548l-3.162-3.335
		l4.521-0.529l2.124-4.08l1.894,4.22l4.46,0.811l-3.345,3.132"/>
	<path fill="#FFFFFF" d="M444.366,285.817c1.944-5.083,4.45-12.75,5.783-19.786c-67.741-59.508-143.26-89.993-238.68-83.72
		c-3.422,6.558-6.16,13.423-8.47,20.853c113.062-10.786,195.936,39.271,241.369,82.654L444.366,285.817z"/>
	<path fill="#309E3A" d="M413.912,252.36l2.421,1.323c-0.381,0.857-0.48,1.609-0.311,2.25c0.18,0.645,0.625,1.208,1.335,1.688
		c0.75,0.516,1.424,0.74,2.017,0.68c0.6-0.06,1.045-0.306,1.335-0.733c0.177-0.251,0.257-0.558,0.225-0.863
		c-0.027-0.3-0.192-0.66-0.495-1.075c-0.21-0.279-0.72-0.873-1.53-1.776c-1.04-1.16-1.659-2.139-1.859-2.937
		c-0.28-1.122-0.11-2.14,0.51-3.06c0.4-0.59,0.936-1.03,1.612-1.318c0.686-0.29,1.433-0.354,2.239-0.198
		c0.811,0.157,1.664,0.54,2.551,1.144c1.452,0.987,2.329,2.048,2.63,3.184c0.305,1.139,0.117,2.253-0.565,3.346l-2.404-1.484
		c0.301-0.665,0.375-1.24,0.219-1.723c-0.147-0.485-0.55-0.95-1.21-1.397c-0.677-0.46-1.303-0.682-1.874-0.663
		c-0.347-0.001-0.67,0.176-0.856,0.468c-0.186,0.277-0.228,0.591-0.13,0.943c0.13,0.45,0.668,1.193,1.625,2.234
		c0.953,1.04,1.604,1.89,1.95,2.547c0.354,0.657,0.516,1.34,0.481,2.05c-0.022,0.706-0.283,1.427-0.777,2.16
		c-0.446,0.663-1.076,1.182-1.812,1.493c-0.76,0.33-1.569,0.412-2.437,0.239c-0.86-0.177-1.794-0.606-2.798-1.29
		c-1.463-0.991-2.36-2.093-2.688-3.3c-0.322-1.213-0.125-2.522,0.6-3.925L413.912,252.36z M402.435,244.827l2.472,1.22
		c-0.345,0.872-0.417,1.628-0.22,2.261c0.208,0.637,0.672,1.183,1.4,1.635c0.774,0.481,1.455,0.68,2.043,0.596
		c0.6-0.086,1.037-0.346,1.306-0.786c0.168-0.257,0.235-0.566,0.19-0.87c-0.038-0.302-0.219-0.654-0.54-1.058
		c-0.221-0.271-0.75-0.84-1.598-1.713c-1.087-1.117-1.746-2.07-1.978-2.86c-0.323-1.109-0.194-2.133,0.385-3.077
		c0.374-0.603,0.916-1.082,1.56-1.38c0.675-0.315,1.421-0.413,2.23-0.29c0.818,0.127,1.685,0.474,2.595,1.04
		c1.492,0.927,2.408,1.952,2.753,3.074c0.351,1.126,0.21,2.247-0.427,3.365l-2.464-1.385c0.275-0.677,0.327-1.252,0.15-1.729
		c-0.168-0.481-0.591-0.93-1.265-1.35c-0.697-0.434-1.33-0.628-1.899-0.586c-0.37,0.024-0.647,0.194-0.839,0.504
		c-0.172,0.282-0.203,0.594-0.09,0.943c0.146,0.443,0.714,1.165,1.71,2.168c0.994,1,1.681,1.822,2.053,2.466
		c0.38,0.64,0.567,1.317,0.562,2.026c0.007,0.708-0.227,1.438-0.689,2.193c-0.421,0.679-1.029,1.222-1.75,1.564
		c-0.746,0.36-1.557,0.475-2.428,0.337c-0.864-0.141-1.814-0.536-2.848-1.176c-1.498-0.933-2.438-1.996-2.815-3.189
		C401.621,247.571,401.766,246.257,402.435,244.827L402.435,244.827z M388.229,241.02l7.276-11.966l8.837,5.416l-1.23,2.025
		l-6.43-3.941l-1.615,2.651l5.983,3.668l-1.226,2.016l-5.983-3.667l-1.977,3.256l6.656,4.08l-1.228,2.017l-9.063-5.557
		L388.229,241.02z M367.537,224.027l1.08-2.1l5.399,2.796l-2.546,4.962c-0.79,0.237-1.78,0.296-2.981,0.17
		c-1.158-0.12-2.283-0.454-3.317-0.986c-1.3-0.673-2.29-1.528-2.977-2.572c-0.678-1.026-1.018-2.24-0.974-3.47
		c0.044-1.292,0.378-2.558,0.978-3.703c0.663-1.298,1.529-2.31,2.59-3.04c1.057-0.727,2.25-1.09,3.569-1.09
		c1.009-0.002,2.104,0.306,3.29,0.916c1.542,0.8,2.577,1.747,3.104,2.846c0.54,1.097,0.638,2.28,0.298,3.556l-2.728-0.82
		c0.14-0.702,0.057-1.356-0.25-1.957c-0.297-0.605-0.807-1.095-1.527-1.47c-1.097-0.567-2.146-0.67-3.155-0.306
		c-1,0.363-1.85,1.23-2.554,2.601c-0.76,1.479-1.005,2.76-0.73,3.842c0.277,1.073,0.944,1.886,2.009,2.438
		c0.523,0.27,1.1,0.439,1.729,0.507c0.64,0.065,1.22,0.05,1.753-0.05l0.811-1.582L367.537,224.027L367.537,224.027z
		 M277.295,201.648l2.034-13.867l4.172,0.62l1.123,9.826l3.859-9.094l4.188,0.618l-2.033,13.87l-2.59-0.382l1.6-10.918
		l-4.343,10.512l-2.685-0.397l-1.135-11.32l-1.6,10.915L277.295,201.648L277.295,201.648z M263.187,200.01l1.306-13.961
		l10.307,0.975l-0.217,2.359l-7.503-0.705l-0.29,3.095l6.978,0.657l-0.22,2.352l-6.98-0.658l-0.353,3.8l7.764,0.73l-0.22,2.354
		L263.187,200.01L263.187,200.01z"/>
	<g>
		<path fill="#309E3A" d="M216.499,191.28c0.04-1.43,0.284-2.62,0.735-3.58c0.335-0.702,0.791-1.34,1.347-1.884
			c0.565-0.552,1.18-0.956,1.844-1.21c0.88-0.348,1.888-0.505,3.022-0.476c2.057,0.061,3.683,0.744,4.878,2.058
			c1.204,1.314,1.774,3.114,1.714,5.395c-0.061,2.26-0.721,4.018-1.982,5.265c-1.26,1.239-2.914,1.834-4.963,1.776
			c-2.077-0.056-3.708-0.735-4.9-2.037C217.004,195.279,216.439,193.509,216.499,191.28L216.499,191.28z"/>
		<path fill="#F7FFFF" d="M219.413,191.252c-0.043,1.586,0.29,2.801,0.997,3.644c0.708,0.837,1.625,1.27,2.748,1.3
			c1.121,0.03,2.055-0.35,2.794-1.138c0.744-0.797,1.14-2.008,1.184-3.634c0.043-1.604-0.277-2.812-0.96-3.621
			c-0.676-0.811-1.595-1.23-2.757-1.263c-1.162-0.029-2.11,0.346-2.843,1.128C219.843,188.445,219.456,189.64,219.413,191.252z"/>
	</g>
	<g>
		<path fill="#309E3A" d="M233.051,198.51l0.163-14.018l5.933,0.07c1.494,0.018,2.574,0.157,3.244,0.42
			c0.677,0.257,1.214,0.71,1.613,1.36c0.398,0.649,0.593,1.385,0.584,2.215c-0.013,1.052-0.332,1.918-0.956,2.598
			c-0.623,0.675-1.55,1.095-2.777,1.26c0.605,0.363,1.104,0.76,1.49,1.193c0.397,0.43,0.923,1.195,1.585,2.293l1.673,2.754
			l-3.372-0.04l-2.002-3.074c-0.71-1.098-1.197-1.788-1.46-2.071c-0.265-0.29-0.545-0.487-0.842-0.594
			c-0.297-0.109-0.77-0.17-1.418-0.177l-0.57-0.008l-0.067,5.852L233.051,198.51L233.051,198.51z"/>
		<path fill="#FFFFFF" d="M235.975,190.455l2.086,0.024c1.354,0.016,2.198-0.03,2.536-0.143c0.337-0.111,0.604-0.305,0.796-0.584
			c0.193-0.278,0.293-0.627,0.3-1.048c0.004-0.472-0.117-0.853-0.369-1.142c-0.243-0.296-0.595-0.486-1.051-0.567
			c-0.229-0.034-0.915-0.06-2.057-0.072l-2.2-0.025l-0.04,3.555L235.975,190.455z"/>
	</g>
	<g>
		<path fill="#309E3A" d="M249.002,185.188l5.146,0.26c1.16,0.06,2.04,0.195,2.641,0.405c0.791,0.274,1.494,0.757,2.036,1.396
			c0.553,0.646,0.958,1.426,1.218,2.34c0.26,0.907,0.355,2.016,0.29,3.326c-0.059,1.153-0.252,2.139-0.58,2.96
			c-0.4,1-0.938,1.797-1.618,2.396c-0.51,0.453-1.19,0.79-2.034,1.016c-0.632,0.166-1.468,0.222-2.51,0.17l-5.295-0.27
			L249.002,185.188L249.002,185.188z"/>
		<path fill="#FFFFFF" d="M251.705,187.685l-0.469,9.273l2.104,0.105c0.786,0.042,1.356,0.024,1.71-0.046
			c0.46-0.094,0.85-0.269,1.16-0.526c0.319-0.26,0.59-0.695,0.81-1.31c0.224-0.62,0.36-1.471,0.416-2.554
			c0.057-1.083,0-1.918-0.16-2.507c-0.159-0.59-0.403-1.053-0.729-1.396c-0.327-0.343-0.75-0.583-1.271-0.725
			c-0.39-0.109-1.156-0.192-2.306-0.25L251.705,187.685L251.705,187.685z"/>
	</g>
	<g>
		<path fill="#309E3A" d="M317.629,210.22l3.26-13.631l4.4,1.061c1.666,0.402,2.736,0.731,3.21,0.99
			c0.729,0.392,1.273,0.996,1.634,1.81c0.36,0.811,0.41,1.755,0.152,2.84c-0.2,0.836-0.519,1.504-0.958,2
			c-0.438,0.5-0.933,0.854-1.48,1.07c-0.54,0.212-1.063,0.31-1.57,0.3c-0.685-0.028-1.649-0.189-2.89-0.49l-1.786-0.432
			l-1.229,5.142L317.629,210.22L317.629,210.22z"/>
		<path fill="#FFFFFF" d="M323.085,199.552l-0.926,3.867l1.5,0.362c1.082,0.26,1.819,0.364,2.218,0.308
			c0.781-0.097,1.416-0.678,1.581-1.447c0.12-0.496,0.072-0.94-0.141-1.33c-0.21-0.392-0.548-0.698-0.957-0.87
			c-0.312-0.144-0.96-0.332-1.949-0.57l-1.324-0.319H323.085z"/>
	</g>
	<g>
		<path fill="#309E3A" d="M330.605,214.106l4.641-13.22l5.598,1.979c1.408,0.498,2.387,0.98,2.937,1.445
			c0.561,0.463,0.924,1.063,1.094,1.807s0.12,1.505-0.156,2.286c-0.348,0.992-0.928,1.71-1.736,2.153
			c-0.806,0.438-1.816,0.537-3.031,0.298c0.456,0.54,0.802,1.076,1.029,1.609c0.238,0.536,0.49,1.431,0.766,2.684l0.704,3.149
			l-3.181-1.126l-0.913-3.556c-0.321-1.27-0.562-2.08-0.72-2.435c-0.158-0.36-0.36-0.639-0.607-0.834
			c-0.245-0.202-0.673-0.41-1.285-0.627l-0.536-0.192l-1.938,5.52l-2.66-0.941H330.605z"/>
		<path fill="#FFFFFF" d="M335.937,207.426l1.967,0.695c1.276,0.452,2.091,0.68,2.445,0.684c0.355,0.005,0.67-0.094,0.943-0.296
			c0.271-0.199,0.478-0.5,0.616-0.896c0.154-0.445,0.161-0.845,0.017-1.2c-0.135-0.359-0.408-0.649-0.813-0.876
			c-0.205-0.105-0.847-0.35-1.924-0.729l-2.075-0.736l-1.177,3.356L335.937,207.426z"/>
	</g>
	<g>
		<path fill="#309E3A" d="M347.009,213.6c0.424-1.363,0.982-2.444,1.673-3.24c0.513-0.587,1.124-1.077,1.809-1.45
			c0.695-0.377,1.396-0.598,2.102-0.665c0.94-0.093,1.953,0.03,3.038,0.37c1.965,0.614,3.344,1.717,4.14,3.308
			c0.804,1.594,0.867,3.48,0.19,5.658c-0.67,2.162-1.78,3.67-3.33,4.528c-1.548,0.852-3.302,0.97-5.26,0.356
			c-1.982-0.619-3.37-1.718-4.164-3.294c-0.793-1.583-0.858-3.439-0.196-5.569L347.009,213.6z"/>
		<path fill="#FFFFFF" d="M349.825,214.385c-0.471,1.514-0.48,2.772-0.026,3.777c0.455,0.996,1.22,1.663,2.293,2
			c1.073,0.334,2.07,0.224,2.996-0.336c0.932-0.562,1.64-1.62,2.122-3.172c0.476-1.535,0.495-2.783,0.056-3.75
			c-0.432-0.962-1.204-1.618-2.312-1.964c-1.11-0.347-2.123-0.243-3.04,0.312c-0.915,0.548-1.61,1.593-2.09,3.134L349.825,214.385z"
			/>
	</g>
	<g>
		<path fill="#309E3A" d="M374.304,233.12l6.415-12.45l5.27,2.736c1.326,0.69,2.23,1.3,2.711,1.84
			c0.489,0.532,0.768,1.18,0.835,1.94c0.066,0.76-0.093,1.505-0.471,2.242c-0.479,0.934-1.152,1.563-2.017,1.892
			c-0.86,0.322-1.872,0.28-3.043-0.128c0.378,0.598,0.645,1.18,0.8,1.74c0.158,0.563,0.288,1.483,0.387,2.763l0.263,3.215
			l-2.993-1.555l-0.415-3.648c-0.146-1.304-0.271-2.14-0.378-2.512c-0.105-0.377-0.271-0.682-0.487-0.91
			c-0.214-0.232-0.61-0.5-1.186-0.798l-0.508-0.264l-2.677,5.196L374.304,233.12L374.304,233.12z"/>
		<path fill="#FFFFFF" d="M380.502,227.226l1.853,0.962c1.2,0.625,1.978,0.962,2.33,1.016c0.351,0.054,0.675,0,0.974-0.162
			c0.296-0.16,0.539-0.428,0.732-0.803c0.216-0.42,0.276-0.814,0.185-1.186c-0.088-0.374-0.315-0.702-0.686-0.98
			c-0.189-0.134-0.79-0.465-1.808-0.993l-1.952-1.013l-1.63,3.16L380.502,227.226z"/>
	</g>
	<g>
		<path fill="#309E3A" d="M426.106,258.704c0.797-1.183,1.642-2.056,2.536-2.62c0.659-0.411,1.386-0.703,2.146-0.861
			c0.725-0.159,1.473-0.169,2.2-0.028c0.931,0.184,1.864,0.596,2.806,1.235c1.703,1.155,2.708,2.611,3.014,4.365
			c0.31,1.759-0.173,3.58-1.448,5.473c-1.263,1.873-2.758,2.998-4.488,3.37c-1.728,0.364-3.439-0.028-5.14-1.183
			c-1.718-1.168-2.731-2.622-3.04-4.361c-0.303-1.746,0.168-3.544,1.413-5.391L426.106,258.704z"/>
		<path fill="#FFFFFF" d="M428.576,260.254c-0.886,1.316-1.256,2.519-1.111,3.61c0.149,1.087,0.689,1.945,1.62,2.578
			c0.932,0.632,1.92,0.814,2.967,0.55c1.055-0.27,2.037-1.077,2.943-2.425c0.896-1.33,1.273-2.521,1.131-3.572
			c-0.139-1.047-0.688-1.897-1.65-2.552s-1.962-0.851-3-0.583C430.443,258.12,429.478,258.92,428.576,260.254L428.576,260.254z"/>
	</g>
	<path fill="#309E3A" d="M301.823,204.523l2.247-9.84l7.269,1.675l-0.378,1.662l-5.287-1.217l-0.504,2.18l4.926,1.136l-0.382,1.655
		l-4.918-1.132l-0.614,2.677l5.476,1.26l-0.379,1.66L301.823,204.523L301.823,204.523z"/>
</g>
<rect x="1.16" y="0" fill="none" width="320" height="480"/>
<g>
	<defs>
		<polygon id="SVGID_1_" points="1.16,480 639.998,0 1.16,0 		"/>
	</defs>
	<clipPath id="SVGID_2_">
		<use xlink:href="#SVGID_1_"  overflow="visible"/>
	</clipPath>
	<g clip-path="url(#SVGID_2_)">
		<path fill="#FF0000" d="M256,0h383.999v480H256V0z"/>
		<path fill="#006600" d="M0.001,0H256v480H0.001V0z"/>
		<g>
			<path fill="#FFFF00" stroke="#000000" stroke-width="0.611" stroke-linecap="round" stroke-linejoin="round" d="M339.455,306.176
				c-32.224-0.97-179.99-93.204-181.002-107.893l8.159-13.608c14.657,21.298,165.718,110.998,180.556,107.82l-7.713,13.677"/>
			<path fill="#FFFF00" stroke="#000000" stroke-width="0.611" stroke-linecap="round" stroke-linejoin="round" d="M164.895,182.827
				c-2.89,7.78,38.561,33.406,88.431,63.737c49.869,30.33,92.87,49.073,96.055,46.385c0.195-0.348,1.57-2.71,1.443-2.692
				c-0.598,0.9-2.053,1.185-4.32,0.53c-13.475-3.886-48.614-20.016-92.132-46.406c-43.519-26.392-81.38-50.714-87.266-61.047
				c-0.41-0.716-0.7-2.022-0.642-3.04h-0.144l-1.253,2.19L164.895,182.827L164.895,182.827z M340.213,306.603
				c-0.547,0.99-1.566,1.024-3.5,0.812c-12.053-1.334-48.628-19.12-91.907-45.027c-50.357-30.145-91.947-57.61-87.435-64.79
				l1.228-2.17l0.242,0.075c-4.058,12.165,82.077,61.417,87.148,64.558c49.84,30.877,91.856,48.908,95.575,44.222l-1.354,2.326
				v-0.002L340.213,306.603z"/>
			<path fill="#FFFF00" stroke="#000000" stroke-width="0.611" stroke-linecap="round" stroke-linejoin="round" d="M256.179,207.18
				c32.254-0.257,72.055-4.41,94.959-13.537l-4.936-8.019c-13.537,7.493-53.557,12.42-90.294,13.157
				c-43.453-0.4-74.124-4.446-89.49-14.757l-4.66,8.538C190.009,204.517,218.957,207.056,256.179,207.18"/>
			<path fill="#FFFF00" stroke="#000000" stroke-width="0.611" stroke-linecap="round" stroke-linejoin="round" d="M352.469,193.824
				c-0.789,1.26-15.727,6.412-37.732,10.214c-14.92,2.274-34.383,4.22-58.67,4.242c-23.075,0.022-41.926-1.62-56.196-3.555
				c-23.101-3.622-35.021-8.66-39.429-10.442c0.42-0.838,0.692-1.426,1.099-2.21c12.688,5.053,24.666,8.1,38.697,10.258
				c14.178,1.92,32.801,3.587,55.761,3.566c24.176-0.025,43.424-2.117,58.258-4.324c22.564-3.64,34.892-8.324,36.623-10.5
				l1.594,2.752h-0.002L352.469,193.824z M348.137,185.694c-2.445,1.963-14.631,6.285-36.073,9.71
				c-14.31,2.05-32.504,3.886-55.75,3.908c-22.084,0.021-40.127-1.466-53.85-3.465c-21.775-2.845-33.365-7.975-37.543-9.471
				c0.416-0.72,0.84-1.432,1.273-2.147c3.25,1.636,14.436,6.176,36.509,9.303c13.567,1.924,31.638,3.358,53.612,3.335
				c23.137-0.022,41.123-1.894,55.34-3.934c21.553-2.965,33.151-8.478,34.911-9.857l1.572,2.614v0.003L348.137,185.694z
				 M150.271,246.037c19.838,10.67,63.9,16.047,105.595,16.417c37.963,0.061,87.419-5.868,105.916-15.67l-0.51-10.678
				c-5.785,9.042-58.787,17.716-105.818,17.359c-47.033-0.354-90.707-7.617-105.267-17.021l0.084,9.59"/>
			<path fill="#FFFF00" stroke="#000000" stroke-width="0.611" stroke-linecap="round" stroke-linejoin="round" d="M362.795,244.5
				v2.548c-2.781,3.324-20.209,8.348-42.066,11.886c-16.635,2.55-38.324,4.474-65.347,4.474c-25.673,0-46.147-1.83-62.024-4.268
				c-25.1-3.656-41.151-10.057-44.375-11.967l0.016-2.97c9.68,6.436,35.904,11.143,44.71,12.584
				c15.774,2.42,36.127,4.238,61.672,4.238c26.897,0,48.463-1.91,64.994-4.444c15.679-2.266,38.019-8.157,42.417-12.08
				L362.795,244.5z M362.805,235.443v2.547c-2.779,3.32-20.209,8.345-42.064,11.882c-16.636,2.55-38.323,4.475-65.347,4.475
				c-25.674,0-46.146-1.828-62.024-4.269c-25.099-3.653-41.15-10.053-44.374-11.964l0.014-2.97
				c9.68,6.434,35.905,11.143,44.712,12.582c15.774,2.423,36.126,4.239,61.67,4.239c26.898,0,48.464-1.909,64.994-4.445
				c15.68-2.266,38.02-8.156,42.418-12.08v0.003H362.805z M255.775,304.34c-45.623-0.27-84.716-12.435-92.97-14.445l6.021,9.424
				c14.579,6.133,52.718,15.274,87.388,14.262c34.67-1.01,64.97-3.696,86.324-14.092l6.172-9.765
				c-14.555,6.853-64.075,14.548-92.936,14.617"/>
			<path fill="#FFFF00" stroke="#000000" stroke-width="0.587" stroke-linecap="round" stroke-linejoin="round" d="M344.852,297.3
				c-0.898,1.378-1.822,2.74-2.77,4.087c-10.07,3.55-25.94,7.279-32.636,8.367c-13.68,2.817-34.843,4.899-53.625,4.909
				c-40.415-0.592-73.5-8.504-89.062-15.253l-1.257-2.16l0.205-0.322l2.13,0.825c27.678,9.902,58.764,13.854,88.21,14.562
				c18.71,0.066,37.436-2.144,52.58-4.852c23.221-4.653,32.612-8.16,35.493-9.751l0.734-0.409L344.852,297.3z M350.205,288.474
				c0.021,0.027,0.047,0.054,0.068,0.083c-0.689,1.165-1.387,2.324-2.092,3.479c-5.373,1.92-19.951,6.186-41.238,9.162
				c-14.024,1.91-22.742,3.76-50.644,4.302c-52.282-1.33-86.132-11.553-94.174-14.075l-1.192-2.285
				c30.3,7.909,61.25,13.433,95.37,13.997c25.525-0.545,36.385-2.425,50.294-4.32c24.824-3.86,37.33-7.946,41.083-9.126
				c-0.051-0.073-0.105-0.145-0.164-0.212l2.691-1.005l-0.002,0.002L350.205,288.474z"/>
			<path fill="#FFFF00" stroke="#000000" stroke-width="0.611" stroke-linecap="round" stroke-linejoin="round" d="M350.752,237.61
				c0.146,30.013-15.211,56.946-27.582,68.827c-17.502,16.81-40.708,27.623-67.808,28.12c-30.26,0.557-58.794-19.17-66.447-27.838
				c-14.963-16.945-27.146-38.463-27.536-67.461c1.853-32.757,14.712-55.573,33.352-71.22c18.641-15.646,43.46-23.268,64.13-22.723
				c23.848,0.63,51.705,12.33,70.955,35.554c12.611,15.22,18.072,31.733,20.936,56.74H350.752z M255.62,134.847
				c58.117,0,105.916,47.294,105.916,105.282c0,57.987-47.798,105.283-105.916,105.283s-105.521-47.295-105.521-105.284
				s47.403-105.283,105.521-105.283"/>
			<path fill="#FFFF00" stroke="#000000" stroke-width="0.611" stroke-linecap="round" stroke-linejoin="round" d="M255.903,134.485
				c58.171,0,105.613,47.45,105.613,105.624c0,58.173-47.444,105.62-105.613,105.62c-58.17,0-105.611-47.446-105.611-105.62
				C150.292,181.933,197.734,134.484,255.903,134.485L255.903,134.485z M152.617,240.11c0,56.81,46.649,103.297,103.286,103.297
				c56.638,0,103.291-46.487,103.291-103.298c0-56.814-46.654-103.3-103.291-103.3C199.267,136.809,152.617,183.299,152.617,240.11
				L152.617,240.11z"/>
			<path fill="#FFFF00" stroke="#000000" stroke-width="0.611" stroke-linecap="round" stroke-linejoin="round" d="M255.989,143.264
				c53.047,0,96.74,43.542,96.74,96.75c0,53.21-43.694,96.75-96.739,96.75c-53.047,0-96.74-43.54-96.74-96.75
				C159.25,186.806,202.944,143.264,255.989,143.264L255.989,143.264z M161.572,240.014c0,51.93,42.646,94.426,94.416,94.426
				s94.415-42.495,94.415-94.426s-42.642-94.427-94.416-94.427c-51.771,0-94.417,42.495-94.417,94.427H161.572z"/>
			<path fill="#FFFF00" stroke="#000000" stroke-width="0.611" stroke-linecap="round" stroke-linejoin="round" d="M260.245,134.06
				h-9.051l0.011,212.223h9.082L260.245,134.06z"/>
			<path fill="#FFFF00" stroke="#000000" stroke-width="0.611" stroke-linecap="round" stroke-linejoin="round" d="M259.34,132.85
				h2.302l0.021,214.666h-2.307L259.34,132.85L259.34,132.85z M250.355,132.85h2.322l0.003,214.668h-2.323V132.85H250.355z"/>
			<path fill="#FFFF00" stroke="#000000" stroke-width="0.611" stroke-linecap="round" stroke-linejoin="round" d="M361.59,244.197
				v-7.845l-6.391-5.952l-36.267-9.601l-52.266-5.334l-62.935,3.2l-44.8,10.667l-9.045,6.7v7.846L172.8,233.6l54.4-8.534h52.267
				l38.4,4.267l26.667,6.4L361.59,244.197z"/>
			<path fill="#FFFF00" stroke="#000000" stroke-width="0.611" stroke-linecap="round" stroke-linejoin="round" d="M255.946,223.755
				c24.942-0.046,49.141,2.363,68.337,6.101c19.807,3.96,33.744,8.913,38.512,14.476l-0.006,2.756
				c-5.748-6.923-24.506-11.998-38.953-14.899c-19.05-3.705-43.086-6.099-67.891-6.05c-26.174,0.047-50.546,2.525-69.316,6.189
				c-15.061,2.987-35.147,8.924-37.655,14.78v-2.868c1.377-4.053,16.334-10.11,37.316-14.31
				C205.202,226.239,229.62,223.803,255.946,223.755L255.946,223.755z M255.957,214.695c24.941-0.044,49.142,2.366,68.336,6.102
				c19.807,3.963,33.746,8.913,38.512,14.477l-0.006,2.754c-5.748-6.92-24.504-11.997-38.953-14.897
				c-19.047-3.707-43.084-6.1-67.889-6.052c-26.174,0.047-50.428,2.528-69.2,6.188c-14.534,2.756-35.44,8.928-37.772,14.783v-2.869
				c1.377-4.011,16.637-10.284,37.317-14.311c18.91-3.689,43.328-6.124,69.655-6.173V214.695z M255.444,168.49
				c39.307-0.196,73.591,5.496,89.275,13.53l5.721,9.899c-13.633-7.348-50.619-14.987-94.937-13.845
				c-36.11,0.222-74.696,3.975-94.056,14.304l6.83-11.424c15.891-8.24,53.358-12.42,87.17-12.463"/>
			<path fill="#FFFF00" stroke="#000000" stroke-width="0.611" stroke-linecap="round" stroke-linejoin="round" d="M255.968,176.66
				c22.418-0.058,44.08,1.206,61.308,4.315c16.043,2.985,31.344,7.467,33.53,9.877l1.699,2.998
				c-5.32-3.476-18.561-7.344-35.563-10.567c-17.072-3.21-38.72-4.271-61.013-4.213c-25.305-0.087-44.963,1.25-61.835,4.19
				c-17.843,3.34-30.223,8.109-33.277,10.375l1.662-3.169c5.935-3.027,15.351-6.677,31.172-9.524
				c17.447-3.188,37.315-4.144,62.317-4.28V176.66z M255.958,167.61c21.454-0.055,42.637,1.14,59.149,4.11
				c13.022,2.533,25.901,6.491,30.618,10.014l2.48,3.942c-4.219-4.688-20.09-9.131-34.106-11.62
				c-16.385-2.825-36.688-3.943-58.142-4.122c-22.516,0.062-43.323,1.441-59.471,4.382c-15.402,2.93-25.343,6.402-29.55,9.112
				l2.184-3.292c5.805-3.057,15.182-5.862,26.989-8.157c16.267-2.962,37.202-4.307,59.851-4.37L255.958,167.61z M308.427,284.01
				c-19.433-3.628-38.9-4.154-52.498-3.994c-65.502,0.768-86.662,13.449-89.244,17.29l-4.895-7.98
				c16.677-12.088,52.345-18.866,94.493-18.173c21.886,0.358,40.772,1.812,56.659,4.89l-4.518,7.971"/>
			<path fill="#FFFF00" stroke="#000000" stroke-width="0.587" stroke-linecap="round" stroke-linejoin="round" d="M255.552,278.89
				c18.22,0.272,36.106,1.024,53.37,4.243l-1.252,2.207c-16.033-2.958-33.125-4.09-52.057-4c-24.174-0.188-48.624,2.07-69.909,8.181
				c-6.718,1.868-17.836,6.186-18.971,9.755l-1.244-2.05c0.36-2.11,7.08-6.488,19.643-10.018
				C209.513,280.227,232.319,279.049,255.552,278.89v0.002V278.89z M256.379,269.72c18.877,0.354,38.372,1.227,57.322,4.979
				l-1.302,2.3c-17.111-3.396-33.46-4.529-55.91-4.875c-24.25,0.044-49.974,1.773-73.362,8.573c-7.55,2.2-20.583,6.955-21.019,10.72
				l-1.244-2.203c0.283-3.42,11.565-7.88,21.716-10.833c23.569-6.853,49.359-8.614,73.8-8.659L256.379,269.72z"/>
			<path fill="#FFFF00" stroke="#000000" stroke-width="0.611" stroke-linecap="round" stroke-linejoin="round" d="M349.42,290.54
				l-7.873,12.21l-22.615-20.083L260.266,243.2l-66.134-36.267l-34.336-11.744l7.318-13.57l2.484-1.353l21.333,5.333l70.4,36.267
				l40.534,25.6L336,272l13.867,16L349.42,290.54z"/>
			<path fill="#FFFF00" stroke="#000000" stroke-width="0.611" stroke-linecap="round" stroke-linejoin="round" d="M158.559,195.51
				c6.022-4.086,50.282,15.63,96.592,43.556c46.188,28.004,90.322,59.649,86.337,65.57l-1.309,2.062l-0.6,0.475
				c0.127-0.093,0.791-0.904-0.066-3.101c-1.969-6.475-33.276-31.457-85.22-62.82c-50.641-30.196-92.844-48.396-97.064-43.194
				l1.33-2.549V195.51z M351.03,290.365c3.807-7.522-37.244-38.447-88.14-68.557c-52.07-29.511-89.595-46.88-96.45-41.7l-1.521,2.77
				c-0.015,0.153,0.055-0.188,0.377-0.436c1.246-1.088,3.312-1.015,4.244-1.03c11.802,0.175,45.51,15.688,92.806,42.802
				c20.723,12.07,87.542,54.924,87.287,66.976c0.018,1.034,0.086,1.248-0.303,1.76l1.699-2.584v-0.003L351.03,290.365z"/>
		</g>
		<g>
			<path fill="#FFFFFF" stroke="#000000" stroke-width="0.67" d="M180.6,211.01c0,16.27,6.663,30.987,17.456,41.742
				c10.815,10.778,25.512,17.58,41.81,17.58c16.381,0,31.246-6.654,42.015-17.39c10.77-10.735,17.443-25.551,17.446-41.88h-0.002
				v-79.19l-118.741-0.14l0.013,79.278H180.6L180.6,211.01z"/>
			<path fill="#FF0000" stroke="#000000" stroke-width="0.507" d="M182.82,211.12v0.045c0,15.557,6.44,29.724,16.774,40.01
				c10.355,10.304,24.614,16.71,40.214,16.71c15.68,0,29.91-6.36,40.22-16.625s16.698-24.433,16.7-40.044h-0.002V134.39
				l-113.84-0.019l-0.07,76.749 M273.839,157.372l0.004,48.89l-0.039,5.173c0,1.36-0.082,2.912-0.241,4.233
				c-0.926,7.73-4.48,14.467-9.746,19.708c-6.164,6.137-14.669,9.943-24.047,9.943c-9.326,0-17.638-3.939-23.827-10.1
				c-6.35-6.32-10.03-14.986-10.03-23.947l-0.013-54.021L273.839,157.372L273.839,157.372L273.839,157.372z"/>
			<path fill="#FFFF00" d="M190.19,154.43c0.135-5.521,4.051-6.828,4.08-6.847c0.03-0.02,4.232,1.407,4.218,6.898L190.19,154.43"/>
			<path fill="#FFFF00" stroke="#000000" stroke-width="0.5" d="M186.81,147.69l-0.682,6.345l4.14,0.01
				c0.039-5.25,3.975-6.124,4.069-6.104c0.091-0.005,3.99,1.16,4.093,6.104h4.152l-0.75-6.394L186.81,147.69L186.81,147.69
				L186.81,147.69z M185.849,154.06h16.946c0.357,0,0.65,0.353,0.65,0.785c0,0.429-0.293,0.78-0.65,0.78h-16.946
				c-0.357,0-0.65-0.351-0.65-0.78C185.199,154.414,185.492,154.06,185.849,154.06L185.849,154.06z"/>
			<path fill="#FFFF00" stroke="#000000" stroke-width="0.5" d="M192.01,154.03c0.017-3.313,2.261-4.251,2.273-4.248
				c0,0,2.342,0.966,2.36,4.248H192.01 M186.209,145.05h16.245c0.342,0,0.623,0.318,0.623,0.705s-0.28,0.704-0.623,0.704h-16.245
				c-0.341,0-0.623-0.316-0.623-0.705C185.587,145.367,185.867,145.049,186.209,145.05L186.209,145.05z M186.55,146.47h15.537
				c0.328,0,0.595,0.317,0.595,0.704c0,0.388-0.267,0.704-0.595,0.704H186.55c-0.327,0-0.595-0.316-0.595-0.704
				C185.955,146.787,186.223,146.47,186.55,146.47L186.55,146.47z M191.57,135.88l1.227,0.002v0.87h0.895v-0.89l1.257,0.005v0.887
				h0.895v-0.891h1.258l-0.002,2.01c0,0.317-0.254,0.52-0.549,0.52h-4.41c-0.297,0-0.57-0.236-0.57-0.526l-0.004-1.989
				L191.57,135.88z M196.189,138.57l0.277,6.45l-4.303-0.015l0.285-6.452L196.189,138.57"/>
			<path id="a" fill="#FFFF00" stroke="#000000" stroke-width="0.5" d="M190.94,141.56l0.13,3.478h-4.124l0.116-3.478h3.88H190.94
				L190.94,141.56z"/>
			<path id="a_1_" fill="#FFFF00" stroke="#000000" stroke-width="0.5" d="M201.549,141.56l0.13,3.478h-4.124l0.116-3.478h3.88
				H201.549L201.549,141.56z"/>
			<path id="b" fill="#FFFF00" stroke="#000000" stroke-width="0.5" d="M186.3,139.04l1.199,0.004v0.872h0.877v-0.892l1.23,0.004
				v0.89h0.88v-0.894l1.23,0.002l-0.003,2.012c0,0.314-0.25,0.518-0.536,0.518h-4.318c-0.289,0-0.558-0.235-0.558-0.526
				L186.3,139.04L186.3,139.04z"/>
			<path id="b_1_" fill="#FFFF00" stroke="#000000" stroke-width="0.5" d="M196.909,139.04l1.199,0.004v0.872h0.877v-0.892
				l1.23,0.004v0.89h0.88v-0.894l1.23,0.002l-0.003,2.012c0,0.314-0.25,0.518-0.536,0.518h-4.318c-0.289,0-0.558-0.235-0.558-0.526
				L196.909,139.04L196.909,139.04z"/>
			<path d="M193.9,140.61c-0.027-0.626,0.877-0.634,0.866,0v1.536H193.9V140.61"/>
			<path id="c" d="M188.569,142.84c-0.003-0.606,0.837-0.618,0.826,0v1.187h-0.826V142.84"/>
			<path id="c_1_" d="M199.211,142.84c-0.003-0.606,0.837-0.618,0.826,0v1.187h-0.826V142.84"/>
			<path fill="#FFFF00" d="M190.19,200.75c0.135-5.52,4.051-6.828,4.08-6.846c0.03-0.02,4.232,1.407,4.218,6.898l-8.297-0.049"/>
			<path fill="#FFFF00" stroke="#000000" stroke-width="0.5" d="M186.81,194.01l-0.682,6.345l4.14,0.01
				c0.039-5.25,3.975-6.124,4.069-6.104c0.091-0.005,3.99,1.16,4.093,6.104h4.152l-0.75-6.394l-15.022,0.038L186.81,194.01
				L186.81,194.01z M185.849,200.38h16.946c0.357,0,0.65,0.353,0.65,0.785c0,0.429-0.293,0.78-0.65,0.78h-16.946
				c-0.357,0-0.65-0.351-0.65-0.78C185.199,200.734,185.492,200.38,185.849,200.38L185.849,200.38z"/>
			<path fill="#FFFF00" stroke="#000000" stroke-width="0.5" d="M192.01,200.35c0.017-3.313,2.261-4.251,2.273-4.248
				c0,0,2.342,0.966,2.36,4.248H192.01 M186.209,191.37h16.245c0.342,0,0.623,0.318,0.623,0.705s-0.28,0.704-0.623,0.704h-16.245
				c-0.341,0-0.623-0.316-0.623-0.705C185.587,191.687,185.867,191.369,186.209,191.37L186.209,191.37z M186.55,192.79h15.537
				c0.328,0,0.595,0.317,0.595,0.704c0,0.388-0.267,0.704-0.595,0.704H186.55c-0.327,0-0.595-0.316-0.595-0.704
				C185.955,193.107,186.223,192.79,186.55,192.79L186.55,192.79z M191.57,182.2l1.227,0.002v0.87h0.895v-0.89l1.257,0.005v0.887
				h0.895v-0.891h1.258l-0.002,2.01c0,0.317-0.254,0.52-0.549,0.52h-4.41c-0.297,0-0.57-0.236-0.57-0.526l-0.004-1.989L191.57,182.2
				z M196.189,184.89l0.277,6.45l-4.303-0.015l0.285-6.452L196.189,184.89"/>
			<path id="a_2_" fill="#FFFF00" stroke="#000000" stroke-width="0.5" d="M190.94,187.88l0.13,3.478h-4.124l0.116-3.478h3.88
				H190.94L190.94,187.88z"/>
			<g>
				<path id="a_3_" fill="#FFFF00" stroke="#000000" stroke-width="0.5" d="M201.549,187.88l0.13,3.478h-4.124l0.116-3.478h3.88
					H201.549L201.549,187.88z"/>
			</g>
			<path id="b_2_" fill="#FFFF00" stroke="#000000" stroke-width="0.5" d="M186.3,185.36l1.199,0.004v0.872h0.877v-0.892l1.23,0.004
				v0.89h0.88v-0.894l1.23,0.002l-0.003,2.012c0,0.314-0.25,0.517-0.536,0.517h-4.318c-0.289,0-0.558-0.234-0.558-0.525
				L186.3,185.36L186.3,185.36z"/>
			<g>
				<path id="b_3_" fill="#FFFF00" stroke="#000000" stroke-width="0.5" d="M196.909,185.36l1.199,0.004v0.872h0.877v-0.892
					l1.23,0.004v0.89h0.88v-0.894l1.23,0.002l-0.003,2.012c0,0.314-0.25,0.517-0.536,0.517h-4.318c-0.289,0-0.558-0.234-0.558-0.525
					L196.909,185.36L196.909,185.36z"/>
			</g>
			<path d="M193.9,186.93c-0.027-0.627,0.877-0.634,0.866,0v1.536H193.9V186.93"/>
			<path id="c_2_" d="M188.569,189.16c-0.003-0.606,0.837-0.618,0.826,0v1.187h-0.826V189.16"/>
			<g>
				<path id="c_3_" d="M199.211,189.16c-0.003-0.606,0.837-0.618,0.826,0v1.187h-0.826V189.16"/>
			</g>
			<g id="d_2_">
				<path fill="#FFFF00" d="M208.25,248.964c-3.822-3.985-1.99-7.687-1.984-7.72c0.006-0.036,3.98-2.011,7.867,1.868L208.25,248.964
					"/>
				<path fill="#FFFF00" stroke="#000000" stroke-width="0.5" d="M201.086,246.613l4.022,4.955l2.924-2.931
					c-3.697-3.727-1.544-7.136-1.463-7.189c0.06-0.067,3.635-2.014,7.215,1.396l2.925-2.946l-5.066-3.973L201.086,246.613h0.002
					H201.086z M204.93,251.783l11.94-12.024c0.252-0.254,0.709-0.213,1.014,0.091c0.305,0.303,0.347,0.758,0.095,1.011
					l-11.94,12.025c-0.252,0.253-0.707,0.214-1.012-0.089S204.678,252.036,204.93,251.783z"/>
				<path fill="#FFFF00" stroke="#000000" stroke-width="0.5" d="M209.248,247.39c-2.338-2.346-1.422-4.6-1.412-4.607
					c0,0,2.336-0.981,4.677,1.319L209.248,247.39 M198.789,245.179l11.447-11.527c0.241-0.244,0.665-0.219,0.939,0.054
					s0.302,0.695,0.06,0.938l-11.447,11.527c-0.241,0.243-0.663,0.22-0.938-0.055C198.576,245.844,198.548,245.422,198.789,245.179
					L198.789,245.179z M200.037,245.938l10.948-11.026c0.231-0.233,0.645-0.199,0.919,0.074s0.31,0.686,0.08,0.917l-10.948,11.027
					c-0.231,0.232-0.644,0.199-0.919-0.074C199.842,246.583,199.807,246.17,200.037,245.938z M196.059,234.914l0.866-0.87
					l0.617,0.613l0.631-0.635l-0.632-0.627l0.89-0.888l0.629,0.624l0.632-0.635l-0.632-0.627l0.886-0.893l1.425,1.417
					c0.225,0.223,0.19,0.547-0.018,0.757l-3.107,3.129c-0.209,0.21-0.569,0.238-0.774,0.035l-1.415-1.4L196.059,234.914z
					 M201.224,233.531l4.772,4.349l-3.042,3.042l-4.378-4.748L201.224,233.531"/>
				<path id="a_4_" fill="#FFFF00" stroke="#000000" stroke-width="0.5" d="M199.646,239.363l2.559,2.358l-2.905,2.927l-2.387-2.533
					L199.646,239.363L199.646,239.363z"/>
				<g>
					<path id="a_5_" fill="#FFFF00" stroke="#000000" stroke-width="0.5" d="M207.122,231.835l2.559,2.358l-2.906,2.926
						l-2.386-2.533l2.734-2.753L207.122,231.835L207.122,231.835z"/>
				</g>
				<path id="b_4_" fill="#FFFF00" stroke="#000000" stroke-width="0.5" d="M194.588,240.88l0.848-0.849l0.619,0.614l0.618-0.623
					l-0.633-0.629l0.87-0.87l0.631,0.627l0.621-0.624l-0.634-0.63l0.868-0.872l1.425,1.42c0.222,0.222,0.191,0.542-0.01,0.745
					l-3.041,3.063c-0.205,0.206-0.56,0.231-0.766,0.027L194.588,240.88z"/>
				<g>
					<path id="b_5_" fill="#FFFF00" stroke="#000000" stroke-width="0.5" d="M202.063,233.352l0.848-0.85l0.619,0.614l0.618-0.623
						l-0.633-0.628l0.869-0.871l0.632,0.627l0.621-0.624l-0.634-0.63l0.868-0.871l1.425,1.419c0.222,0.222,0.191,0.543-0.01,0.745
						l-3.042,3.063c-0.204,0.206-0.559,0.231-0.765,0.027L202.063,233.352L202.063,233.352z"/>
				</g>
				<path d="M201.057,236.593c-0.462-0.423,0.168-1.069,0.611-0.614l1.089,1.082l-0.61,0.614L201.057,236.593"/>
				<path id="c_4_" d="M198.885,241.946c-0.432-0.425,0.151-1.029,0.582-0.586l0.842,0.837l-0.582,0.586L198.885,241.946"/>
				<g transform="rotate(-45.202 312.766 180.004)">
					<path id="c_5_" d="M206.382,234.396c-0.432-0.425,0.152-1.029,0.582-0.586l0.842,0.836l-0.582,0.586L206.382,234.396"/>
				</g>
			</g>
			<g id="d_3_">
				<path fill="#FFFF00" d="M235.904,154.43c0.135-5.521,4.051-6.828,4.08-6.847c0.03-0.02,4.232,1.407,4.218,6.898L235.904,154.43"
					/>
				<path fill="#FFFF00" stroke="#000000" stroke-width="0.5" d="M232.524,147.69l-0.682,6.345l4.14,0.01
					c0.039-5.25,3.975-6.124,4.07-6.104c0.091-0.005,3.99,1.16,4.093,6.104h4.152l-0.75-6.394L232.524,147.69L232.524,147.69
					L232.524,147.69z M231.563,154.06h16.946c0.357,0,0.65,0.353,0.65,0.785c0,0.429-0.293,0.78-0.65,0.78h-16.946
					c-0.357,0-0.65-0.351-0.65-0.78C230.913,154.414,231.206,154.06,231.563,154.06L231.563,154.06z"/>
				<path fill="#FFFF00" stroke="#000000" stroke-width="0.5" d="M237.724,154.03c0.017-3.313,2.261-4.251,2.273-4.248
					c0,0,2.342,0.966,2.36,4.248H237.724 M231.923,145.05h16.245c0.342,0,0.623,0.318,0.623,0.705s-0.28,0.704-0.623,0.704h-16.245
					c-0.341,0-0.623-0.316-0.623-0.705C231.301,145.367,231.581,145.049,231.923,145.05L231.923,145.05z M232.264,146.47h15.537
					c0.328,0,0.595,0.317,0.595,0.704c0,0.388-0.267,0.704-0.595,0.704h-15.537c-0.327,0-0.595-0.316-0.595-0.704
					C231.669,146.787,231.937,146.47,232.264,146.47z M237.284,135.88l1.227,0.002v0.87h0.895v-0.89l1.257,0.005v0.887h0.895v-0.891
					h1.258l-0.002,2.01c0,0.317-0.254,0.52-0.549,0.52h-4.41c-0.297,0-0.57-0.236-0.57-0.526l-0.004-1.989L237.284,135.88z
					 M241.903,138.57l0.277,6.45l-4.303-0.015l0.285-6.452L241.903,138.57"/>
				<path id="a_6_" fill="#FFFF00" stroke="#000000" stroke-width="0.5" d="M236.654,141.56l0.13,3.478h-4.124l0.116-3.478h3.88
					H236.654L236.654,141.56z"/>
				<g>
					<path id="a_7_" fill="#FFFF00" stroke="#000000" stroke-width="0.5" d="M247.263,141.56l0.13,3.478h-4.124l0.116-3.478h3.88
						H247.263L247.263,141.56z"/>
				</g>
				<path id="b_6_" fill="#FFFF00" stroke="#000000" stroke-width="0.5" d="M232.014,139.04l1.199,0.004v0.872h0.877v-0.892
					l1.23,0.004v0.89h0.88v-0.894l1.23,0.002l-0.003,2.012c0,0.314-0.25,0.518-0.536,0.518h-4.318c-0.289,0-0.558-0.235-0.558-0.526
					L232.014,139.04z"/>
				<g>
					<path id="b_7_" fill="#FFFF00" stroke="#000000" stroke-width="0.5" d="M242.623,139.04l1.199,0.004v0.872h0.877v-0.892
						l1.23,0.004v0.89h0.88v-0.894l1.23,0.002l-0.003,2.012c0,0.314-0.25,0.518-0.536,0.518h-4.318
						c-0.289,0-0.558-0.235-0.558-0.526L242.623,139.04z"/>
				</g>
				<path d="M239.614,140.61c-0.026-0.626,0.877-0.634,0.866,0v1.536h-0.866V140.61"/>
				<path id="c_6_" d="M234.283,142.84c-0.003-0.606,0.837-0.618,0.826,0v1.187h-0.826V142.84"/>
				<g>
					<path id="c_7_" d="M244.925,142.84c-0.003-0.606,0.837-0.618,0.826,0v1.187h-0.826V142.84"/>
				</g>
			</g>
			<g>
				<g>
					<g id="d_4_">
						<path fill="#FFFF00" d="M289.601,154.43c-0.135-5.521-4.052-6.828-4.08-6.847c-0.03-0.02-4.232,1.407-4.218,6.898
							L289.601,154.43"/>
						<path fill="#FFFF00" stroke="#000000" stroke-width="0.5" d="M292.981,147.69l0.682,6.345l-4.14,0.01
							c-0.04-5.25-3.975-6.124-4.07-6.104c-0.091-0.005-3.991,1.16-4.093,6.104h-4.152l0.75-6.394L292.981,147.69L292.981,147.69
							L292.981,147.69z M293.942,154.06h-16.946c-0.357,0-0.65,0.353-0.65,0.785c0,0.429,0.293,0.78,0.65,0.78h16.946
							c0.357,0,0.65-0.351,0.65-0.78C294.592,154.414,294.299,154.06,293.942,154.06z"/>
						<path fill="#FFFF00" stroke="#000000" stroke-width="0.5" d="M287.781,154.03c-0.017-3.313-2.261-4.251-2.273-4.248
							c0,0-2.343,0.966-2.36,4.248H287.781 M293.582,145.05h-16.245c-0.342,0-0.623,0.318-0.623,0.705s0.28,0.704,0.623,0.704
							h16.244c0.342,0,0.623-0.316,0.623-0.705C294.204,145.367,293.924,145.049,293.582,145.05L293.582,145.05z M293.241,146.47
							h-15.538c-0.327,0-0.594,0.317-0.594,0.704c0,0.388,0.267,0.704,0.594,0.704h15.538c0.327,0,0.595-0.316,0.595-0.704
							C293.836,146.787,293.568,146.47,293.241,146.47L293.241,146.47z M288.222,135.88l-1.227,0.002v0.87h-0.895v-0.89
							l-1.257,0.005v0.887h-0.896v-0.891h-1.258l0.003,2.01c0,0.317,0.254,0.52,0.549,0.52h4.41c0.297,0,0.57-0.236,0.57-0.526
							l0.004-1.989L288.222,135.88z M283.602,138.57l-0.277,6.45l4.303-0.015l-0.285-6.452L283.602,138.57"/>
						<path id="a_8_" fill="#FFFF00" stroke="#000000" stroke-width="0.5" d="M288.851,141.56l-0.13,3.478h4.124l-0.116-3.478h-3.88
							H288.851z"/>
						<g>
							<path id="a_9_" fill="#FFFF00" stroke="#000000" stroke-width="0.5" d="M278.242,141.56l-0.13,3.478h4.124l-0.116-3.478
								h-3.88H278.242z"/>
						</g>
						<path id="b_8_" fill="#FFFF00" stroke="#000000" stroke-width="0.5" d="M293.491,139.04l-1.2,0.004v0.872h-0.876v-0.892
							l-1.23,0.004v0.89h-0.88v-0.894l-1.23,0.002l0.004,2.012c0,0.314,0.25,0.518,0.536,0.518h4.317
							c0.29,0,0.558-0.235,0.558-0.526L293.491,139.04L293.491,139.04z"/>
						<g>
							<path id="b_9_" fill="#FFFF00" stroke="#000000" stroke-width="0.5" d="M282.882,139.04l-1.199,0.004v0.872h-0.877v-0.892
								l-1.23,0.004v0.89h-0.88v-0.894l-1.23,0.002l0.003,2.012c0,0.314,0.25,0.518,0.536,0.518h4.318
								c0.289,0,0.558-0.235,0.558-0.526L282.882,139.04L282.882,139.04z"/>
						</g>
						<path d="M285.892,140.61c0.026-0.626-0.877-0.634-0.866,0v1.536h0.866V140.61"/>
						<path id="c_8_" d="M291.222,142.84c0.003-0.606-0.838-0.618-0.826,0v1.187h0.826V142.84"/>
						<g>
							<path id="c_9_" d="M280.581,142.84c0.003-0.606-0.837-0.618-0.826,0v1.187h0.826V142.84"/>
						</g>
					</g>
					<g transform="translate(0 26.667) scale(1.06667)">
						<g id="d_5_">
							<path fill="#FFFF00" d="M289.601,200.75c-0.135-5.52-4.052-6.828-4.08-6.846c-0.03-0.02-4.232,1.407-4.218,6.898l8.297-0.049
								"/>
							<path fill="#FFFF00" stroke="#000000" stroke-width="0.5" d="M292.981,194.01l0.682,6.345l-4.14,0.01
								c-0.04-5.25-3.975-6.124-4.07-6.104c-0.091-0.005-3.991,1.16-4.093,6.104h-4.152l0.75-6.394l15.022,0.038L292.981,194.01
								L292.981,194.01z M293.942,200.38h-16.946c-0.357,0-0.65,0.353-0.65,0.785c0,0.429,0.293,0.78,0.65,0.78h16.946
								c0.357,0,0.65-0.351,0.65-0.78C294.592,200.734,294.299,200.38,293.942,200.38z"/>
							<path fill="#FFFF00" stroke="#000000" stroke-width="0.5" d="M287.781,200.35c-0.017-3.313-2.261-4.251-2.273-4.248
								c0,0-2.343,0.966-2.36,4.248H287.781 M293.582,191.37h-16.245c-0.342,0-0.623,0.318-0.623,0.705s0.28,0.704,0.623,0.704
								h16.244c0.342,0,0.623-0.316,0.623-0.705C294.204,191.687,293.924,191.369,293.582,191.37L293.582,191.37z M293.241,192.79
								h-15.538c-0.327,0-0.594,0.317-0.594,0.704c0,0.388,0.267,0.704,0.594,0.704h15.538c0.327,0,0.595-0.316,0.595-0.704
								C293.836,193.107,293.568,192.79,293.241,192.79L293.241,192.79z M288.222,182.2l-1.227,0.002v0.87h-0.895v-0.89
								l-1.257,0.005v0.887h-0.896v-0.891h-1.258l0.003,2.01c0,0.317,0.254,0.52,0.549,0.52h4.41c0.297,0,0.57-0.236,0.57-0.526
								l0.004-1.989L288.222,182.2z M283.602,184.89l-0.277,6.45l4.303-0.015l-0.285-6.452L283.602,184.89"/>
							<path id="a_10_" fill="#FFFF00" stroke="#000000" stroke-width="0.5" d="M288.851,187.88l-0.13,3.478h4.124l-0.116-3.478
								h-3.88H288.851z"/>
							<g>
								<path id="a_11_" fill="#FFFF00" stroke="#000000" stroke-width="0.5" d="M278.242,187.88l-0.13,3.478h4.124l-0.116-3.478
									h-3.88H278.242z"/>
							</g>
							<path id="b_10_" fill="#FFFF00" stroke="#000000" stroke-width="0.5" d="M293.491,185.36l-1.2,0.004v0.872h-0.876v-0.892
								l-1.23,0.004v0.89h-0.88v-0.894l-1.23,0.002l0.004,2.012c0,0.314,0.25,0.517,0.536,0.517h4.317
								c0.29,0,0.558-0.234,0.558-0.525L293.491,185.36L293.491,185.36z"/>
							<g>
								<path id="b_11_" fill="#FFFF00" stroke="#000000" stroke-width="0.5" d="M282.882,185.36l-1.199,0.004v0.872h-0.877v-0.892
									l-1.23,0.004v0.89h-0.88v-0.894l-1.23,0.002l0.003,2.012c0,0.314,0.25,0.517,0.536,0.517h4.318
									c0.289,0,0.558-0.234,0.558-0.525L282.882,185.36L282.882,185.36z"/>
							</g>
							<path d="M285.892,186.93c0.026-0.627-0.877-0.634-0.866,0v1.536h0.866V186.93"/>
							<path id="c_10_" d="M291.222,189.16c0.003-0.606-0.838-0.618-0.826,0v1.187h0.826V189.16"/>
							<g>
								<path id="c_11_" d="M280.581,189.16c0.003-0.606-0.837-0.618-0.826,0v1.187h0.826V189.16"/>
							</g>
						</g>
						<g id="e_1_">
							<g id="d_6_">
								<path fill="#FFFF00" d="M271.541,248.964c3.822-3.985,1.99-7.687,1.984-7.72c-0.007-0.036-3.981-2.011-7.867,1.868
									L271.541,248.964"/>
								<path fill="#FFFF00" stroke="#000000" stroke-width="0.5" d="M278.706,246.613l-4.022,4.955l-2.924-2.931
									c3.697-3.727,1.544-7.136,1.463-7.189c-0.06-0.067-3.635-2.014-7.215,1.396l-2.925-2.946l5.066-3.973L278.706,246.613
									h-0.002H278.706z M274.861,251.783l-11.94-12.024c-0.252-0.254-0.709-0.213-1.014,0.091
									c-0.305,0.303-0.347,0.758-0.095,1.011l11.94,12.025c0.252,0.253,0.706,0.214,1.012-0.089
									C275.068,252.493,275.113,252.036,274.861,251.783z"/>
								<path fill="#FFFF00" stroke="#000000" stroke-width="0.5" d="M270.543,247.39c2.337-2.346,1.422-4.6,1.412-4.607
									c0,0-2.335-0.981-4.677,1.319L270.543,247.39 M281.001,245.179l-11.446-11.527c-0.241-0.244-0.665-0.219-0.939,0.054
									s-0.302,0.695-0.06,0.938l11.446,11.527c0.242,0.243,0.664,0.22,0.939-0.055
									C281.215,245.844,281.243,245.422,281.001,245.179L281.001,245.179z M279.754,245.938l-10.948-11.026
									c-0.231-0.233-0.645-0.199-0.919,0.074s-0.31,0.686-0.08,0.917l10.948,11.027c0.231,0.232,0.644,0.199,0.918-0.074
									S279.985,246.17,279.754,245.938z M283.732,234.914l-0.866-0.87l-0.618,0.613l-0.63-0.635l0.631-0.627l-0.889-0.888
									l-0.629,0.624l-0.632-0.635l0.632-0.627l-0.886-0.893l-1.425,1.417c-0.224,0.223-0.19,0.547,0.019,0.757l3.107,3.129
									c0.209,0.21,0.569,0.238,0.774,0.035l1.415-1.4L283.732,234.914z M278.567,233.531l-4.772,4.349l3.042,3.042l4.377-4.748
									L278.567,233.531"/>
								<path id="a_12_" fill="#FFFF00" stroke="#000000" stroke-width="0.5" d="M280.145,239.363l-2.56,2.358l2.906,2.927
									l2.387-2.533L280.145,239.363L280.145,239.363z"/>
								<g>
									<path id="a_13_" fill="#FFFF00" stroke="#000000" stroke-width="0.5" d="M272.67,231.835l-2.56,2.358l2.906,2.926
										l2.387-2.533l-2.734-2.753L272.67,231.835L272.67,231.835z"/>
								</g>
								<path id="b_12_" fill="#FFFF00" stroke="#000000" stroke-width="0.5" d="M285.202,240.88l-0.847-0.849l-0.619,0.614
									l-0.618-0.623l0.633-0.629l-0.87-0.87l-0.631,0.627l-0.621-0.624l0.634-0.63l-0.868-0.872l-1.425,1.42
									c-0.223,0.222-0.191,0.542,0.01,0.745l3.041,3.063c0.205,0.206,0.56,0.231,0.766,0.027L285.202,240.88z"/>
								<g>
									<path id="b_13_" fill="#FFFF00" stroke="#000000" stroke-width="0.5" d="M277.727,233.352l-0.847-0.85l-0.619,0.614
										l-0.618-0.623l0.633-0.628l-0.87-0.871l-0.631,0.627l-0.621-0.624l0.634-0.63l-0.868-0.871l-1.425,1.419
										c-0.222,0.222-0.191,0.543,0.01,0.745l3.041,3.063c0.205,0.206,0.56,0.231,0.766,0.027L277.727,233.352L277.727,233.352z"
										/>
								</g>
								<path d="M278.733,236.593c0.463-0.423-0.168-1.069-0.61-0.614l-1.09,1.082l0.611,0.614L278.733,236.593"/>
								<path id="c_12_" d="M280.906,241.946c0.432-0.425-0.151-1.029-0.582-0.586l-0.842,0.837l0.582,0.586L280.906,241.946"/>
								<g transform="matrix(-1 0 0 1 479.792 0)">
									<path id="c_13_" d="M273.408,234.396c0.433-0.425-0.151-1.029-0.581-0.586l-0.842,0.836l0.581,0.586L273.408,234.396"/>
								</g>
							</g>
						</g>
						<g id="f">
							<path fill="#003399" d="M232.635,202.406v0.005c-0.008,2.108,0.782,4.141,2.212,5.69c1.365,1.467,3.246,2.378,5.302,2.378
								c2.067,0,3.944-0.905,5.304-2.365c1.358-1.46,2.202-3.472,2.202-5.693v-10.768l-14.992-0.013L232.635,202.406"/>
							<circle fill="#FFFFFF" cx="236.073" cy="195.735" r="1.486"/>
							<circle fill="#FFFFFF" cx="244.392" cy="195.742" r="1.486"/>
							<circle fill="#FFFFFF" cx="240.224" cy="199.735" r="1.486"/>
							<circle fill="#FFFFFF" cx="236.073" cy="203.916" r="1.486"/>
							<circle fill="#FFFFFF" cx="244.383" cy="203.905" r="1.486"/>
						</g>
						<g>
							<g id="f_1_">
								<path fill="#003399" d="M232.635,176.39v0.005c-0.008,2.108,0.782,4.141,2.212,5.69c1.365,1.468,3.246,2.379,5.302,2.379
									c2.067,0,3.944-0.905,5.304-2.366c1.358-1.459,2.202-3.472,2.202-5.693v-10.767l-14.992-0.014L232.635,176.39"/>
								<circle fill="#FFFFFF" cx="236.073" cy="169.719" r="1.486"/>
								<circle fill="#FFFFFF" cx="244.392" cy="169.726" r="1.486"/>
								<circle fill="#FFFFFF" cx="240.224" cy="173.719" r="1.486"/>
								<circle fill="#FFFFFF" cx="236.073" cy="177.9" r="1.486"/>
								<circle fill="#FFFFFF" cx="244.383" cy="177.889" r="1.486"/>
							</g>
						</g>
						<g>
							<g id="f_2_">
								<path fill="#003399" d="M211.837,202.406v0.005c-0.008,2.108,0.782,4.141,2.212,5.69c1.365,1.467,3.245,2.378,5.302,2.378
									c2.067,0,3.944-0.905,5.304-2.365c1.358-1.46,2.202-3.472,2.202-5.693v-10.768l-14.993-0.013L211.837,202.406"/>
								<circle fill="#FFFFFF" cx="215.274" cy="195.735" r="1.486"/>
								<circle fill="#FFFFFF" cx="223.593" cy="195.742" r="1.486"/>
								<circle fill="#FFFFFF" cx="219.425" cy="199.735" r="1.486"/>
								<circle fill="#FFFFFF" cx="215.274" cy="203.916" r="1.486"/>
								<circle fill="#FFFFFF" cx="223.584" cy="203.905" r="1.486"/>
							</g>
						</g>
						<g>
							<g id="f_3_">
								<path fill="#003399" d="M253.38,202.406v0.005c-0.008,2.108,0.782,4.141,2.212,5.69c1.365,1.467,3.246,2.378,5.303,2.378
									c2.066,0,3.943-0.905,5.303-2.365c1.358-1.46,2.202-3.472,2.202-5.693v-10.768l-14.992-0.013L253.38,202.406"/>
								<circle fill="#FFFFFF" cx="256.818" cy="195.735" r="1.486"/>
								<circle fill="#FFFFFF" cx="265.137" cy="195.742" r="1.486"/>
								<circle fill="#FFFFFF" cx="260.969" cy="199.735" r="1.486"/>
								<circle fill="#FFFFFF" cx="256.818" cy="203.916" r="1.486"/>
								<circle fill="#FFFFFF" cx="265.127" cy="203.905" r="1.486"/>
							</g>
						</g>
						<g>
							<g id="f_4_">
								<path fill="#003399" d="M232.635,228.19v0.005c-0.008,2.108,0.782,4.141,2.212,5.69c1.365,1.467,3.246,2.378,5.302,2.378
									c2.067,0,3.944-0.905,5.304-2.365c1.358-1.46,2.202-3.472,2.202-5.693v-10.768l-14.992-0.013L232.635,228.19"/>
								<circle fill="#FFFFFF" cx="236.073" cy="221.519" r="1.486"/>
								<circle fill="#FFFFFF" cx="244.392" cy="221.526" r="1.486"/>
								<circle fill="#FFFFFF" cx="240.224" cy="225.519" r="1.486"/>
								<circle fill="#FFFFFF" cx="236.073" cy="229.7" r="1.486"/>
								<circle fill="#FFFFFF" cx="244.383" cy="229.689" r="1.486"/>
							</g>
						</g>
					</g>
				</g>
			</g>
		</g>
	</g>
</g>
</svg>
