<svg width="14" height="14" viewBox="0 0 14 14" fill="none" xmlns="http://www.w3.org/2000/svg">
<path fill-rule="evenodd" clip-rule="evenodd" d="M11.8002 6.99961C11.8002 7.21961 11.7869 7.42628 11.7602 7.62628L13.1002 8.67961C13.2269 8.77294 13.2602 8.93961 13.1802 9.08628L11.9002 11.2996C11.8202 11.4463 11.6536 11.4996 11.5069 11.4463L9.91357 10.8063C9.5869 11.0596 9.2269 11.2729 8.83357 11.4329L8.59357 13.1263C8.57357 13.2863 8.44024 13.3996 8.28024 13.3996H5.72024C5.56024 13.3996 5.43357 13.2863 5.40024 13.1263L5.16024 11.4329C4.7669 11.2729 4.41357 11.0596 4.08024 10.8063L2.4869 11.4463C2.34024 11.4929 2.17357 11.4463 2.09357 11.2996L0.813569 9.08628C0.740236 8.95294 0.773569 8.77294 0.893569 8.67961L2.2469 7.62628C2.21357 7.42628 2.20024 7.20628 2.20024 6.99961C2.20024 6.79294 2.2269 6.57294 2.26024 6.37294L0.906903 5.31961C0.773569 5.22628 0.746903 5.05294 0.826903 4.91294L2.10024 2.69961C2.18024 2.55294 2.3469 2.49961 2.49357 2.55294L4.0869 3.19294C4.41357 2.94628 4.77357 2.72628 5.1669 2.56628L5.4069 0.872943C5.43357 0.712943 5.56024 0.599609 5.72024 0.599609H8.28024C8.44024 0.599609 8.57357 0.712943 8.60024 0.872943L8.84024 2.56628C9.23357 2.72628 9.5869 2.93961 9.92024 3.19294L11.5136 2.55294C11.6602 2.50628 11.8269 2.55294 11.9069 2.69961L13.1869 4.91294C13.2602 5.04628 13.2269 5.22628 13.1069 5.31961L11.7536 6.37294C11.7869 6.57294 11.8002 6.78628 11.8002 6.99961ZM4.59994 7.00026C4.59994 8.32026 5.67993 9.40026 6.99994 9.40026C8.31994 9.40026 9.39993 8.32026 9.39993 7.00026C9.39993 5.68026 8.31994 4.60026 6.99994 4.60026C5.67993 4.60026 4.59994 5.68026 4.59994 7.00026Z" fill="#6BA2E4"/>
</svg>
