<svg width="14" height="14" viewBox="0 0 14 14" fill="none" xmlns="http://www.w3.org/2000/svg">
<path fill-rule="evenodd" clip-rule="evenodd" d="M0.333496 6.99967C0.333496 3.31967 3.3135 0.333008 6.9935 0.333008C10.6802 0.333008 13.6668 3.31967 13.6668 6.99967C13.6668 10.6797 10.6802 13.6663 6.9935 13.6663C3.3135 13.6663 0.333496 10.6797 0.333496 6.99967ZM9.64656 4.33281H11.6132C10.9732 3.23281 9.95323 2.37947 8.72656 1.95947C9.12656 2.69947 9.43323 3.49947 9.64656 4.33281ZM6.9999 1.69287C7.55323 2.49287 7.98656 3.37954 8.27323 4.33287H5.72656C6.01323 3.37954 6.44656 2.49287 6.9999 1.69287ZM1.66667 6.99951C1.66667 7.45951 1.73333 7.90618 1.84 8.33285H4.09333C4.04 7.89285 4 7.45285 4 6.99951C4 6.54618 4.04 6.10618 4.09333 5.66618H1.84C1.73333 6.09285 1.66667 6.53951 1.66667 6.99951ZM2.38672 9.66618H4.35339C4.56672 10.4995 4.87339 11.2995 5.27339 12.0395C4.04672 11.6195 3.02672 10.7728 2.38672 9.66618ZM2.38672 4.33281H4.35339C4.56672 3.49947 4.87339 2.69947 5.27339 1.95947C4.04672 2.37947 3.02672 3.22614 2.38672 4.33281ZM6.9999 12.3062C6.44656 11.5062 6.01323 10.6195 5.72656 9.66618H8.27323C7.98656 10.6195 7.55323 11.5062 6.9999 12.3062ZM5.44 8.33285H8.56C8.62 7.89285 8.66667 7.45285 8.66667 6.99951C8.66667 6.54618 8.62 6.09951 8.56 5.66618H5.44C5.38 6.09951 5.33333 6.54618 5.33333 6.99951C5.33333 7.45285 5.38 7.89285 5.44 8.33285ZM8.72656 12.0395C9.12656 11.2995 9.43323 10.4995 9.64656 9.66618H11.6132C10.9732 10.7662 9.95323 11.6195 8.72656 12.0395ZM9.99991 6.99951C9.99991 7.45285 9.95991 7.89285 9.90658 8.33285H12.1599C12.2666 7.90618 12.3332 7.45951 12.3332 6.99951C12.3332 6.53951 12.2666 6.09285 12.1599 5.66618H9.90658C9.95991 6.10618 9.99991 6.54618 9.99991 6.99951Z" fill="#6BA2E4"/>
</svg>
