<svg width="64" height="64" viewBox="0 0 64 64" fill="none" xmlns="http://www.w3.org/2000/svg">
<circle cx="32" cy="32" r="24" fill="#DCFFD0"/>
<path d="M30.0004 37.1203L18.8804 26.0003L15.0938 29.7603L30.0004 44.667L62.0004 12.667L58.2404 8.90698L30.0004 37.1203Z" fill="#16AB03"/>
<path d="M62.0702 21.0554C64.7057 28.2964 64.6398 36.2453 61.8846 43.4417C59.1293 50.6381 53.8698 56.5986 47.0724 60.2281C40.2749 63.8576 32.396 64.9123 24.8832 63.1986C17.3704 61.4848 10.7283 57.1176 6.17726 50.8994C1.62618 44.6811 -0.528202 37.0294 0.109906 29.3501C0.748014 21.6708 4.13576 14.4796 9.65073 9.09781C15.1657 3.71598 22.4375 0.504961 30.1301 0.0546796C37.8227 -0.395601 45.4195 1.9451 51.5247 6.64675L50.1579 8.42148C44.4801 4.04895 37.4151 1.87209 30.261 2.29085C23.1069 2.70961 16.3441 5.69586 11.2152 10.701C6.08625 15.7061 2.93565 22.3938 2.34221 29.5356C1.74877 36.6774 3.75235 43.7934 7.98485 49.5764C12.2173 55.3594 18.3945 59.4209 25.3814 61.0147C32.3683 62.6085 39.6956 61.6275 46.0173 58.2521C52.339 54.8767 57.2303 49.3334 59.7926 42.6408C62.355 35.9482 62.4163 28.5557 59.9653 21.8215L62.0702 21.0554Z" fill="#78D866"/>
</svg>
