<svg width="14" height="8" viewBox="0 0 14 8" fill="none" xmlns="http://www.w3.org/2000/svg">
<path fill-rule="evenodd" clip-rule="evenodd" d="M1.59967 3.99996C1.59967 2.85996 2.52634 1.93329 3.66634 1.93329H6.33301V0.666626H3.66634C1.82634 0.666626 0.333008 2.15996 0.333008 3.99996C0.333008 5.83996 1.82634 7.33329 3.66634 7.33329H6.33301V6.06663H3.66634C2.52634 6.06663 1.59967 5.13996 1.59967 3.99996ZM4.33333 4.66667H9.66667V3.33333H4.33333V4.66667ZM7.66667 0.666667H10.3333C12.1733 0.666667 13.6667 2.16 13.6667 4C13.6667 5.84 12.1733 7.33333 10.3333 7.33333H7.66667V6.06667H10.3333C11.4733 6.06667 12.4 5.14 12.4 4C12.4 2.86 11.4733 1.93333 10.3333 1.93333H7.66667V0.666667Z" fill="black"/>
</svg>
