<svg width="12" height="15" viewBox="0 0 12 15" fill="none" xmlns="http://www.w3.org/2000/svg">
<path fill-rule="evenodd" clip-rule="evenodd" d="M9.33366 5.33335H10.0003C10.7337 5.33335 11.3337 5.93335 11.3337 6.66669V13.3334C11.3337 14.0667 10.7337 14.6667 10.0003 14.6667H2.00033C1.26699 14.6667 0.666992 14.0667 0.666992 13.3334V6.66669C0.666992 5.93335 1.26699 5.33335 2.00033 5.33335H2.66699V4.00002C2.66699 2.16002 4.16033 0.666687 6.00033 0.666687C7.84032 0.666687 9.33366 2.16002 9.33366 4.00002V5.33335ZM7.33366 10C7.33366 10.7334 6.73366 11.3334 6.00033 11.3334C5.26699 11.3334 4.66699 10.7334 4.66699 10C4.66699 9.26669 5.26699 8.66669 6.00033 8.66669C6.73366 8.66669 7.33366 9.26669 7.33366 10ZM3.93366 4.00005C3.93366 2.86005 4.86033 1.93339 6.00033 1.93339C7.14033 1.93339 8.06699 2.86005 8.06699 4.00005V5.33339H3.93366V4.00005ZM2.00033 13.3334H10.0003V6.66669H2.00033V13.3334Z" fill="#9D9D9C"/>
</svg>
