<?xml version="1.0" encoding="UTF-8"?>
<svg width="16px" height="14px" viewBox="0 0 16 14" version="1.1" xmlns="http://www.w3.org/2000/svg" xmlns:xlink="http://www.w3.org/1999/xlink">
    <title>Union</title>
    <g id="Buyer-and-Seller" stroke="none" stroke-width="1" fill="none" fill-rule="evenodd">
        <g id="B-03-3-Company-3" transform="translate(-108.000000, -717.000000)" fill="#9D9D9C">
            <g id="Regulatory-Inspections" transform="translate(72.000000, 496.000000)">
                <g id="Tables" transform="translate(24.000000, 70.000000)">
                    <g id="Row-3" transform="translate(0.000000, 138.000000)">
                        <g id="Left-Icon---Text" transform="translate(12.000000, 10.000000)">
                            <g id="tokens/icons/action/not_verified" transform="translate(0.000000, 2.000000)">
                                <path d="M8.94289744,8.00008901 L10.3571112,9.41430283 L9.41430245,10.3571116 L8.00008869,8.9428978 L6.58587494,10.3571116 L5.64306619,9.41430283 L7.05727995,8.00008901 L5.64306619,6.58587519 L6.58587494,5.64306641 L8.00008869,7.05728022 L9.41430245,5.64306641 L10.3571112,6.58587519 L8.94289744,8.00008901 Z M15.3334141,8 L13.7067471,6.14000003 L13.9334139,3.67999999 L11.5267482,3.13333337 L10.2667474,1 L8.00008106,1.97333336 L5.73341443,1 L4.47341457,3.1266667 L2.06674792,3.66666667 L2.29341468,6.13333321 L0.666748047,8 L2.29341468,9.85999997 L2.06674792,12.3266665 L4.47341457,12.873333 L5.73341443,15 L8.00008106,14.0200005 L10.2667474,14.9933332 L11.5267482,12.8666662 L13.9334139,12.3199997 L13.7067471,9.85999997 L15.3334141,8 Z M13.5621167,8 L12.3265592,9.41278839 L12.4984812,11.2786427 L10.6720297,11.6935145 L9.71664199,13.3060468 L7.99828053,12.5681623 L6.28202478,13.3101896 L5.32813338,11.7001813 L3.50139701,11.2852446 L3.67347418,9.41264153 L2.43667372,7.99843089 L3.67334607,6.57929866 L3.50168184,4.71118514 L5.32707131,4.30161063 L6.28352014,2.68728701 L8.00008106,3.42439858 L9.71515298,2.68792645 L10.6709724,4.30624453 L12.4984812,4.72135735 L12.3265592,6.58721161 L13.5621167,8 Z" id="Union"></path>
                            </g>
                        </g>
                    </g>
                </g>
            </g>
        </g>
    </g>
</svg>