<svg width="20" height="20" viewBox="0 0 20 20" fill="none" xmlns="http://www.w3.org/2000/svg">
<path d="M7.33381 7.33377C7.80244 6.86514 7.80241 6.10531 7.33381 5.63672C6.86521 5.16812 6.10539 5.16808 5.63675 5.63672C5.16812 6.10535 5.16816 6.86518 5.63675 7.33377C6.10535 7.80237 6.86517 7.80241 7.33381 7.33377Z" fill="#001750"/>
<path d="M3.51543 6.06098C3.74973 6.29528 3.74974 6.6752 3.51543 6.90951C3.28112 7.14382 2.9012 7.14381 2.6669 6.90951C2.43261 6.67521 2.43259 6.29529 2.6669 6.06098C2.90122 5.82667 3.28113 5.82668 3.51543 6.06098Z" fill="#001750"/>
<path d="M6.90954 10.3036C7.14386 10.0693 7.14384 9.68939 6.90954 9.45509C6.67525 9.2208 6.29533 9.22078 6.06102 9.4551C5.82671 9.68941 5.82672 10.0693 6.06102 10.3036C6.29532 10.5379 6.67523 10.5379 6.90954 10.3036Z" fill="#001750"/>
<path d="M6.90955 2.66687C7.14384 2.90117 7.14386 3.28109 6.90955 3.5154C6.67523 3.74971 6.29532 3.7497 6.06102 3.5154C5.82672 3.2811 5.82671 2.90118 6.06102 2.66687C6.29533 2.43256 6.67525 2.43257 6.90955 2.66687Z" fill="#001750"/>
<path d="M10.3037 6.90951C10.538 6.6752 10.538 6.29528 10.3037 6.06098C10.0694 5.82668 9.68944 5.82667 9.45513 6.06098C9.22082 6.29529 9.22083 6.67521 9.45513 6.90951C9.68943 7.14381 10.0693 7.14382 10.3037 6.90951Z" fill="#001750"/>
<path fill-rule="evenodd" clip-rule="evenodd" d="M1.81838 9.4551C-0.290514 7.3462 -0.290449 3.92717 1.81838 1.81834C3.9272 -0.290484 7.34624 -0.290549 9.45513 1.81834L17.9404 10.3036C20.0493 12.4125 20.0492 15.8315 17.9404 17.9404C15.8316 20.0492 12.4125 20.0493 10.3037 17.9404L1.81838 9.4551ZM2.6669 8.60657C1.02661 6.96627 1.0267 4.30707 2.6669 2.66687C4.30711 1.02667 6.96631 1.02658 8.6066 2.66687L12.8492 6.90951L6.90955 12.8492L2.6669 8.60657Z" fill="#001750"/>
</svg>
