<svg width="14" height="14" viewBox="0 0 14 14" fill="none" xmlns="http://www.w3.org/2000/svg">
<path fill-rule="evenodd" clip-rule="evenodd" d="M6.9935 0.333984C3.3135 0.333984 0.333496 3.32065 0.333496 7.00065C0.333496 10.6807 3.3135 13.6673 6.9935 13.6673C10.6802 13.6673 13.6668 10.6807 13.6668 7.00065C13.6668 3.32065 10.6802 0.333984 6.9935 0.333984ZM7.66683 7.66732V3.66732H6.3335V7.66732H7.66683ZM7.66683 10.334V9.00065H6.3335V10.334H7.66683ZM1.66683 7.00065C1.66683 9.94732 4.0535 12.334 7.00016 12.334C9.94683 12.334 12.3335 9.94732 12.3335 7.00065C12.3335 4.05398 9.94683 1.66732 7.00016 1.66732C4.0535 1.66732 1.66683 4.05398 1.66683 7.00065Z" fill="#FFF1CC"/>
</svg>
