<svg width="14" height="14" viewBox="0 0 14 14" fill="none" xmlns="http://www.w3.org/2000/svg">
<path fill-rule="evenodd" clip-rule="evenodd" d="M6.99967 0.333252C3.31967 0.333252 0.333008 3.31992 0.333008 6.99992C0.333008 10.6799 3.31967 13.6666 6.99967 13.6666C10.6797 13.6666 13.6663 10.6799 13.6663 6.99992C13.6663 3.31992 10.6797 0.333252 6.99967 0.333252ZM7.66667 6.33333V3.66667H6.33333V6.33333H3.66667V7.66667H6.33333V10.3333H7.66667V7.66667H10.3333V6.33333H7.66667ZM1.66667 7C1.66667 9.94 4.06 12.3333 7 12.3333C9.94 12.3333 12.3333 9.94 12.3333 7C12.3333 4.06 9.94 1.66667 7 1.66667C4.06 1.66667 1.66667 4.06 1.66667 7Z" fill="black"/>
</svg>
