<svg width="274" height="211" viewBox="0 0 274 211" fill="none" xmlns="http://www.w3.org/2000/svg">
<path d="M142.454 146.112C141.895 146.016 141.364 145.798 140.898 145.475C140.432 145.151 140.042 144.729 139.757 144.238C139.472 143.747 139.297 143.199 139.246 142.634C139.195 142.068 139.268 141.498 139.461 140.964L122.433 111.479L130.481 108.943L144.704 138.69C145.578 139.073 146.282 139.765 146.682 140.633C147.081 141.502 147.149 142.487 146.872 143.401C146.594 144.316 145.991 145.098 145.177 145.597C144.363 146.097 143.394 146.28 142.454 146.112L142.454 146.112Z" fill="#FFB8B8"/>
<path d="M123.032 116.257C122.787 116.212 122.556 116.11 122.357 115.96C122.158 115.811 121.996 115.617 121.884 115.394L117.391 106.525C117.22 106.187 117.172 105.799 117.256 105.429C117.34 105.059 117.55 104.731 117.85 104.499L122.659 100.796C122.965 100.558 123.347 100.438 123.734 100.458C124.122 100.478 124.489 100.637 124.769 100.906L131.438 107.25C131.601 107.405 131.73 107.592 131.817 107.8C131.904 108.007 131.947 108.231 131.944 108.456C131.94 108.681 131.89 108.903 131.796 109.107C131.703 109.312 131.568 109.495 131.4 109.644L124.415 115.873C124.23 116.039 124.008 116.16 123.769 116.227C123.529 116.294 123.277 116.304 123.032 116.257H123.032Z" fill="#6C63FF"/>
<path d="M274 76.5944C274 53.886 255.612 0 232.93 0C210.248 0 191.86 53.886 191.86 76.5944C191.858 81.995 192.919 87.343 194.983 92.333C197.046 97.3229 200.071 101.857 203.885 105.676C207.699 109.496 212.227 112.525 217.21 114.593C222.194 116.66 227.536 117.724 232.93 117.724C238.324 117.724 243.666 116.66 248.649 114.593C253.633 112.525 258.161 109.496 261.975 105.676C265.789 101.857 268.814 97.3229 270.877 92.333C272.94 87.343 274.002 81.995 274 76.5944V76.5944Z" fill="#6C63FF"/>
<path d="M232.93 201.647C233.02 201.647 233.105 201.612 233.169 201.548C233.232 201.485 233.268 201.399 233.268 201.309V34.5312C233.268 34.4415 233.232 34.3555 233.169 34.2921C233.105 34.2287 233.02 34.1931 232.93 34.1931C232.84 34.1931 232.755 34.2287 232.691 34.2921C232.628 34.3555 232.592 34.4415 232.592 34.5312V201.309C232.592 201.399 232.628 201.485 232.691 201.548C232.755 201.612 232.84 201.647 232.93 201.647Z" fill="#3F3D56"/>
<path d="M232.93 61.8987C232.974 61.8988 233.018 61.89 233.059 61.873C233.1 61.856 233.137 61.8311 233.169 61.7996L249.424 45.5256C249.487 45.462 249.522 45.3762 249.522 45.2869C249.521 45.1976 249.486 45.112 249.423 45.0488C249.36 44.9857 249.274 44.9501 249.185 44.9498C249.096 44.9496 249.01 44.9847 248.947 45.0475L232.691 61.3216C232.644 61.3688 232.612 61.4291 232.599 61.4947C232.586 61.5602 232.592 61.6282 232.618 61.69C232.644 61.7518 232.687 61.8046 232.742 61.8417C232.798 61.8788 232.863 61.8987 232.93 61.8987V61.8987Z" fill="#3F3D56"/>
<path d="M232.93 90.0724C232.997 90.0724 233.062 90.0526 233.118 90.0154C233.173 89.9783 233.216 89.9255 233.242 89.8637C233.268 89.8019 233.274 89.7339 233.261 89.6684C233.248 89.6028 233.216 89.5425 233.169 89.4953L205.946 62.2411C205.883 62.1784 205.797 62.1434 205.708 62.1437C205.619 62.144 205.533 62.1796 205.47 62.2427C205.407 62.3058 205.372 62.3914 205.371 62.4806C205.371 62.5699 205.406 62.6557 205.468 62.7192L232.691 89.9733C232.723 90.0048 232.76 90.0297 232.801 90.0467C232.842 90.0637 232.886 90.0724 232.93 90.0724V90.0724Z" fill="#3F3D56"/>
<path d="M59.0641 132.632C59.0641 116.315 45.8422 77.5933 29.5321 77.5933C13.222 77.5933 0 116.315 0 132.632C0.00591956 140.47 3.11994 147.984 8.65763 153.524C14.1953 159.064 21.7035 162.176 29.5321 162.176C37.3606 162.176 44.8688 159.064 50.4065 153.524C55.9442 147.984 59.0582 140.47 59.0641 132.632V132.632Z" fill="#E6E6E6"/>
<path d="M29.532 204.515C29.5639 204.515 29.5955 204.508 29.6249 204.496C29.6544 204.484 29.6811 204.466 29.7037 204.443C29.7262 204.421 29.7441 204.394 29.7563 204.365C29.7686 204.335 29.7748 204.304 29.7749 204.272V102.407C29.7746 102.342 29.7489 102.281 29.7034 102.235C29.6579 102.19 29.5963 102.164 29.532 102.164C29.4678 102.164 29.4061 102.19 29.3606 102.235C29.3151 102.281 29.2894 102.342 29.2892 102.407V204.272C29.2892 204.304 29.2955 204.335 29.3077 204.365C29.3199 204.394 29.3378 204.421 29.3603 204.443C29.3829 204.466 29.4097 204.484 29.4391 204.496C29.4686 204.508 29.5001 204.515 29.532 204.515V204.515Z" fill="#3F3D56"/>
<path d="M29.5321 122.072C29.564 122.072 29.5956 122.066 29.625 122.054C29.6545 122.042 29.6813 122.024 29.7038 122.001L41.3926 110.307C41.4381 110.261 41.4636 110.2 41.4636 110.135C41.4636 110.071 41.438 110.009 41.3924 109.963C41.3469 109.918 41.2851 109.892 41.2207 109.892C41.1564 109.892 41.0946 109.918 41.0491 109.964L29.3604 121.658C29.3264 121.692 29.3033 121.735 29.294 121.782C29.2846 121.829 29.2894 121.878 29.3078 121.923C29.3262 121.967 29.3573 122.005 29.3972 122.032C29.4372 122.058 29.4841 122.072 29.5321 122.072L29.5321 122.072Z" fill="#3F3D56"/>
<path d="M29.532 142.317C29.58 142.317 29.627 142.303 29.6669 142.277C29.7068 142.25 29.7379 142.212 29.7563 142.168C29.7747 142.123 29.7795 142.074 29.7702 142.027C29.7608 141.98 29.7377 141.937 29.7038 141.903L10.1288 122.318C10.0833 122.273 10.0216 122.247 9.95721 122.247C9.89283 122.247 9.83108 122.273 9.78553 122.318C9.73999 122.364 9.71438 122.426 9.71436 122.49C9.71433 122.555 9.73988 122.616 9.78538 122.662L29.3603 142.246C29.3828 142.269 29.4096 142.287 29.4391 142.299C29.4685 142.311 29.5001 142.317 29.532 142.317V142.317Z" fill="#3F3D56"/>
<path d="M47.1002 210.879C47.058 210.911 47.0136 210.941 46.971 210.973H10.766C10.0566 208.097 9.80605 205.218 10.8657 202.718C12.3755 199.156 16.8438 196.932 20.3962 198.462C21.2378 198.834 21.971 199.415 22.5268 200.149C23.915 197.662 26.4053 195.788 29.2797 195.79C32.8809 195.792 35.8751 198.739 36.8521 202.142C38.4256 199.485 41.5335 197.628 44.5712 198.427C49.6521 199.763 51.2569 207.665 47.1002 210.879Z" fill="#F2F2F2"/>
<path d="M122.201 118.389C121.957 118.337 121.729 118.229 121.534 118.074C121.339 117.918 121.183 117.72 121.077 117.494L116.83 108.504C116.668 108.162 116.631 107.773 116.725 107.406C116.819 107.038 117.038 106.715 117.344 106.492L122.254 102.923C122.566 102.694 122.951 102.584 123.338 102.615C123.725 102.646 124.087 102.815 124.36 103.091L130.852 109.617C131.01 109.777 131.134 109.967 131.216 110.177C131.297 110.387 131.334 110.612 131.324 110.837C131.314 111.061 131.258 111.282 131.158 111.484C131.059 111.686 130.919 111.865 130.747 112.01L123.593 118.043C123.404 118.204 123.179 118.319 122.938 118.379C122.696 118.439 122.444 118.442 122.201 118.389V118.389Z" fill="#6C63FF"/>
<path d="M95.2944 203.62L99.5671 204.783L106.084 188.838L99.7785 187.121L95.2944 203.62Z" fill="#FFB8B8"/>
<path d="M106.728 211L93.2995 207.342L94.7111 202.148L103.288 204.485C104.575 204.835 105.669 205.683 106.332 206.841C106.994 208 107.169 209.375 106.819 210.663L106.728 211V211Z" fill="#2F2E41"/>
<path d="M131.82 206.884L136.248 206.883L138.354 189.785L131.819 189.785L131.82 206.884Z" fill="#FFB8B8"/>
<path d="M144.787 210.999L130.871 211L130.871 205.617L139.76 205.617C141.093 205.617 142.372 206.147 143.315 207.091C144.258 208.035 144.787 209.315 144.787 210.65L144.787 210.999V210.999Z" fill="#2F2E41"/>
<path d="M131.422 91.3882C134.886 87.9199 134.886 82.2968 131.422 78.8286C127.958 75.3604 122.341 75.3604 118.877 78.8286C115.413 82.2968 115.413 87.9199 118.877 91.3882C122.341 94.8564 127.958 94.8564 131.422 91.3882Z" fill="#FFB8B8"/>
<path d="M130.481 193.286L125.523 156.987C125.486 156.718 125.363 156.468 125.173 156.273C124.983 156.079 124.736 155.951 124.467 155.909C124.199 155.867 123.924 155.912 123.684 156.038C123.443 156.164 123.25 156.364 123.132 156.609L106.257 191.65C106.085 192.002 105.793 192.281 105.433 192.435C105.074 192.59 104.671 192.611 104.297 192.493L97.7944 190.41C97.3917 190.282 97.0546 190.002 96.855 189.63C96.6554 189.257 96.6091 188.821 96.7259 188.415C104.636 160.455 111.466 139.654 119.087 129.014C119.117 128.972 119.147 128.933 119.18 128.895L120.871 126.921C121.023 126.742 121.212 126.599 121.425 126.501C121.638 126.403 121.87 126.352 122.105 126.352H134.548C134.873 126.351 135.191 126.448 135.46 126.631C135.729 126.813 135.937 127.073 136.057 127.375L136.381 128.186C136.407 128.252 136.429 128.318 136.447 128.386C140.514 143.885 141.569 164.469 139.766 193.166C139.739 193.579 139.557 193.966 139.255 194.25C138.954 194.533 138.556 194.692 138.142 194.692H132.091C131.699 194.691 131.32 194.548 131.024 194.29C130.728 194.031 130.535 193.675 130.481 193.286Z" fill="#2F2E41"/>
<path d="M118.485 128.277C116.693 125.405 108.139 110.567 115.817 100.518C115.955 100.34 116.044 100.129 116.075 99.906L116.379 97.5691C116.407 97.3507 116.479 97.1403 116.591 96.9507C116.703 96.761 116.852 96.5961 117.029 96.4659C117.206 96.3357 117.408 96.243 117.623 96.1933C117.837 96.1437 118.059 96.1382 118.276 96.1771C120.945 96.6634 125.972 98.1924 129.653 102.967C129.829 103.197 129.94 103.47 129.975 103.757L130.178 105.385C130.203 105.599 130.284 105.803 130.411 105.976C130.538 106.15 130.708 106.288 130.905 106.377C133.253 107.444 138.507 111.604 136.591 127.131C136.546 127.517 136.362 127.875 136.075 128.137C135.788 128.399 135.417 128.55 135.028 128.561L119.914 129.039C119.896 129.039 119.88 129.039 119.863 129.039C119.587 129.039 119.317 128.969 119.076 128.836C118.835 128.702 118.632 128.51 118.485 128.277V128.277Z" fill="#6C63FF"/>
<path d="M112.356 152.074C111.972 151.656 111.684 151.159 111.513 150.617C111.342 150.076 111.291 149.503 111.365 148.94C111.439 148.377 111.635 147.837 111.939 147.358C112.244 146.879 112.65 146.473 113.129 146.168L117.645 112.411L125.564 115.327L118.667 147.575C119.125 148.414 119.26 149.392 119.047 150.323C118.833 151.255 118.285 152.076 117.507 152.631C116.729 153.185 115.775 153.435 114.826 153.332C113.876 153.23 112.997 152.782 112.356 152.074V152.074Z" fill="#FFB8B8"/>
<path d="M115.203 116.56C115.037 116.374 114.916 116.152 114.85 115.912C114.784 115.671 114.774 115.419 114.822 115.174L116.678 105.405C116.749 105.032 116.948 104.696 117.24 104.455C117.532 104.213 117.899 104.082 118.277 104.082L124.344 104.092C124.732 104.091 125.108 104.23 125.402 104.483C125.696 104.736 125.89 105.086 125.948 105.47L127.355 114.572C127.389 114.794 127.377 115.022 127.32 115.239C127.262 115.457 127.159 115.66 127.019 115.836C126.879 116.012 126.704 116.157 126.505 116.261C126.306 116.366 126.087 116.428 125.863 116.444L116.532 117.102C116.284 117.12 116.035 117.08 115.804 116.986C115.574 116.892 115.368 116.746 115.203 116.56L115.203 116.56Z" fill="#6C63FF"/>
<path d="M115.39 79.5851C116.048 77.5855 116.535 75.533 116.843 73.4502C116.94 72.2376 116.63 70.9329 115.748 70.0962C114.097 68.5305 111.293 69.2762 109.566 70.7581C107.071 72.8996 105.827 76.1908 105.357 79.4472C104.887 82.7035 105.093 86.0148 104.98 89.303C104.867 92.5913 104.397 95.9723 102.723 98.8034C101.048 101.634 97.941 103.808 94.6635 103.567C93.3405 103.495 92.0843 102.962 91.1129 102.06C90.636 101.606 90.2749 101.044 90.0597 100.421C89.8446 99.7985 89.7817 99.1332 89.8764 98.4811C88.2012 101.484 89.0504 105.554 91.5491 107.915C94.0478 110.276 97.8913 110.943 101.176 109.936C104.461 108.928 107.165 106.4 108.78 103.364C110.394 100.328 110.986 96.8208 110.901 93.3822C110.835 90.7416 110.386 88.0794 110.832 85.4759C111.278 82.8725 112.905 80.2291 115.472 79.616L115.39 79.5851Z" fill="#2F2E41"/>
<path d="M123.683 93.3646C123.335 92.8119 123.109 92.1905 123.022 91.5429C122.935 90.8952 122.989 90.2364 123.179 89.6112C123.369 88.986 123.692 88.4092 124.124 87.92C124.557 87.4308 125.09 87.0407 125.687 86.7762C127.295 86.0636 129.156 86.3362 130.882 85.9979C133.975 85.3918 136.521 82.5637 136.704 79.414C136.888 76.2644 134.618 73.1164 131.551 72.3931C130.327 72.1045 129.051 72.1724 127.796 72.242C126.59 72.3088 125.384 72.3757 124.184 72.5133C121.811 72.7857 119.409 73.3611 117.434 74.7064C115.458 76.0517 113.967 78.2794 113.992 80.6713C114.021 83.4011 115.307 88.8354 117.096 90.8962C118.821 92.8846 120.135 93.601 122.874 93.7366L123.683 93.3646Z" fill="#2F2E41"/>
<path d="M157.039 126.124H152.872V121.953C152.872 121.818 152.819 121.689 152.724 121.594C152.629 121.499 152.5 121.445 152.366 121.445C152.231 121.445 152.103 121.499 152.008 121.594C151.913 121.689 151.859 121.818 151.859 121.953V126.124H147.693C147.558 126.124 147.429 126.177 147.334 126.272C147.239 126.368 147.186 126.497 147.186 126.631C147.186 126.766 147.239 126.895 147.334 126.99C147.429 127.085 147.558 127.138 147.693 127.138H151.859V131.31C151.859 131.444 151.913 131.573 152.008 131.668C152.103 131.763 152.231 131.817 152.366 131.817C152.5 131.817 152.629 131.763 152.724 131.668C152.819 131.573 152.872 131.444 152.872 131.31V127.138H157.039C157.173 127.138 157.302 127.085 157.397 126.99C157.492 126.895 157.546 126.766 157.546 126.631C157.546 126.497 157.492 126.368 157.397 126.272C157.302 126.177 157.173 126.124 157.039 126.124Z" fill="#6C63FF"/>
<path d="M145.219 61.5474H141.053V57.376C141.053 57.2414 140.999 57.1124 140.904 57.0173C140.809 56.9222 140.68 56.8688 140.546 56.8688C140.412 56.8688 140.283 56.9222 140.188 57.0173C140.093 57.1124 140.039 57.2414 140.039 57.376V61.5474H135.873C135.738 61.5474 135.61 61.6008 135.515 61.6959C135.42 61.791 135.366 61.92 135.366 62.0545C135.366 62.189 135.42 62.318 135.515 62.4131C135.61 62.5082 135.738 62.5616 135.873 62.5616H140.039V66.7331C140.039 66.8676 140.093 66.9966 140.188 67.0917C140.283 67.1868 140.412 67.2402 140.546 67.2402C140.68 67.2402 140.809 67.1868 140.904 67.0917C140.999 66.9966 141.053 66.8676 141.053 66.7331V62.5616H145.219C145.353 62.5616 145.482 62.5082 145.577 62.4131C145.672 62.318 145.726 62.189 145.726 62.0545C145.726 61.92 145.672 61.791 145.577 61.6959C145.482 61.6008 145.353 61.5474 145.219 61.5474Z" fill="#6C63FF"/>
<path d="M91.1857 80.4808H87.0191V76.3094C87.0191 76.1749 86.9657 76.0459 86.8707 75.9508C86.7757 75.8557 86.6469 75.8022 86.5125 75.8022C86.3782 75.8022 86.2493 75.8557 86.1543 75.9508C86.0593 76.0459 86.0059 76.1749 86.0059 76.3094V80.4808H81.8393C81.705 80.4808 81.5761 80.5342 81.4811 80.6293C81.3861 80.7244 81.3328 80.8534 81.3328 80.9879C81.3328 81.1225 81.3861 81.2515 81.4811 81.3466C81.5761 81.4417 81.705 81.4951 81.8393 81.4951H86.0059V85.6665C86.0059 85.801 86.0593 85.93 86.1543 86.0251C86.2493 86.1202 86.3782 86.1737 86.5125 86.1737C86.6469 86.1737 86.7757 86.1202 86.8707 86.0251C86.9657 85.93 87.0191 85.801 87.0191 85.6665V81.4951H91.1857C91.32 81.4951 91.4489 81.4417 91.5439 81.3466C91.6389 81.2515 91.6922 81.1225 91.6922 80.9879C91.6922 80.8534 91.6389 80.7244 91.5439 80.6293C91.4489 80.5342 91.32 80.4808 91.1857 80.4808V80.4808Z" fill="#6C63FF"/>
<path d="M266.385 210.842C266.326 210.888 266.264 210.928 266.205 210.973H215.855C214.868 206.971 214.52 202.965 215.994 199.486C218.093 194.528 224.307 191.434 229.248 193.562C230.418 194.081 231.438 194.888 232.211 195.909C234.141 192.45 237.604 189.841 241.602 189.844C246.61 189.847 250.774 193.948 252.133 198.684C254.321 194.986 258.643 192.402 262.868 193.514C269.934 195.373 272.165 206.369 266.385 210.842Z" fill="#F2F2F2"/>
</svg>
