<svg width="265" height="195" viewBox="0 0 265 195" fill="none" xmlns="http://www.w3.org/2000/svg">
<path d="M252.993 61.9801C253.185 61.9799 253.376 61.944 253.555 61.8744C253.844 61.7635 254.093 61.5676 254.268 61.3125C254.443 61.0574 254.536 60.7553 254.535 60.4463V44.4403C254.535 43.8985 254.752 43.379 255.136 42.9959C255.52 42.6128 256.042 42.3973 256.585 42.3967H259.874C261.233 42.3952 262.536 41.8565 263.497 40.899C264.458 39.9414 264.998 38.6431 265 37.2888V5.10787C264.998 3.75364 264.458 2.45532 263.497 1.49774C262.536 0.540156 261.233 0.00151775 259.874 0H143.859C142.5 0.00151955 141.197 0.540156 140.236 1.49774C139.275 2.45532 138.735 3.75364 138.733 5.10787V37.2888C138.735 38.6431 139.275 39.9414 140.236 40.899C141.197 41.8565 142.5 42.3952 143.859 42.3967H233.406C233.691 42.397 233.972 42.4561 234.232 42.5701C234.492 42.6842 234.726 42.8508 234.918 43.0594L251.864 61.4817C252.007 61.6385 252.181 61.7638 252.376 61.8496C252.57 61.9354 252.78 61.9798 252.993 61.9801Z" fill="#F2F2F2"/>
<path d="M248.963 147C249.076 147 249.187 146.979 249.292 146.939C249.462 146.874 249.608 146.76 249.71 146.612C249.813 146.464 249.867 146.289 249.867 146.109V136.812C249.867 136.498 249.994 136.196 250.219 135.973C250.444 135.751 250.75 135.626 251.068 135.625H252.996C253.792 135.624 254.556 135.312 255.119 134.755C255.682 134.199 255.999 133.445 256 132.659V113.967C255.999 113.18 255.682 112.426 255.119 111.87C254.556 111.314 253.792 111.001 252.996 111H185.004C184.208 111.001 183.444 111.314 182.881 111.87C182.318 112.426 182.001 113.18 182 113.967V132.659C182.001 133.445 182.318 134.199 182.881 134.755C183.444 135.312 184.208 135.624 185.004 135.625H237.484C237.651 135.626 237.816 135.66 237.968 135.726C238.12 135.792 238.257 135.889 238.37 136.01L248.301 146.711C248.385 146.802 248.487 146.874 248.601 146.924C248.715 146.974 248.839 147 248.963 147Z" fill="#F2F2F2"/>
<path d="M252.427 14.494C249.95 14.494 247.942 12.4929 247.942 10.0244C247.942 7.55594 249.95 5.55484 252.427 5.55484C254.904 5.55484 256.912 7.55594 256.912 10.0244C256.912 12.4929 254.904 14.494 252.427 14.494Z" fill="#CCCCCC"/>
<path d="M248.5 119C247.119 119 246 117.881 246 116.5C246 115.119 247.119 114 248.5 114C249.881 114 251 115.119 251 116.5C251 117.881 249.881 119 248.5 119Z" fill="#CCCCCC"/>
<path d="M149.091 34.7561H254.642C254.956 34.7565 255.267 34.6951 255.558 34.5755C255.849 34.4559 256.113 34.2803 256.335 34.0589C256.557 33.8375 256.734 33.5746 256.854 33.2852C256.975 32.9958 257.037 32.6856 257.037 32.3723C257.037 32.0591 256.975 31.7489 256.854 31.4595C256.734 31.1701 256.557 30.9071 256.335 30.6857C256.113 30.4644 255.849 30.2888 255.558 30.1692C255.267 30.0496 254.956 29.9882 254.642 29.9886H149.091C148.777 29.9882 148.466 30.0496 148.175 30.1692C147.885 30.2888 147.62 30.4644 147.398 30.6857C147.176 30.9071 146.999 31.1701 146.879 31.4595C146.758 31.7489 146.696 32.0591 146.696 32.3723C146.696 32.6856 146.758 32.9958 146.879 33.2852C146.999 33.5746 147.176 33.8375 147.398 34.0589C147.62 34.2803 147.885 34.4559 148.175 34.5755C148.466 34.6951 148.777 34.7565 149.091 34.7561V34.7561Z" fill="#CCCCCC"/>
<path d="M188.389 131H249.611C249.793 131 249.974 130.962 250.142 130.886C250.311 130.811 250.464 130.701 250.593 130.561C250.722 130.422 250.824 130.257 250.894 130.074C250.964 129.892 251 129.697 251 129.5C251 129.303 250.964 129.108 250.894 128.926C250.824 128.743 250.722 128.578 250.593 128.439C250.464 128.299 250.311 128.189 250.142 128.114C249.974 128.038 249.793 128 249.611 128H188.389C188.207 128 188.026 128.038 187.858 128.114C187.689 128.189 187.536 128.299 187.407 128.439C187.278 128.578 187.176 128.743 187.106 128.926C187.036 129.108 187 129.303 187 129.5C187 129.697 187.036 129.892 187.106 130.074C187.176 130.257 187.278 130.422 187.407 130.561C187.536 130.701 187.689 130.811 187.858 130.886C188.026 130.962 188.207 131 188.389 131V131Z" fill="#CCCCCC"/>
<path d="M183.477 24.625H254.642C254.956 24.6254 255.267 24.564 255.558 24.4444C255.849 24.3248 256.113 24.1492 256.335 23.9279C256.557 23.7065 256.734 23.4436 256.854 23.1542C256.975 22.8648 257.037 22.5545 257.037 22.2413C257.037 21.928 256.975 21.6178 256.854 21.3284C256.734 21.039 256.557 20.7761 256.335 20.5547C256.113 20.3333 255.849 20.1577 255.558 20.0381C255.267 19.9185 254.956 19.8571 254.642 19.8575H183.477C183.163 19.8571 182.852 19.9185 182.561 20.0381C182.271 20.1577 182.007 20.3333 181.784 20.5547C181.562 20.7761 181.385 21.039 181.265 21.3284C181.144 21.6178 181.083 21.928 181.083 22.2413C181.083 22.5545 181.144 22.8648 181.265 23.1542C181.385 23.4436 181.562 23.7065 181.784 23.9279C182.007 24.1492 182.271 24.3248 182.561 24.4444C182.852 24.564 183.163 24.6254 183.477 24.625V24.625Z" fill="#CCCCCC"/>
<path d="M208.387 125H249.613C249.795 125 249.975 124.962 250.143 124.886C250.312 124.811 250.465 124.701 250.594 124.561C250.722 124.422 250.825 124.257 250.894 124.074C250.964 123.892 251 123.697 251 123.5C251 123.303 250.964 123.108 250.894 122.926C250.825 122.743 250.722 122.578 250.594 122.439C250.465 122.299 250.312 122.189 250.143 122.114C249.975 122.038 249.795 122 249.613 122H208.387C208.205 122 208.025 122.038 207.857 122.114C207.688 122.189 207.535 122.299 207.406 122.439C207.278 122.578 207.175 122.743 207.106 122.926C207.036 123.108 207 123.303 207 123.5C207 123.697 207.036 123.892 207.106 124.074C207.175 124.257 207.278 124.422 207.406 124.561C207.535 124.701 207.688 124.811 207.857 124.886C208.025 124.962 208.205 125 208.387 125V125Z" fill="#CCCCCC"/>
<path d="M121.46 116.509C121.673 116.509 121.883 116.464 122.077 116.379C122.272 116.293 122.446 116.168 122.589 116.011L139.535 97.5884C139.727 97.3798 139.961 97.2132 140.221 97.0992C140.481 96.9851 140.762 96.9261 141.047 96.9257H230.594C231.953 96.9242 233.256 96.3856 234.217 95.428C235.178 94.4704 235.718 93.1721 235.72 91.8179V59.6369C235.718 58.2827 235.178 56.9843 234.217 56.0268C233.256 55.0692 231.953 54.5305 230.594 54.529H114.579C113.22 54.5305 111.917 55.0692 110.956 56.0268C109.995 56.9843 109.454 58.2827 109.453 59.6369V91.8179C109.454 93.1721 109.995 94.4704 110.956 95.428C111.917 96.3856 113.22 96.9242 114.579 96.9257H117.868C118.411 96.9263 118.933 97.1419 119.317 97.525C119.701 97.9081 119.918 98.4275 119.918 98.9693V114.975C119.917 115.284 120.01 115.586 120.185 115.841C120.36 116.097 120.609 116.292 120.898 116.403C121.077 116.473 121.268 116.509 121.46 116.509Z" fill="#B0E2FF"/>
<path d="M122.5 69C124.985 69 127 66.9853 127 64.5C127 62.0147 124.985 60 122.5 60C120.015 60 118 62.0147 118 64.5C118 66.9853 120.015 69 122.5 69Z" fill="#3F3D56"/>
<path d="M224.637 89H120.363C119.736 89 119.135 88.7366 118.692 88.2678C118.249 87.7989 118 87.163 118 86.5C118 85.837 118.249 85.2011 118.692 84.7322C119.135 84.2634 119.736 84 120.363 84H224.637C225.264 84 225.865 84.2634 226.308 84.7322C226.751 85.2011 227 85.837 227 86.5C227 87.163 226.751 87.7989 226.308 88.2678C225.865 88.7366 225.264 89 224.637 89V89Z" fill="#6C63FF"/>
<path d="M190.635 79H120.365C120.054 79.0004 119.747 78.936 119.46 78.8106C119.173 78.6851 118.912 78.501 118.693 78.2688C118.473 78.0366 118.299 77.7609 118.18 77.4574C118.061 77.1539 118 76.8286 118 76.5C118 76.1714 118.061 75.8461 118.18 75.5426C118.299 75.2391 118.473 74.9634 118.693 74.7312C118.912 74.499 119.173 74.3149 119.46 74.1894C119.747 74.064 120.054 73.9996 120.365 74H190.635C190.946 73.9996 191.253 74.064 191.54 74.1894C191.827 74.3149 192.088 74.499 192.307 74.7312C192.527 74.9634 192.701 75.2391 192.82 75.5426C192.939 75.8461 193 76.1714 193 76.5C193 76.8286 192.939 77.1539 192.82 77.4574C192.701 77.7609 192.527 78.0366 192.307 78.2688C192.088 78.501 191.827 78.6851 191.54 78.8106C191.253 78.936 190.946 79.0004 190.635 79Z" fill="#6C63FF"/>
<path d="M119.857 122.635C119.755 122.145 119.546 121.684 119.245 121.283C118.944 120.883 118.559 120.553 118.116 120.317C117.674 120.081 117.184 119.944 116.683 119.917C116.182 119.889 115.681 119.972 115.215 120.159L107.204 110.985L105.502 117.073L113.37 124.851C113.737 125.61 114.37 126.209 115.15 126.534C115.929 126.859 116.802 126.887 117.601 126.614C118.401 126.341 119.072 125.785 119.488 125.052C119.904 124.318 120.035 123.459 119.857 122.635V122.635Z" fill="#FFB8B8"/>
<path d="M75.888 79.5864C71.2557 79.5864 67.5004 75.8442 67.5004 71.228C67.5004 66.6117 71.2557 62.8695 75.888 62.8695C80.5203 62.8695 84.2755 66.6117 84.2755 71.228C84.2755 75.8442 80.5203 79.5864 75.888 79.5864Z" fill="#FFB8B8"/>
<path d="M85.7416 186.279L89.9281 186.278L91.92 170.186L85.7406 170.186L85.7416 186.279Z" fill="#FFB8B8"/>
<path d="M84.6737 190.323L98.1733 190.323V190.152C98.1733 189.465 98.0374 188.784 97.7734 188.149C97.5093 187.513 97.1223 186.936 96.6344 186.45C96.1464 185.964 95.5672 185.578 94.9297 185.315C94.2922 185.052 93.6089 184.916 92.9189 184.916H92.9186L84.6735 184.917L84.6737 190.323Z" fill="#2F2E41"/>
<path d="M73.1061 190.703L77.2926 190.703L77.8724 174.994L73.1051 174.61L73.1061 190.703Z" fill="#FFB8B8"/>
<path d="M72.0382 194.747L85.5378 194.747V194.577C85.5378 193.889 85.4019 193.208 85.1379 192.573C84.8738 191.937 84.4868 191.36 83.9989 190.874C83.5109 190.388 82.9317 190.002 82.2942 189.739C81.6567 189.476 80.9734 189.34 80.2834 189.34H80.2831L72.038 189.341L72.0382 194.747Z" fill="#2F2E41"/>
<path d="M74.2968 187.766L77.557 187.384C77.9268 187.339 78.268 187.163 78.5175 186.888C78.767 186.612 78.9079 186.256 78.9141 185.885L79.5251 143.57C79.5268 143.451 79.5708 143.335 79.6492 143.245C79.7277 143.154 79.8357 143.094 79.9542 143.074C80.0728 143.055 80.1944 143.078 80.2979 143.139C80.4013 143.199 80.48 143.295 80.5201 143.408L85.0434 156.135L84.7199 179.992C84.7144 180.385 84.8615 180.766 85.1304 181.055C85.3994 181.343 85.7696 181.517 86.164 181.541L90.4204 181.721C90.8098 181.743 91.1931 181.618 91.4935 181.37C91.794 181.122 91.9894 180.771 92.0406 180.386L94.2637 153.398L94.2651 153.381L90.8921 125.197L65.5587 127.023L72.5911 186.425C72.6356 186.797 72.8154 187.14 73.0964 187.389C73.3774 187.638 73.7402 187.776 74.1163 187.777C74.1766 187.777 74.2369 187.773 74.2968 187.766Z" fill="#2F2E41"/>
<path d="M90.784 127.695C91.0114 127.574 91.2044 127.398 91.345 127.183C91.4856 126.967 91.5692 126.72 91.5881 126.464C91.5881 126.464 89.31 112.346 88.4752 112.081L90.3018 96.9839C90.5206 95.1425 90.368 93.2762 89.8531 91.4943C89.3382 89.7125 88.4713 88.0511 87.3032 86.6077C86.1784 85.2073 84.7805 84.0487 83.1939 83.2016C81.6073 82.3545 79.8649 81.8366 78.0719 81.6791C77.8167 81.6562 77.5628 81.6387 77.3102 81.6266C75.1489 81.5112 72.9915 81.9176 71.0216 82.8112C69.0516 83.7048 67.3272 85.0592 65.9951 86.7592C64.6133 88.4738 63.6675 90.4957 63.2382 92.6528C62.809 94.8099 62.909 97.0384 63.5296 99.1488L64.554 102.701V127.529C64.5551 127.772 64.6132 128.01 64.7236 128.226C64.834 128.442 64.9937 128.629 65.1898 128.773C68.3798 131.106 71.9846 131.931 75.4879 131.931C82.1167 131.931 88.3818 128.977 90.784 127.695Z" fill="#6C63FF"/>
<path d="M110.451 123.152L114.857 119.869C115.03 119.74 115.173 119.576 115.279 119.388C115.384 119.201 115.448 118.993 115.467 118.779C115.487 118.564 115.46 118.348 115.39 118.145C115.32 117.942 115.208 117.755 115.061 117.598L88.812 89.5307C87.9695 88.6376 86.8334 88.0752 85.6102 87.9456C84.387 87.816 83.1577 88.1278 82.1455 88.8244L82.1455 88.8244C81.5287 89.2529 81.0144 89.8116 80.639 90.4607C80.2636 91.1099 80.0365 91.8335 79.9737 92.5801C79.9109 93.3267 80.014 94.0779 80.2758 94.7803C80.5375 95.4826 80.9514 96.1188 81.488 96.6436L108.454 123.019C108.691 123.253 108.998 123.403 109.329 123.446C109.66 123.49 109.996 123.424 110.285 123.26C110.343 123.227 110.398 123.191 110.451 123.152V123.152Z" fill="#6C63FF"/>
<path d="M76.7282 119.436C76.5356 118.974 76.2437 118.559 75.873 118.222C75.5024 117.884 75.062 117.632 74.5828 117.483C74.1037 117.333 73.5976 117.29 73.1 117.357C72.6024 117.423 72.1256 117.598 71.703 117.868L62.1115 110.349L61.5823 116.647L70.7717 122.821C71.274 123.498 72.0083 123.969 72.8353 124.143C73.6623 124.317 74.5246 124.182 75.2588 123.765C75.9931 123.348 76.5482 122.676 76.819 121.879C77.0898 121.081 77.0575 120.211 76.7282 119.436V119.436Z" fill="#FFB8B8"/>
<path d="M68.1431 122.371C68.397 122.292 68.6258 122.149 68.8069 121.955C68.988 121.761 69.1151 121.523 69.1755 121.265L70.1444 117.21C70.2154 116.922 70.1998 116.62 70.0996 116.341C69.9994 116.062 69.8189 115.818 69.5807 115.64L63.0619 108.615L72.6507 93.8806C73.3764 92.99 73.7855 91.8849 73.8141 90.738C73.8426 89.5912 73.489 88.4672 72.8085 87.5419C72.266 86.8046 71.5375 86.2233 70.697 85.8569C69.8564 85.4905 68.9336 85.352 68.0221 85.4555C67.1105 85.5589 66.2426 85.9006 65.5062 86.4459C64.7698 86.9913 64.1912 87.7209 63.8289 88.5608L54.9144 105.852C54.0281 107.57 53.8071 109.553 54.2933 111.423C54.7796 113.293 55.9391 114.919 57.5511 115.992L66.6611 122.057C66.9401 122.305 67.3012 122.443 67.6755 122.443C67.8342 122.443 67.9919 122.419 68.1431 122.371V122.371Z" fill="#6C63FF"/>
<path d="M69.6728 78.7003C69.8705 78.8185 70.0928 78.8898 70.3225 78.9086C70.5522 78.9275 70.7832 78.8934 70.9976 78.809C71.212 78.7246 71.404 78.5922 71.5588 78.422C71.7136 78.2517 71.827 78.0483 71.8902 77.8274L71.8955 77.8065C72.0663 77.1111 71.9315 76.3832 71.8874 75.6686C71.8432 74.954 71.9176 74.1695 72.4087 73.6469C73.3241 72.6726 74.9405 73.2003 76.2579 72.9597C77.0297 72.7924 77.7138 72.3505 78.1822 71.7168C78.6507 71.0831 78.8714 70.3009 78.8029 69.5168C78.785 69.3682 78.7564 69.2194 78.7243 69.0706C78.644 68.6938 78.6524 68.3035 78.7489 67.9305C78.8455 67.5574 79.0275 67.2118 79.2806 66.9206C79.5338 66.6294 79.8512 66.4007 80.208 66.2524C80.5648 66.1041 80.9512 66.0402 81.337 66.0657C82.6666 66.1486 84.1 66.5578 85.2057 65.582C85.6112 65.1969 85.894 64.7014 86.0187 64.1572C86.1433 63.613 86.1045 63.0443 85.9069 62.522C85.2882 60.7113 83.5174 59.7557 81.7629 59.2262C79.5928 58.5888 77.3074 58.4413 75.0729 58.7944C72.8384 59.1476 70.711 59.9925 68.8453 61.2677C67.7311 62.0415 66.6892 63.0157 66.2093 64.2817C65.7294 65.5477 65.949 67.1494 67.0113 67.9925C66.1797 68.8606 65.5916 69.9312 65.306 71.0971C65.0204 72.263 65.0473 73.4833 65.384 74.6356C65.9018 76.3304 68.4079 77.966 69.6728 78.7003Z" fill="#2F2E41"/>
<path d="M8.48282 192.568C14.4449 195.062 22.1713 195.187 29.6398 194.881C30.6826 194.838 31.7181 194.788 32.744 194.734C32.7502 194.733 32.7584 194.733 32.7647 194.732C32.814 194.729 32.8634 194.727 32.9105 194.725C33.1223 194.714 33.3341 194.702 33.5439 194.691L33.4943 194.745L33.3388 194.916C33.3947 194.859 33.4505 194.803 33.5064 194.746C33.5229 194.729 33.5413 194.712 33.5576 194.695C35.4924 192.74 37.4113 190.713 37.9008 188.481C38.4067 186.165 36.9848 183.541 33.4728 182.403C33.0122 182.254 32.5244 182.135 32.0186 182.049C31.8085 182.012 31.5956 181.982 31.3803 181.955C30.0632 181.786 28.6919 181.823 27.4075 182.062C26.1231 182.302 24.9719 182.736 24.0723 183.32C23.1727 183.904 22.5572 184.616 22.289 185.384C22.0209 186.152 22.1097 186.947 22.5465 187.688C19.569 185.916 20.1244 183.04 21.1515 180.637C22.1806 178.234 23.4264 175.559 21.3333 173.401C20.1698 172.199 18.1237 171.454 15.8274 171.153C15.757 171.145 15.6866 171.136 15.6161 171.128C12.8802 170.806 10.0359 171.096 7.65143 171.938C3.26082 173.545 1.00574 176.59 0.273847 179.574C-0.90539 184.375 1.70427 189.733 8.48282 192.568Z" fill="#E1E1E1"/>
<path d="M22.6117 190.373C29.0662 195.007 37.4308 195.24 45.5161 194.671C46.6451 194.591 47.7661 194.498 48.8768 194.398C48.8835 194.396 48.8923 194.397 48.8991 194.395C48.9525 194.39 49.006 194.385 49.0571 194.382C49.2863 194.36 49.5156 194.339 49.7427 194.317L49.6891 194.419L49.5207 194.736C49.5812 194.63 49.6417 194.526 49.7022 194.42C49.72 194.389 49.7399 194.357 49.7576 194.325C51.8522 190.693 53.9296 186.927 54.4595 182.78C55.0072 178.475 53.4679 173.6 49.6658 171.484C49.1671 171.207 48.6391 170.987 48.0914 170.827C47.864 170.758 47.6335 170.702 47.4005 170.653C45.9745 170.337 44.49 170.406 43.0995 170.851C41.709 171.297 40.4627 172.104 39.4888 173.189C38.5149 174.274 37.8485 175.598 37.5582 177.024C37.2679 178.451 37.3641 179.929 37.837 181.306C34.6135 178.012 35.2148 172.668 36.3268 168.202C37.4409 163.737 38.7896 158.767 36.5236 154.756C35.264 152.523 33.0488 151.138 30.5629 150.58C30.4867 150.564 30.4105 150.547 30.3341 150.533C27.3722 149.935 24.2931 150.473 21.7116 152.039C16.9584 155.024 14.517 160.683 13.7247 166.227C12.448 175.148 15.2732 185.105 22.6117 190.373Z" fill="#F2F2F2"/>
<path d="M24.6956 176.072C24.883 178.04 25.3573 179.97 26.1037 181.802C26.7915 183.422 27.7186 184.931 28.8542 186.279C31.2152 189.033 34.2052 191.181 37.5729 192.544C40.1201 193.583 42.789 194.298 45.5161 194.671C46.6451 194.591 47.7661 194.498 48.8767 194.398C48.8835 194.396 48.8923 194.396 48.8991 194.395C48.9524 194.39 49.0059 194.385 49.057 194.382C49.2862 194.36 49.5156 194.339 49.7427 194.317L49.689 194.419L49.5207 194.736C49.5812 194.63 49.6416 194.526 49.7021 194.42C49.7199 194.388 49.7399 194.357 49.7576 194.325C47.7131 192.295 46.1866 189.806 45.3061 187.067C44.4255 184.329 44.2166 181.419 44.6967 178.583C45.1992 175.767 46.3623 173.11 48.0913 170.827C47.864 170.758 47.6335 170.702 47.4004 170.653C46.7433 171.548 46.1669 172.499 45.678 173.496C43.9235 177.049 43.3638 181.071 44.0816 184.966C44.749 188.491 46.4116 191.753 48.8743 194.369C48.6587 194.354 48.441 194.336 48.2279 194.317C44.192 193.976 40.1642 193.111 36.5036 191.34C33.3746 189.863 30.6581 187.642 28.5933 184.872C26.3763 181.825 25.3993 178.16 25.2315 174.435C25.1024 170.422 25.5245 166.41 26.4861 162.511C27.4186 158.535 28.8359 154.688 30.7063 151.055C30.7481 150.973 30.7566 150.877 30.7299 150.789C30.7032 150.701 30.6434 150.626 30.5629 150.58C30.4958 150.535 30.4136 150.518 30.3341 150.533C30.2952 150.543 30.2591 150.562 30.2286 150.588C30.198 150.614 30.1737 150.647 30.1576 150.684C29.9268 151.133 29.7004 151.582 29.4826 152.036C27.6684 155.818 26.3327 159.81 25.5063 163.921C24.704 167.886 24.2758 172.034 24.6956 176.072Z" fill="white"/>
</svg>
