<svg width="72" height="76" viewBox="0 0 72 76" fill="none" xmlns="http://www.w3.org/2000/svg">
<path d="M0 40.0007C0 59.8829 16.1183 76 35.9997 76C55.8817 76 72 59.8829 72 40.0007C72 20.1178 55.8817 4 35.9997 4C16.1183 4 0 20.1178 0 40.0007Z" fill="#00C2F2"/>
<path d="M6.06201 60C12.5201 69.6479 23.5184 76 35.9997 76C35.9995 76 35.9998 76 35.9997 76L36 60H6.06201Z" fill="#5E33BF"/>
<path d="M65.938 60C59.4799 69.6479 48.4816 76 36.0003 76C36.0005 76 36.0002 76 36.0003 76L36 60H65.938Z" fill="#E2E4E6"/>
<path d="M36 52C32.8174 52 29.7652 50.7357 27.5147 48.4853C25.2643 46.2348 24 43.1826 24 40C24 36.8174 25.2643 33.7652 27.5147 31.5147C29.7652 29.2643 32.8174 28 36 28V40L36 52Z" fill="#5E33BF"/>
<rect x="22" y="14" width="6" height="14" fill="#C4C4C4"/>
<path d="M28 14H22C22 6.26801 28.268 0 36 0V6C31.5817 6 28 9.58172 28 14Z" fill="#C4C4C4"/>
<path d="M44 14H50C50 6.26801 43.732 0 36 0V6C40.4183 6 44 9.58172 44 14Z" fill="white"/>
<path d="M16 28H36V37C32.134 37 29 40.134 29 44C29 47.866 32.134 51 36 51V60H16V28Z" fill="#E2E4E6"/>
<path d="M56 28H36V37C39.866 37 43 40.134 43 44C43 47.866 39.866 51 36 51V60H56V28Z" fill="white"/>
</svg>
