<svg width="14" height="14" viewBox="0 0 14 14" fill="none" xmlns="http://www.w3.org/2000/svg">
<path fill-rule="evenodd" clip-rule="evenodd" d="M6.99967 0.333328C3.31967 0.333328 0.333008 3.31999 0.333008 7C0.333008 10.68 3.31967 13.6667 6.99967 13.6667C10.6797 13.6667 13.6663 10.68 13.6663 7C13.6663 3.31999 10.6797 0.333328 6.99967 0.333328ZM7.66618 6.33335V3.66668H6.33285V6.33335H3.66618V7.66668H6.33285V10.3333H7.66618V7.66668H10.3328V6.33335H7.66618ZM1.66618 7.00002C1.66618 9.94002 4.05951 12.3333 6.99951 12.3333C9.93951 12.3333 12.3328 9.94002 12.3328 7.00002C12.3328 4.06002 9.93951 1.66668 6.99951 1.66668C4.05951 1.66668 1.66618 4.06002 1.66618 7.00002Z" fill="#2446A5"/>
</svg>
