<?xml version="1.0" encoding="utf-8"?>
<!-- Generator: Adobe Illustrator 16.0.3, SVG Export Plug-In . SVG Version: 6.00 Build 0)  -->
<!DOCTYPE svg PUBLIC "-//W3C//DTD SVG 1.1//EN" "http://www.w3.org/Graphics/SVG/1.1/DTD/svg11.dtd">
<svg version="1.1" id="Layer_1" xmlns="http://www.w3.org/2000/svg" xmlns:xlink="http://www.w3.org/1999/xlink" x="0px" y="0px"
	 width="23.5px" height="16.723px" viewBox="0 0 23.5 16.723" enable-background="new 0 0 23.5 16.723" xml:space="preserve">
<path fill="#FFFFFF" d="M17.412,4.546H3.203l2.48-2.78c0.19-0.213,0.286-0.487,0.269-0.773C5.935,0.708,5.808,0.447,5.596,0.259
	C5.17-0.12,4.462-0.077,4.088,0.345l-3.63,4.067c-0.611,0.686-0.611,1.72,0,2.405l3.629,4.065c0.376,0.423,1.087,0.464,1.508,0.087
	c0.439-0.39,0.479-1.066,0.087-1.51L3.203,6.683h14.209c2.178,0,3.95,1.772,3.95,3.951c0,2.18-1.772,3.952-3.95,3.952h-2.707
	c-0.589,0-1.068,0.479-1.068,1.068s0.479,1.068,1.068,1.068h2.707c3.356,0,6.088-2.731,6.088-6.089
	C23.5,7.277,20.769,4.546,17.412,4.546z"/>
</svg>
