<?xml version="1.0" encoding="utf-8"?>
<!-- Generator: Adobe Illustrator 16.0.3, SVG Export Plug-In . SVG Version: 6.00 Build 0)  -->
<!DOCTYPE svg PUBLIC "-//W3C//DTD SVG 1.1//EN" "http://www.w3.org/Graphics/SVG/1.1/DTD/svg11.dtd" [
	<!ENTITY ns_extend "http://ns.adobe.com/Extensibility/1.0/">
	<!ENTITY ns_ai "http://ns.adobe.com/AdobeIllustrator/10.0/">
	<!ENTITY ns_graphs "http://ns.adobe.com/Graphs/1.0/">
	<!ENTITY ns_vars "http://ns.adobe.com/Variables/1.0/">
	<!ENTITY ns_imrep "http://ns.adobe.com/ImageReplacement/1.0/">
	<!ENTITY ns_sfw "http://ns.adobe.com/SaveForWeb/1.0/">
	<!ENTITY ns_custom "http://ns.adobe.com/GenericCustomNamespace/1.0/">
	<!ENTITY ns_adobe_xpath "http://ns.adobe.com/XPath/1.0/">
]>
<svg version="1.1" id="Layer_1" xmlns:x="&ns_extend;" xmlns:i="&ns_ai;" xmlns:graph="&ns_graphs;"
	 xmlns="http://www.w3.org/2000/svg" xmlns:xlink="http://www.w3.org/1999/xlink" x="0px" y="0px" width="32.25px" height="32.25px"
	 viewBox="0 0 32.25 32.25" enable-background="new 0 0 32.25 32.25" xml:space="preserve">
<metadata>
	<sfw  xmlns="&ns_sfw;">
		<slices></slices>
		<sliceSourceBounds  height="32.25" width="32.25" x="463.375" y="347.375" bottomLeftOrigin="true"></sliceSourceBounds>
	</sfw>
</metadata>
<circle fill="#FFFFFF" cx="16.125" cy="16.125" r="15.732"/>
<g>
	<path fill="#4E81FF" d="M16.125,32.25C7.233,32.25,0,25.018,0,16.125C0,7.233,7.233,0,16.125,0C25.018,0,32.25,7.233,32.25,16.125
		C32.25,25.018,25.018,32.25,16.125,32.25z M16.125,1C7.785,1,1,7.785,1,16.125S7.785,31.25,16.125,31.25S31.25,24.465,31.25,16.125
		S24.465,1,16.125,1z"/>
</g>
<g>
	<g>
		<path fill="#4E81FF" d="M18.146,9.972c0,0.267-0.055,0.517-0.162,0.751c-0.107,0.234-0.256,0.439-0.442,0.616
			c-0.188,0.177-0.405,0.317-0.653,0.421c-0.248,0.104-0.514,0.156-0.794,0.156c-0.273,0-0.53-0.052-0.768-0.156
			c-0.237-0.104-0.448-0.245-0.632-0.421c-0.184-0.176-0.328-0.382-0.432-0.616c-0.104-0.234-0.157-0.484-0.157-0.751
			c0-0.274,0.053-0.53,0.157-0.768c0.104-0.237,0.248-0.446,0.432-0.627c0.184-0.179,0.395-0.32,0.632-0.421
			c0.237-0.101,0.494-0.151,0.768-0.151c0.281,0,0.546,0.051,0.794,0.151c0.248,0.101,0.467,0.242,0.653,0.421
			c0.187,0.181,0.335,0.39,0.442,0.627C18.092,9.441,18.146,9.697,18.146,9.972z M17.757,14.04v10.205h-3.351V14.04H17.757z"/>
	</g>
</g>
</svg>
