<?xml version="1.0" encoding="utf-8"?>
<!-- Generator: Adobe Illustrator 16.0.3, SVG Export Plug-In . SVG Version: 6.00 Build 0)  -->
<!DOCTYPE svg PUBLIC "-//W3C//DTD SVG 1.1//EN" "http://www.w3.org/Graphics/SVG/1.1/DTD/svg11.dtd" [
	<!ENTITY ns_extend "http://ns.adobe.com/Extensibility/1.0/">
	<!ENTITY ns_ai "http://ns.adobe.com/AdobeIllustrator/10.0/">
	<!ENTITY ns_graphs "http://ns.adobe.com/Graphs/1.0/">
	<!ENTITY ns_vars "http://ns.adobe.com/Variables/1.0/">
	<!ENTITY ns_imrep "http://ns.adobe.com/ImageReplacement/1.0/">
	<!ENTITY ns_sfw "http://ns.adobe.com/SaveForWeb/1.0/">
	<!ENTITY ns_custom "http://ns.adobe.com/GenericCustomNamespace/1.0/">
	<!ENTITY ns_adobe_xpath "http://ns.adobe.com/XPath/1.0/">
]>
<svg version="1.1" id="Layer_1" xmlns:x="&ns_extend;" xmlns:i="&ns_ai;" xmlns:graph="&ns_graphs;"
	 xmlns="http://www.w3.org/2000/svg" xmlns:xlink="http://www.w3.org/1999/xlink" x="0px" y="0px" width="32.25px" height="32.25px"
	 viewBox="0 0 32.25 32.25" enable-background="new 0 0 32.25 32.25" xml:space="preserve">
<metadata>
	<sfw  xmlns="&ns_sfw;">
		<slices></slices>
		<sliceSourceBounds  height="36.046" width="89.454" y="-331.25" x="330.5" bottomLeftOrigin="true"></sliceSourceBounds>
	</sfw>
</metadata>
<g>
	<path fill="#4E81FF" d="M16.125,32.25C7.233,32.25,0,25.017,0,16.125S7.233,0,16.125,0S32.25,7.233,32.25,16.125
		S25.017,32.25,16.125,32.25z M16.125,1C7.785,1,1,7.785,1,16.125S7.785,31.25,16.125,31.25S31.25,24.465,31.25,16.125
		S24.465,1,16.125,1z"/>
</g>
<g>
	<g>
		<path fill="#4E81FF" d="M11.728,9.7c0.267-0.223,0.557-0.433,0.87-0.628c0.313-0.193,0.649-0.365,1.01-0.513
			c0.36-0.148,0.747-0.263,1.162-0.345c0.414-0.083,0.862-0.123,1.345-0.123c0.678,0,1.288,0.088,1.832,0.269
			c0.543,0.182,1.006,0.438,1.389,0.772c0.381,0.334,0.675,0.738,0.88,1.21c0.206,0.471,0.308,0.995,0.308,1.572
			c0,0.556-0.075,1.03-0.227,1.428c-0.151,0.394-0.344,0.742-0.578,1.036c-0.233,0.295-0.489,0.55-0.768,0.761
			c-0.276,0.213-0.54,0.413-0.788,0.602c-0.248,0.187-0.465,0.369-0.648,0.549c-0.184,0.182-0.297,0.384-0.341,0.605l-0.302,1.514
			H14.58l-0.237-1.739c-0.008-0.044-0.014-0.088-0.017-0.13c-0.004-0.042-0.006-0.086-0.006-0.13c0-0.317,0.076-0.595,0.228-0.832
			s0.342-0.456,0.572-0.652c0.23-0.199,0.479-0.391,0.746-0.573c0.266-0.184,0.515-0.382,0.745-0.595s0.421-0.45,0.572-0.714
			c0.151-0.263,0.228-0.573,0.228-0.935c0-0.432-0.142-0.775-0.427-1.032c-0.285-0.255-0.676-0.383-1.172-0.383
			c-0.382,0-0.701,0.038-0.957,0.119c-0.256,0.079-0.475,0.167-0.659,0.264c-0.184,0.099-0.345,0.187-0.48,0.265
			c-0.138,0.08-0.273,0.119-0.411,0.119c-0.31,0-0.539-0.134-0.69-0.399L11.728,9.7z M13.716,22.31c0-0.258,0.048-0.501,0.146-0.725
			c0.097-0.223,0.23-0.416,0.399-0.582c0.17-0.165,0.369-0.299,0.6-0.396c0.231-0.097,0.483-0.146,0.758-0.146
			c0.266,0,0.514,0.049,0.744,0.146c0.231,0.097,0.433,0.23,0.606,0.396c0.172,0.166,0.308,0.359,0.404,0.582
			c0.098,0.224,0.146,0.467,0.146,0.725c0,0.259-0.048,0.502-0.146,0.73c-0.097,0.225-0.232,0.422-0.404,0.587
			c-0.174,0.165-0.375,0.296-0.606,0.391c-0.23,0.093-0.479,0.141-0.744,0.141c-0.274,0-0.526-0.048-0.758-0.141
			c-0.23-0.095-0.43-0.226-0.6-0.391c-0.169-0.165-0.303-0.362-0.399-0.587C13.764,22.812,13.716,22.568,13.716,22.31z"/>
	</g>
</g>
</svg>
