<?xml version="1.0" encoding="utf-8"?>
<!-- Generator: Adobe Illustrator 16.0.0, SVG Export Plug-In . SVG Version: 6.00 Build 0)  -->
<!DOCTYPE svg PUBLIC "-//W3C//DTD SVG 1.1//EN" "http://www.w3.org/Graphics/SVG/1.1/DTD/svg11.dtd">
<svg version="1.1" id="Layer_1" xmlns="http://www.w3.org/2000/svg" xmlns:xlink="http://www.w3.org/1999/xlink" x="0px" y="0px"
	 width="35px" height="35px" viewBox="0 0 35 35" enable-background="new 0 0 35 35" xml:space="preserve">
<path fill="#4D4D4D" d="M31.854,29.547c0,0.887-0.72,1.606-1.607,1.606H5.607C4.72,31.153,4,30.434,4,29.547V24.19
	c0-0.888,0.72-1.607,1.607-1.607h7.146c0.453,1.238,1.641,2.143,3.03,2.143h4.285c1.39,0,2.577-0.904,3.03-2.143h7.146
	c0.888,0,1.607,0.72,1.607,1.607V29.547z M25.426,14.013h-4.285v7.499c0,0.586-0.485,1.071-1.071,1.071h-4.285
	c-0.586,0-1.071-0.485-1.071-1.071v-7.499h-4.285c-0.436,0-0.82-0.268-0.988-0.67c-0.166-0.385-0.083-0.854,0.234-1.154l7.5-7.5
	c0.201-0.217,0.485-0.317,0.753-0.317s0.552,0.1,0.753,0.317l7.5,7.5c0.317,0.301,0.4,0.77,0.234,1.154
	C26.246,13.745,25.861,14.013,25.426,14.013z M24.354,26.868c-0.586,0-1.071,0.485-1.071,1.071s0.485,1.071,1.071,1.071
	s1.071-0.485,1.071-1.071S24.94,26.868,24.354,26.868z M28.64,26.868c-0.586,0-1.071,0.485-1.071,1.071s0.485,1.071,1.071,1.071
	s1.071-0.485,1.071-1.071S29.226,26.868,28.64,26.868z"/>
</svg>
