<?xml version="1.0" encoding="UTF-8"?>
<svg width="17px" height="16px" viewBox="0 0 17 16" version="1.1" xmlns="http://www.w3.org/2000/svg" xmlns:xlink="http://www.w3.org/1999/xlink">
    <!-- Generator: Sketch 54.1 (76490) - https://sketchapp.com -->
    <title></title>
    <desc>Created with Sketch.</desc>
    <g id="Store-front" stroke="none" stroke-width="1" fill="none" fill-rule="evenodd">
        <g id="Playbook-page" transform="translate(-1057.000000, -289.000000)" fill="#202023" fill-rule="nonzero">
            <path d="M1067.096,292.6 L1067.096,291.004 L1063.904,291.004 L1063.904,292.6 L1067.096,292.6 Z M1071.846,292.6 C1072.28934,292.6 1072.65983,292.755165 1072.9575,293.0655 C1073.25517,293.375835 1073.404,293.752664 1073.404,294.196 L1073.404,302.879 C1073.404,303.322336 1073.25517,303.699165 1072.9575,304.0095 C1072.65983,304.319835 1072.28934,304.475 1071.846,304.475 L1059.154,304.475 C1058.71066,304.475 1058.34017,304.319835 1058.0425,304.0095 C1057.74483,303.699165 1057.596,303.322336 1057.596,302.879 L1057.596,294.196 C1057.596,293.752664 1057.74483,293.375835 1058.0425,293.0655 C1058.34017,292.755165 1058.71066,292.6 1059.154,292.6 L1062.346,292.6 L1062.346,291.004 C1062.346,290.560664 1062.49483,290.190168 1062.7925,289.8925 C1063.09017,289.594832 1063.46066,289.446 1063.904,289.446 L1067.096,289.446 C1067.53934,289.446 1067.90983,289.594832 1068.2075,289.8925 C1068.50517,290.190168 1068.654,290.560664 1068.654,291.004 L1068.654,292.6 L1071.846,292.6 Z" id=""></path>
        </g>
    </g>
</svg>