<?xml version="1.0" encoding="utf-8"?>
<!-- Generator: Adobe Illustrator 16.0.0, SVG Export Plug-In . SVG Version: 6.00 Build 0)  -->
<!DOCTYPE svg PUBLIC "-//W3C//DTD SVG 1.1//EN" "http://www.w3.org/Graphics/SVG/1.1/DTD/svg11.dtd">
<svg version="1.1" id="Layer_1" xmlns="http://www.w3.org/2000/svg" xmlns:xlink="http://www.w3.org/1999/xlink" x="0px" y="0px"
	 width="32px" height="32px" viewBox="0 0 32 32" enable-background="new 0 0 32 32" xml:space="preserve">
<g>
	<path fill="#999999" d="M10.013,17.499h18.075L29.75,8.55H7.275L10.013,17.499z M28.561,18.634H9.593
		c-0.249,0-0.47-0.162-0.543-0.4L4.895,4.646H2.451l0.806,1.771c0.13,0.285,0.003,0.622-0.282,0.752s-0.621,0.006-0.752-0.28
		L1.051,4.313C0.971,4.138,0.986,3.933,1.09,3.771C1.195,3.609,1.375,3.51,1.568,3.51h3.746c0.248,0,0.469,0.163,0.543,0.401
		l1.07,3.503h23.505c0.168,0,0.328,0.076,0.437,0.205c0.107,0.13,0.152,0.301,0.121,0.466l-1.871,10.084
		C29.068,18.439,28.835,18.634,28.561,18.634 M8.662,23.715c-0.87,0-1.577,0.71-1.577,1.582s0.707,1.581,1.577,1.581
		c0.871,0,1.578-0.709,1.578-1.581S9.533,23.715,8.662,23.715 M8.662,28.014c-1.495,0-2.713-1.22-2.713-2.717
		c0-1.498,1.218-2.717,2.713-2.717c0.279,0,0.547,0.042,0.8,0.12l1.907-2.136c0.106-0.121,0.261-0.19,0.423-0.19h15.226
		c0.314,0,0.568,0.254,0.568,0.568c0,0.313-0.254,0.566-0.568,0.566H12.046l-1.574,1.766c0.556,0.498,0.904,1.221,0.904,2.022
		C11.376,26.794,10.158,28.014,8.662,28.014 M25.895,24.194c-0.869,0-1.576,0.709-1.576,1.58c0,0.872,0.707,1.58,1.576,1.58
		s1.578-0.708,1.578-1.58C27.473,24.904,26.764,24.195,25.895,24.194 M25.895,28.49c-1.496,0-2.712-1.219-2.712-2.716
		s1.216-2.715,2.712-2.715c1.496,0.001,2.715,1.219,2.715,2.715C28.609,27.271,27.391,28.49,25.895,28.49"/>
</g>
</svg>
