<svg width="106" height="24" viewBox="0 0 106 24" fill="none" xmlns="http://www.w3.org/2000/svg">
<path d="M11.9568 13.0126C12.2871 13.0167 12.5872 12.8224 12.7165 12.5209C12.8457 12.2193 12.7785 11.8702 12.5464 11.6371C12.3142 11.404 11.9631 11.333 11.6575 11.4575C11.3519 11.5819 11.1523 11.8771 11.1523 12.2048C11.1801 12.6352 11.5231 12.9797 11.9568 13.0126ZM5.73403 1.7813C3.62417 4.42595 3.3674 8.08386 5.08742 10.993C6.38064 13.1742 9.12799 15.1949 12.0382 14.8717C12.7374 14.8408 13.3999 14.5528 13.8966 14.0638C14.381 13.5666 14.6431 12.8969 14.6237 12.2058C14.5962 10.7659 13.4088 9.61442 11.9568 9.61959C11.2646 9.61134 10.5987 9.88186 10.1112 10.3693C9.62373 10.8567 9.3564 11.5194 9.37034 12.2058V12.6097C9.63267 12.7312 9.9012 12.839 10.1748 12.9328C10.0371 12.7166 9.97979 12.4594 10.0129 12.2058C10.0221 11.3388 10.6148 10.5849 11.4604 10.3649C12.306 10.1449 13.1955 10.513 13.6326 11.2639C14.0697 12.0147 13.9464 12.9628 13.3315 13.5791C12.9468 13.9092 12.4651 14.1075 11.9578 14.1446C9.93863 14.1964 8.00539 13.3342 6.70445 11.8018C4.80186 9.73988 4.30817 6.75744 5.44616 4.20041C6.58416 1.64339 9.13862 -0.00465771 11.9568 9.88881e-06C15.1872 0.0294506 18.2729 1.33312 20.5324 3.62311C22.7919 5.91309 24.0393 9.00096 23.9991 12.2048C23.9842 15.379 22.6717 18.4115 20.3617 20.6085C18.1281 22.8052 15.1023 24.026 11.9568 23.9996C9.79072 23.9749 7.64995 23.5346 5.65257 22.703C5.57212 22.703 5.65257 22.5414 5.73302 22.6222C7.74572 23.383 9.88336 23.7665 12.0372 23.7532C15.091 23.7116 18.0011 22.4604 20.1194 20.2784C22.2456 18.1244 23.4105 15.2137 23.3524 12.1998C23.3148 6.03002 18.2592 1.04927 12.0382 1.05323C10.6492 1.05754 9.30551 1.54375 8.24003 2.42759C9.44037 1.92222 10.7344 1.67281 12.0382 1.69553C16.2562 1.75797 20.0272 4.31728 21.6134 8.19404C23.1996 12.0708 22.2932 16.5126 19.3119 19.4725C17.3833 21.3772 14.7596 22.4267 12.0382 22.3819C9.7652 22.3838 7.52323 21.8581 5.49168 20.8469C3.77704 20.0163 2.24043 18.8649 0.966398 17.4559C0.885949 17.3751 0.966398 17.2943 1.04685 17.3751C2.25716 18.5991 3.64724 19.6344 5.16988 20.446C7.32308 21.5284 9.70679 22.0825 12.1207 22.0617C14.7016 22 17.16 20.9574 18.9881 19.1494C20.7788 17.3074 21.7661 14.8401 21.7364 12.2816C21.7032 7.04084 17.4029 2.8137 12.1187 2.82754C10.1836 2.8452 8.29799 3.4356 6.70344 4.52306C6.52118 4.88146 6.386 5.26156 6.3012 5.65407C7.92419 4.21216 10.0223 3.40776 12.2012 3.39204C15.731 3.44057 18.8875 5.58321 20.2109 8.8291C21.5344 12.075 20.7667 15.7914 18.263 18.2598C16.662 19.8564 14.4711 20.7324 12.2012 20.6833C9.77542 20.6754 7.39849 20.0068 5.32977 18.7505C2.9393 17.3185 1.07209 15.1672 0 12.6097C0 12.5289 0.0804494 12.4481 0.0804494 12.5289C1.18347 14.8674 2.95363 16.8339 5.17189 18.1849C7.28102 19.55 9.7673 20.2279 12.2836 20.1238C14.3996 20.1121 16.4169 19.2353 17.8598 17.7002C19.3315 16.2142 20.1457 14.2079 20.1224 12.125C20.1226 10.0708 19.293 8.10215 17.819 6.65903C16.3451 5.2159 14.3496 4.41858 12.2786 4.44526C9.92027 4.46372 7.69526 5.53268 6.21874 7.35657C6.226 7.65931 6.28062 7.9591 6.38064 8.24522C8.08724 5.6449 11.3277 4.48532 14.3152 5.40588C17.3026 6.32644 19.31 9.1031 19.2304 12.2048C19.223 14.0369 18.4643 15.7872 17.1287 17.0529C15.8258 18.2966 14.0879 18.9914 12.2796 18.9918C9.61178 19.074 7.0118 18.1498 5.00395 16.4056C2.54538 14.4473 0.975666 11.5975 0.642589 8.48758C0.642589 8.40679 0.723039 8.40679 0.804494 8.48758C1.14224 11.4461 2.65323 14.1498 5.00395 16.0017C7.04087 17.7491 9.66619 18.6724 12.358 18.5879C14.0004 18.552 15.5649 17.886 16.7224 16.7298C17.8461 15.5483 18.4817 13.9914 18.5034 12.3673C18.4922 10.7649 17.838 9.23289 16.6854 8.10994C15.5328 6.98699 13.9767 6.3656 12.361 6.38314C10.0291 6.40146 7.91839 7.75588 6.9458 9.85796C7.04836 10.1162 7.18352 10.3605 7.34804 10.585C8.10515 8.47778 10.1037 7.0597 12.359 7.02943C13.7728 7.03639 15.1247 7.60507 16.1123 8.60827C17.1 9.61146 17.6411 10.9654 17.6144 12.3673C17.6079 13.7332 17.0557 15.0409 16.0788 16.0037C15.0775 16.9516 13.7421 17.4735 12.358 17.4579C9.32032 17.5269 6.43435 16.1434 4.6017 13.7397C2.58432 11.2749 1.83798 8.01957 2.58243 4.93197C2.58243 4.85119 2.74433 4.85119 2.66287 4.93197C1.99089 7.90518 2.76955 11.0187 4.76461 13.3358C6.53642 15.6467 9.35995 16.9206 12.2806 16.7268C13.4682 16.6848 14.5951 16.1959 15.4322 15.3594C16.2218 14.4976 16.6548 13.3722 16.645 12.2077C16.6344 10.0043 14.9419 8.16729 12.7302 7.95872C10.5184 7.75015 8.5072 9.23786 8.07812 11.3999C8.24003 11.5615 8.48037 11.723 8.64429 11.8846C8.82506 10.0207 10.3937 8.5918 12.2816 8.57136C13.5765 8.54984 14.7825 9.2227 15.4363 10.3315C16.0901 11.4403 16.0901 12.8126 15.4363 13.9214C14.7825 15.0302 13.5765 15.7031 12.2816 15.6816C9.45072 15.8089 6.77908 14.3801 5.33078 11.9644C3.19691 8.82798 3.42787 4.66648 5.89593 1.7813C5.65358 1.61973 5.73403 1.70052 5.73403 1.7813Z" fill="#00C2F2"/>
<path d="M30.7843 14.0864C30.5542 13.418 30.4453 12.7119 30.463 12.0031C30.4453 11.2942 30.5542 10.5881 30.7843 9.91969C31.0084 9.31027 31.335 8.74612 31.7493 8.253C32.1535 7.75583 32.6819 7.38129 33.2777 7.16966C33.8891 6.90396 34.5448 6.76247 35.2085 6.75298C36.1216 6.72103 37.0216 6.98287 37.783 7.50196C38.5073 8.03505 39.0436 8.79538 39.3114 9.66866H42.6146C42.3994 8.78276 42.0462 7.93849 41.5686 7.16863C41.1128 6.46166 40.5411 5.84134 39.879 5.33527C39.2187 4.83217 38.4858 4.43851 37.7069 4.16859C36.9008 3.90215 36.0603 3.76169 35.2135 3.75192C34.1404 3.7281 33.0736 3.92649 32.0766 4.33526C31.1496 4.72215 30.3032 5.2879 29.5832 6.00195C28.8585 6.73904 28.2841 7.61729 27.8936 8.58531C27.0356 10.6626 27.0356 13.0091 27.8936 15.0864C28.2841 16.0544 28.8585 16.9327 29.5832 17.6698C30.2958 18.3934 31.1441 18.9604 32.0766 19.3365C33.0736 19.7452 34.1404 19.9436 35.2135 19.9198C36.0603 19.91 36.9008 19.7696 37.7069 19.5031C38.4924 19.2495 39.2279 18.8544 39.879 18.3365C40.5411 17.8304 41.1128 17.2101 41.5686 16.5031C42.0718 15.7371 42.452 14.893 42.6946 14.0031H39.3114C39.0436 14.8764 38.5073 15.6367 37.783 16.1698C37.017 16.6784 36.1203 16.9396 35.2085 16.9198C34.5439 16.919 33.8866 16.7771 33.2777 16.5031C32.7089 16.2413 32.191 15.8757 31.7493 15.4239C31.2681 15.1268 30.9212 14.6459 30.7843 14.0864ZM51.2978 14.6698C51.3321 15.41 51.0707 16.1325 50.5741 16.6698C50.1231 17.1891 49.4816 17.4911 48.8044 17.5031C48.4411 17.5094 48.0818 17.4235 47.7584 17.2531C47.4611 17.107 47.1903 16.9097 46.9577 16.6698C46.7206 16.4136 46.554 16.0973 46.4752 15.7531C46.3436 15.4089 46.2885 15.0387 46.3141 14.6698C46.2797 13.9295 46.5412 13.207 47.0378 12.6697C47.4888 12.1504 48.1303 11.8484 48.8074 11.8364C49.1461 11.819 49.4821 11.9061 49.7724 12.0864C50.0697 12.2325 50.3405 12.4298 50.5731 12.6697C50.8102 12.9259 50.9768 13.2422 51.0556 13.5864C51.2201 13.9221 51.3039 14.2939 51.2978 14.6698ZM53.7111 16.8364C53.9673 16.144 54.1029 15.4106 54.1115 14.6698C54.1029 13.929 53.9673 13.1955 53.7111 12.5031C53.4611 11.8443 53.0772 11.2481 52.585 10.7541C52.0882 10.2721 51.5173 9.87788 50.8954 9.58738C49.5535 9.03175 48.0544 9.03175 46.7125 9.58738C45.4329 10.1351 44.4192 11.1855 43.8968 12.5051C43.6405 13.1976 43.505 13.931 43.4964 14.6718C43.4972 15.4134 43.633 16.1483 43.8968 16.8385C44.1468 17.4972 44.5307 18.0935 45.0229 18.5875C45.5196 19.0695 46.0905 19.4637 46.7125 19.7542C48.0544 20.3098 49.5535 20.3098 50.8954 19.7542C52.175 19.2065 53.1886 18.156 53.7111 16.8364ZM59.905 12.4187H61.1121V9.50302C60.8514 9.43027 60.5809 9.40211 60.3113 9.41968C59.7371 9.40642 59.1737 9.58156 58.7028 9.91969C58.2299 10.226 57.8857 10.7031 57.7379 11.2572V9.59047H54.9983V19.9219H57.814V15.0041C57.7426 14.3262 57.9141 13.6447 58.2964 13.0874C58.6926 12.6058 59.2946 12.3563 59.905 12.4208V12.4187ZM67.6273 19.9198C67.8966 19.9292 68.166 19.9012 68.428 19.8365V17.3375C68.29 17.3322 68.1528 17.3607 68.0277 17.4208H67.1428C66.9251 17.4343 66.7069 17.4061 66.4992 17.3375C66.258 17.2541 66.1779 17.0875 66.1779 16.7541V12.0864H68.35V9.58635H66.1819V5.66861H63.3642V9.58635H61.8358V12.0864H63.3642V17.7542C63.3502 18.1843 63.4327 18.6121 63.6055 19.0042C63.7548 19.2841 63.9779 19.5152 64.2491 19.6708C64.5241 19.8314 64.8231 19.944 65.1339 20.0042C65.4783 20.0733 65.8293 20.1013 66.1799 20.0875H66.9036C67.1346 19.9927 67.379 19.9354 67.6273 19.9198ZM71.8873 13.5874C72.0512 12.4621 73.0362 11.6603 74.1395 11.7541C74.7065 11.7157 75.2626 11.928 75.6679 12.3374C76.0592 12.6781 76.3164 13.1535 76.3916 13.6749H71.8873V13.5874ZM71.9674 15.5041H79.3684V15.4239C79.3717 14.464 79.2368 13.5088 78.968 12.5895C78.7087 11.8858 78.3272 11.2363 77.842 10.6728C77.3627 10.1889 76.7859 9.81907 76.1524 9.58944C75.5353 9.35625 74.8819 9.24152 74.2245 9.25096C73.5086 9.26043 72.8001 9.40155 72.1326 9.66763C71.5079 9.90819 70.9539 10.31 70.524 10.8343C70.0559 11.3323 69.6989 11.9291 69.478 12.5833C69.2218 13.2758 69.0863 14.0092 69.0777 14.75C69.0785 15.4916 69.2143 16.2265 69.478 16.9167C69.728 17.5754 70.1119 18.1717 70.6041 18.6657C71.1009 19.1477 71.6718 19.5419 72.2937 19.8324C72.9591 20.1062 73.669 20.2476 74.3857 20.249C75.4244 20.2679 76.4501 20.0095 77.3625 19.499C78.2715 18.9407 78.9778 18.092 79.3734 17.0823L76.3916 16.7541C76.1666 17.0714 75.8967 17.3523 75.5908 17.5875C75.2527 17.7965 74.8567 17.8845 74.4648 17.8375C73.8977 17.8758 73.3416 17.6636 72.9363 17.2541C72.4257 16.805 72.0843 16.1861 71.9714 15.5052L71.9674 15.5041ZM80.4955 19.8385H83.3112V4.08525H80.4955V19.8385ZM84.5994 19.8385H87.4151V4.08525H84.5994V19.8385ZM92.7261 9.50302H88.5431V12.0031H89.9104V19.8385H92.7261V9.50302ZM92.4849 7.33633C92.8318 6.9807 93.0334 6.50224 93.0484 5.99886C93.0334 5.7417 92.979 5.48859 92.8872 5.24885C92.8016 5.02402 92.6642 4.82387 92.4869 4.66551C92.3348 4.48156 92.1413 4.33854 91.9233 4.24884C91.6923 4.15398 91.448 4.09771 91.1996 4.08217C90.7058 4.06104 90.2303 4.27651 89.9124 4.66551C89.5888 5.03008 89.4158 5.50969 89.43 6.00297C89.4158 6.49626 89.5888 6.97587 89.9124 7.34044C90.2612 7.67396 90.7234 7.85349 91.1996 7.84045C91.6783 7.86892 92.1462 7.68717 92.4869 7.34044L92.4849 7.33633ZM102.138 10.7541C101.587 10.1794 100.89 9.77516 100.127 9.58738C99.4519 9.36093 98.7454 9.24836 98.0351 9.25404C97.4894 9.24924 96.9465 9.33363 96.4266 9.50405C95.9918 9.65774 95.5841 9.88289 95.2195 10.1707C94.9278 10.4622 94.6835 10.7998 94.4958 11.1707C94.3387 11.5678 94.2568 11.9921 94.2545 12.4208V12.5041C94.231 13.1379 94.4312 13.759 94.8181 14.2531C95.2794 14.8181 95.8964 15.2262 96.5878 15.4239L98.1162 15.9239C98.4308 16.0136 98.7295 16.1542 99.001 16.3406C99.1603 16.4896 99.2485 16.7026 99.2423 16.9239C99.2669 17.1252 99.1719 17.3222 99.001 17.4239C98.8399 17.5906 98.6007 17.5906 98.2003 17.5906C97.9562 17.6041 97.7117 17.576 97.4766 17.5072C97.2354 17.4239 96.9941 17.3406 96.6758 17.2572C96.4183 17.1507 96.1751 17.0106 95.9521 16.8406C95.7109 16.6739 95.5518 16.5072 95.3085 16.3406L93.7801 18.4239C94.0404 18.592 94.2829 18.7875 94.5038 19.0073L95.4687 19.5073C95.8691 19.6739 96.2694 19.7573 96.6758 19.9239C97.1796 20.025 97.6911 20.0808 98.2043 20.0906C98.811 20.1168 99.4157 20.0029 99.974 19.7573C100.428 19.6085 100.842 19.3515 101.181 19.0073C101.493 18.702 101.74 18.333 101.905 17.9239C102.061 17.5559 102.143 17.1589 102.146 16.7572C102.142 16.0885 101.914 15.4415 101.502 14.9239C100.957 14.2661 100.226 13.7988 99.4104 13.5864L97.8019 13.0031C97.5607 12.9197 97.3195 12.8364 97.2384 12.6697C97.1372 12.5234 97.0811 12.3492 97.0772 12.1697C97.0738 11.9949 97.1674 11.8334 97.3184 11.753C97.4796 11.5864 97.7188 11.5864 98.0421 11.5864C98.4293 11.5975 98.8111 11.6823 99.1682 11.8364C99.6479 12.0214 100.086 12.305 100.455 12.6697L102.138 10.7541ZM101.896 4.80245H102.861V4.05141H100.207V4.80142H101.172V6.80145H101.895L101.896 4.80245ZM106 6.80248V4.05141H105.035L104.553 5.38888L104.07 4.05141H103.105V6.80145H103.829V5.05245L104.312 6.30247H104.794L105.277 5.05142V6.80042L106 6.80248Z" fill="#010101"/>
</svg>
