<svg width="327" height="23" viewBox="0 0 327 23" fill="none" xmlns="http://www.w3.org/2000/svg">
<path d="M177.162 18.6337C176.169 18.6337 175.232 18.4611 174.353 18.1159C173.473 17.7722 172.699 17.2649 172.035 16.5909C171.37 15.9185 170.846 15.0825 170.462 14.0814C170.078 13.0802 169.886 11.923 169.886 10.6097C169.886 9.31435 170.085 8.15712 170.486 7.13948C170.885 6.12184 171.423 5.26179 172.095 4.55785C172.768 3.8524 173.553 3.31657 174.449 2.94883C175.345 2.5811 176.29 2.39648 177.282 2.39648C178.291 2.39648 179.195 2.60061 179.996 3.00887C180.796 3.41563 181.461 3.89293 181.989 4.43777L180.116 6.6952C179.715 6.32747 179.297 6.02728 178.855 5.79313C178.416 5.56198 177.916 5.44641 177.354 5.44641C176.826 5.44641 176.325 5.56198 175.854 5.79313C175.382 6.02578 174.974 6.35748 174.629 6.78976C174.284 7.22203 174.012 7.75186 173.812 8.37626C173.611 9.00065 173.512 9.7046 173.512 10.4881C173.512 12.1061 173.856 13.3579 174.545 14.248C175.232 15.1365 176.154 15.5808 177.306 15.5808C177.946 15.5808 178.519 15.4397 179.024 15.1605C179.528 14.8799 179.972 14.5331 180.356 14.1159L182.23 16.3268C180.916 17.8637 179.228 18.6337 177.162 18.6337Z" fill="black"/>
<path d="M184.318 18.3385V1.50391H187.849V5.63451L187.68 7.77186C188.129 7.37111 188.65 6.99887 189.241 6.65516C189.833 6.31144 190.538 6.13883 191.355 6.13883C192.652 6.13883 193.591 6.5621 194.177 7.41164C194.76 8.25967 195.053 9.43791 195.053 10.9434V18.34H191.523V11.3997C191.523 10.5351 191.407 9.94223 191.175 9.62253C190.942 9.30133 190.57 9.14223 190.058 9.14223C189.611 9.14223 189.225 9.24129 188.905 9.44242C188.584 9.64204 188.233 9.92572 187.849 10.2935V18.3385H184.318V18.3385Z" fill="black"/>
<path d="M201.034 18.6237C200.489 18.6237 199.997 18.5306 199.557 18.346C199.117 18.1629 198.743 17.9062 198.44 17.5775C198.137 17.2488 197.9 16.8691 197.732 16.4368C197.564 16.0045 197.479 15.5317 197.479 15.0199C197.479 13.7711 198.008 12.7955 199.064 12.0901C200.121 11.3861 201.826 10.9133 204.18 10.6747C204.147 10.1448 203.992 9.72458 203.711 9.41238C203.431 9.10018 202.962 8.94409 202.307 8.94409C201.793 8.94409 201.286 9.03865 200.782 9.23077C200.277 9.42439 199.737 9.68856 199.161 10.0233L197.888 7.6938C198.656 7.2285 199.461 6.85177 200.301 6.56509C201.142 6.2769 202.035 6.13281 202.979 6.13281C204.516 6.13281 205.688 6.56959 206.497 7.44164C207.305 8.31369 207.71 9.67054 207.71 11.5122V18.3325H204.828L204.588 17.1077H204.492C203.979 17.5565 203.443 17.9213 202.883 18.2019C202.322 18.4826 201.705 18.6237 201.034 18.6237ZM202.233 15.886C202.634 15.886 202.977 15.7974 203.266 15.6218C203.554 15.4462 203.859 15.197 204.178 14.8773V12.7865C202.929 12.9636 202.065 13.2188 201.585 13.5565C201.104 13.8927 200.864 14.292 200.864 14.7573C200.864 15.1415 200.989 15.4252 201.236 15.6083C201.486 15.7929 201.817 15.886 202.233 15.886Z" fill="black"/>
<path d="M212.438 4.67582C211.845 4.67582 211.357 4.50321 210.973 4.15799C210.589 3.81278 210.396 3.37 210.396 2.82515C210.396 2.28031 210.589 1.84053 210.973 1.50432C211.357 1.1666 211.846 1 212.438 1C213.046 1 213.538 1.1666 213.915 1.50432C214.29 1.84053 214.479 2.28181 214.479 2.82515C214.479 3.36849 214.291 3.81278 213.915 4.15799C213.538 4.50321 213.046 4.67582 212.438 4.67582ZM210.685 18.3404V6.42893H214.215V18.3404H210.685Z" fill="black"/>
<path d="M217.313 18.3364V6.4249H220.195L220.435 7.93786H220.532C221.043 7.45755 221.603 7.03579 222.213 6.67706C222.82 6.31683 223.533 6.13672 224.35 6.13672C225.647 6.13672 226.586 6.55999 227.172 7.40952C227.756 8.25756 228.048 9.4358 228.048 10.9413V18.3379H224.517V11.3975C224.517 10.533 224.401 9.94012 224.168 9.62042C223.936 9.29922 223.563 9.14012 223.052 9.14012C222.604 9.14012 222.219 9.23918 221.899 9.4403C221.578 9.63993 221.226 9.92361 220.842 10.2913V18.3364H217.313Z" fill="black"/>
<path d="M236.144 18.3434V2.68555H239.77L243.852 10.4665L245.388 13.9246H245.484C245.403 13.0931 245.311 12.164 245.208 11.1404C245.103 10.1152 245.052 9.13962 245.052 8.21053V2.68705H248.414V18.3449H244.788L240.705 10.54L239.168 7.13135H239.072C239.153 7.9944 239.245 8.92348 239.35 9.91561C239.453 10.9092 239.506 11.8698 239.506 12.7974V18.3449H236.144V18.3434Z" fill="black"/>
<path d="M257.153 18.6246C256.305 18.6246 255.511 18.4835 254.775 18.2043C254.04 17.9252 253.399 17.5154 252.854 16.9796C252.311 16.4437 251.884 15.7908 251.581 15.0223C251.278 14.2538 251.125 13.3728 251.125 12.3807C251.125 11.4186 251.284 10.551 251.605 9.77501C251.925 8.99752 252.345 8.34311 252.866 7.80577C253.385 7.26994 253.983 6.85567 254.654 6.56899C255.326 6.28081 256.023 6.13672 256.745 6.13672C257.591 6.13672 258.334 6.28081 258.964 6.56899C259.598 6.85567 260.125 7.25793 260.551 7.76975C260.974 8.28308 261.291 8.88646 261.5 9.5829C261.708 10.2793 261.812 11.0358 261.812 11.8523C261.812 12.1735 261.795 12.4767 261.764 12.7649C261.732 13.0531 261.699 13.2692 261.668 13.4133H254.535C254.694 14.2779 255.053 14.9143 255.604 15.3225C256.156 15.7293 256.833 15.9349 257.635 15.9349C258.483 15.9349 259.34 15.6692 260.204 15.1424L261.381 17.2797C260.773 17.6955 260.096 18.0242 259.35 18.2644C258.604 18.5045 257.875 18.6246 257.153 18.6246ZM254.511 11.0838H258.81C258.81 10.4114 258.657 9.86657 258.352 9.45081C258.049 9.03505 257.536 8.82642 256.817 8.82642C256.255 8.82642 255.763 9.01103 255.34 9.37876C254.916 9.7465 254.639 10.3154 254.511 11.0838Z" fill="black"/>
<path d="M268.609 18.6256C267.874 18.6256 267.245 18.513 266.724 18.2878C266.203 18.0627 265.78 17.752 265.451 17.3513C265.123 16.9505 264.882 16.4672 264.731 15.8983C264.579 15.3295 264.504 14.7021 264.504 14.0131V9.1876H262.871V6.56995L264.696 6.42586L265.103 3.25586H268.033V6.42586H270.891V9.1876H268.033V13.9666C268.033 14.639 268.174 15.1238 268.453 15.4195C268.734 15.7167 269.106 15.8638 269.57 15.8638C269.762 15.8638 269.957 15.8398 270.158 15.7918C270.359 15.7452 270.538 15.6882 270.699 15.6252L271.251 18.1948C270.93 18.2893 270.553 18.3869 270.121 18.4815C269.691 18.5775 269.187 18.6256 268.609 18.6256Z" fill="black"/>
<path d="M275.213 18.3432L272.235 6.43164H275.742L276.896 11.9551C276.99 12.548 277.079 13.1319 277.16 13.7082C277.24 14.2846 277.328 14.876 277.424 15.4854H277.52C277.631 14.8775 277.739 14.2771 277.844 13.6857C277.949 13.0943 278.073 12.5165 278.217 11.9566L279.537 6.43314H282.587L283.932 11.9566C284.078 12.5495 284.205 13.1334 284.316 13.7097C284.429 14.2861 284.549 14.8775 284.677 15.4869H284.773C284.884 14.879 284.977 14.2861 285.049 13.7097C285.121 13.1334 285.213 12.5495 285.325 11.9566L286.455 6.43314H289.721L286.864 18.3447H282.733L281.652 13.5897C281.523 13.0298 281.412 12.47 281.315 11.9086C281.22 11.3487 281.115 10.7484 281.002 10.1075H280.908C280.795 10.7484 280.695 11.3487 280.608 11.9086C280.519 12.47 280.42 13.0298 280.307 13.5897L279.251 18.3447H275.213V18.3432Z" fill="black"/>
<path d="M296.781 18.6237C296.027 18.6237 295.299 18.4826 294.595 18.2034C293.89 17.9228 293.27 17.519 292.734 16.9892C292.198 16.4608 291.769 15.8094 291.451 15.0319C291.13 14.2559 290.971 13.3719 290.971 12.3783C290.971 11.3846 291.13 10.5006 291.451 9.72308C291.771 8.94709 292.198 8.29418 292.734 7.76584C293.27 7.23751 293.892 6.83375 294.595 6.55308C295.299 6.2724 296.027 6.13281 296.781 6.13281C297.533 6.13281 298.256 6.2739 298.954 6.55308C299.651 6.83375 300.266 7.23751 300.802 7.76584C301.338 8.29418 301.767 8.94709 302.087 9.72308C302.406 10.5006 302.566 11.3846 302.566 12.3783C302.566 13.3719 302.406 14.2559 302.087 15.0319C301.766 15.8094 301.338 16.4608 300.802 16.9892C300.266 17.519 299.649 17.9228 298.954 18.2034C298.256 18.4826 297.531 18.6237 296.781 18.6237ZM296.781 15.7659C297.5 15.7659 298.045 15.4627 298.414 14.8533C298.782 14.2454 298.966 13.4214 298.966 12.3813C298.966 11.3411 298.782 10.5156 298.414 9.90769C298.045 9.29981 297.501 8.99662 296.781 8.99662C296.044 8.99662 295.496 9.29981 295.134 9.90769C294.776 10.5156 294.595 11.3411 294.595 12.3813C294.595 13.4214 294.776 14.2454 295.134 14.8533C295.495 15.4627 296.042 15.7659 296.781 15.7659Z" fill="black"/>
<path d="M304.993 18.3364V6.4249H307.875L308.115 8.51422H308.21C308.642 7.69771 309.163 7.09733 309.771 6.71308C310.379 6.32884 310.988 6.13672 311.597 6.13672C311.934 6.13672 312.208 6.15773 312.426 6.19676C312.642 6.23578 312.837 6.29582 313.014 6.37687L312.438 9.4268C312.214 9.36226 312.006 9.31423 311.813 9.28121C311.621 9.24818 311.398 9.23317 311.141 9.23317C310.692 9.23317 310.225 9.39378 309.736 9.71348C309.247 10.0347 308.843 10.602 308.522 11.4186V18.3349H304.993V18.3364Z" fill="black"/>
<path d="M314.552 18.3385V1.50391H317.986V11.158H318.08L321.852 6.42851H325.695L321.516 11.3276L326.007 18.34H322.189L319.499 13.7051L317.986 15.4102V18.34H314.552V18.3385Z" fill="black"/>
<path d="M7.27659 18.1298C6.28296 18.1298 5.34637 17.9572 4.46682 17.612C3.58726 17.2683 2.81277 16.761 2.14936 16.087C1.48444 15.4146 0.960604 14.5786 0.576362 13.5775C0.19212 12.5763 0 11.4191 0 10.1058C0 8.81044 0.199625 7.65321 0.600378 6.63557C0.99963 5.61793 1.53697 4.75789 2.20939 4.05394C2.88182 3.3485 3.66681 2.81266 4.56288 2.44493C5.45894 2.07719 6.40454 1.89258 7.39667 1.89258C8.4053 1.89258 9.30887 2.09671 10.1104 2.50496C10.9104 2.91172 11.5753 3.38902 12.1036 3.93387L10.2305 6.19129C9.8297 5.82356 9.41094 5.52337 8.96966 5.28922C8.52988 5.05808 8.03007 4.9425 7.46871 4.9425C6.94038 4.9425 6.43906 5.05808 5.96777 5.28922C5.49647 5.52187 5.08821 5.85358 4.74299 6.28585C4.39777 6.71812 4.1261 7.24796 3.92648 7.87235C3.72535 8.49675 3.62629 9.20069 3.62629 9.98418C3.62629 11.6022 3.97001 12.854 4.65894 13.7441C5.34637 14.6326 6.26795 15.0769 7.42068 15.0769C8.06008 15.0769 8.63344 14.9358 9.13776 14.6566C9.64208 14.376 10.0864 14.0292 10.4706 13.612L12.3438 15.8229C11.0305 17.3598 9.34189 18.1298 7.27659 18.1298Z" fill="black"/>
<path d="M19.549 18.1198C18.7955 18.1198 18.0675 17.9787 17.3636 17.6995C16.6581 17.4188 16.0383 17.0151 15.5024 16.4853C14.9666 15.9569 14.5373 15.3055 14.2176 14.528C13.8979 13.752 13.7373 12.868 13.7373 11.8743C13.7373 10.8807 13.8964 9.99666 14.2176 9.21917C14.5373 8.44318 14.9666 7.79027 15.5024 7.26194C16.0383 6.7336 16.6596 6.32985 17.3636 6.04917C18.0675 5.76849 18.7955 5.62891 19.549 5.62891C20.3009 5.62891 21.0259 5.77 21.7223 6.04917C22.4188 6.32835 23.0357 6.7336 23.5715 7.26194C24.1073 7.79027 24.5366 8.44318 24.8563 9.21917C25.176 9.99666 25.3366 10.8807 25.3366 11.8743C25.3366 12.868 25.176 13.752 24.8563 14.528C24.5366 15.3055 24.1073 15.9569 23.5715 16.4853C23.0357 17.0151 22.4188 17.4188 21.7223 17.6995C21.0259 17.9802 20.3009 18.1198 19.549 18.1198ZM19.549 15.262C20.2694 15.262 20.8128 14.9588 21.182 14.3494C21.5497 13.7415 21.7344 12.9175 21.7344 11.8773C21.7344 10.8372 21.5497 10.0117 21.182 9.40379C20.8128 8.7959 20.2694 8.49271 19.549 8.49271C18.812 8.49271 18.2642 8.7959 17.9039 9.40379C17.5437 10.0117 17.3636 10.8372 17.3636 11.8773C17.3636 12.9175 17.5437 13.7415 17.9039 14.3494C18.2642 14.9588 18.812 15.262 19.549 15.262Z" fill="black"/>
<path d="M27.7627 17.8325V5.92099H30.6445L30.8847 8.01031H30.9807C31.413 7.1938 31.9323 6.59342 32.5417 6.20918C33.1496 5.82493 33.759 5.63281 34.3669 5.63281C34.7031 5.63281 34.9793 5.65383 35.1954 5.69285C35.4115 5.73187 35.6066 5.79191 35.7838 5.87296L35.2074 8.92289C34.9838 8.85835 34.7751 8.81032 34.583 8.7773C34.3909 8.74428 34.1672 8.72927 33.9106 8.72927C33.4618 8.72927 32.9935 8.88987 32.5057 9.20957C32.0164 9.53077 31.6126 10.0981 31.2929 10.9146V17.831H27.7627V17.8325Z" fill="black"/>
<path d="M41.9066 18.1217C41.1696 18.1217 40.5407 18.0091 40.0214 17.7839C39.5021 17.5588 39.0773 17.2481 38.7486 16.8473C38.4199 16.4466 38.1798 15.9633 38.0282 15.3944C37.8751 14.8271 37.8 14.1997 37.8 13.5107V8.6837H36.167V6.06604L37.9921 5.92195L38.4004 2.75195H41.3302V5.92195H44.1881V8.6837H41.3302V13.4627C41.3302 14.1351 41.4698 14.6199 41.7505 14.9156C42.0312 15.2128 42.4019 15.3599 42.8672 15.3599C43.0593 15.3599 43.256 15.3359 43.4556 15.2879C43.6552 15.2413 43.8353 15.1843 43.9959 15.1213L44.5483 17.6909C44.2286 17.7854 43.8518 17.883 43.4196 17.9776C42.9873 18.0736 42.483 18.1217 41.9066 18.1217Z" fill="black"/>
<path d="M51.4165 18.1207C50.5684 18.1207 49.7759 17.9796 49.039 17.7004C48.302 17.4213 47.6626 17.0115 47.1178 16.4757C46.5729 15.9398 46.1482 15.2869 45.845 14.5184C45.5418 13.7499 45.3887 12.8689 45.3887 11.8768C45.3887 10.9146 45.5478 10.0471 45.869 9.27111C46.1902 8.49512 46.6089 7.8392 47.1298 7.30187C47.6506 6.76453 48.2465 6.35177 48.9189 6.06509C49.5913 5.7769 50.2878 5.63281 51.0082 5.63281C51.8563 5.63281 52.5977 5.7769 53.2296 6.06509C53.8615 6.35177 54.3899 6.75402 54.8146 7.26584C55.2394 7.77917 55.5546 8.38255 55.7632 9.07899C55.9719 9.77543 56.0754 10.5319 56.0754 11.3484C56.0754 11.6696 56.0589 11.9728 56.0274 12.261C55.9959 12.5492 55.9628 12.7653 55.9313 12.9094H48.7988C48.9579 13.774 49.3152 14.4104 49.8675 14.8186C50.4198 15.2254 51.0953 15.431 51.8968 15.431C52.7448 15.431 53.6019 15.1653 54.4664 14.6385L55.6431 16.7758C55.0338 17.1916 54.3583 17.5203 53.6139 17.7605C52.8709 18.0006 52.1369 18.1207 51.4165 18.1207ZM48.7763 10.5799H53.075C53.075 9.90751 52.9234 9.36267 52.6187 8.9469C52.314 8.53114 51.8022 8.32251 51.0818 8.32251C50.5204 8.32251 50.0281 8.50713 49.6048 8.87486C49.1816 9.24259 48.9039 9.81145 48.7763 10.5799Z" fill="black"/>
<path d="M61.7689 18.1228C61.161 18.1228 60.6477 18.0267 60.2319 17.8346C59.8161 17.6425 59.4844 17.3738 59.2353 17.0301C58.9876 16.6864 58.8075 16.2691 58.6964 15.7813C58.5839 15.2935 58.5283 14.7457 58.5283 14.1363V1H62.0585V14.2804C62.0585 14.6496 62.1276 14.9048 62.2642 15.0489C62.3993 15.1945 62.5403 15.2665 62.6829 15.2665C62.764 15.2665 62.8315 15.2665 62.8886 15.2665C62.9441 15.2665 63.0207 15.25 63.1152 15.2185L63.5475 17.8361C63.3554 17.9172 63.1107 17.9847 62.8165 18.0403C62.5163 18.0928 62.1681 18.1228 61.7689 18.1228Z" fill="black"/>
<path d="M68.637 18.1228C68.0292 18.1228 67.5158 18.0267 67.1001 17.8346C66.6843 17.6425 66.3526 17.3738 66.1034 17.0301C65.8558 16.6864 65.6757 16.2691 65.5646 15.7813C65.452 15.2935 65.3965 14.7457 65.3965 14.1363V1H68.9267V14.2804C68.9267 14.6496 68.9958 14.9048 69.1324 15.0489C69.2674 15.1945 69.4085 15.2665 69.5511 15.2665C69.6322 15.2665 69.6997 15.2665 69.7567 15.2665C69.8123 15.2665 69.8888 15.25 69.9834 15.2185L70.4157 17.8361C70.2235 17.9172 69.9789 17.9847 69.6847 18.0403C69.3845 18.0928 69.0378 18.1228 68.637 18.1228Z" fill="black"/>
<path d="M74.0135 4.17237C73.4206 4.17237 72.9328 3.99976 72.5486 3.65454C72.1628 3.31082 71.9707 2.86654 71.9707 2.3217C71.9707 1.77685 72.1643 1.33708 72.5486 1.00237C72.9328 0.664652 73.4206 0.498047 74.0135 0.498047C74.6214 0.498047 75.1137 0.664652 75.4904 1.00237C75.8657 1.33858 76.0548 1.77986 76.0548 2.3232C76.0548 2.86654 75.8657 3.31082 75.4904 3.65604C75.1137 3.99976 74.6214 4.17237 74.0135 4.17237ZM72.2604 17.837V5.92547H75.7906V17.837H72.2604Z" fill="black"/>
<path d="M82.3949 18.1222C81.6114 18.1222 80.8054 17.9691 79.9814 17.6644C79.1574 17.3612 78.4414 16.9605 77.832 16.4636L79.417 14.2543C79.9619 14.67 80.4827 14.9822 80.978 15.1908C81.4748 15.3995 81.9792 15.503 82.4925 15.503C83.0208 15.503 83.4035 15.4145 83.6452 15.2389C83.8854 15.0618 84.0054 14.8141 84.0054 14.4944C84.0054 14.3023 83.9364 14.1297 83.7998 13.9766C83.6647 13.825 83.4801 13.6854 83.249 13.5578C83.0163 13.4287 82.7566 13.3132 82.467 13.2096C82.1803 13.106 81.8816 12.9905 81.5784 12.8629C81.2107 12.7173 80.8414 12.5507 80.4737 12.3571C80.106 12.1649 79.7698 11.9293 79.4651 11.6486C79.1619 11.3679 78.9127 11.0407 78.7206 10.664C78.5285 10.2888 78.4339 9.85198 78.4339 9.35516C78.4339 8.81182 78.5405 8.3075 78.7581 7.84221C78.9742 7.37841 79.2819 6.98667 79.6827 6.66546C80.0835 6.34576 80.5623 6.0936 81.1236 5.90899C81.6835 5.72587 82.3079 5.63281 82.9968 5.63281C83.9079 5.63281 84.7094 5.78891 85.3983 6.10111C86.0872 6.41331 86.6861 6.76152 87.1994 7.14577L85.6129 9.2591C85.1822 8.9394 84.7574 8.69024 84.3401 8.51463C83.9229 8.33902 83.5071 8.25046 83.0913 8.25046C82.1938 8.25046 81.7465 8.56266 81.7465 9.18706C81.7465 9.37918 81.8095 9.54278 81.9386 9.67937C82.0662 9.81595 82.2388 9.93903 82.455 10.0516C82.6711 10.1627 82.9202 10.2707 83.1994 10.3758C83.4786 10.4809 83.7713 10.5889 84.076 10.7C84.4602 10.8441 84.84 11.0077 85.2167 11.1923C85.5934 11.3769 85.9371 11.6036 86.2493 11.8768C86.5615 12.1499 86.8137 12.4801 87.0058 12.8734C87.1979 13.2651 87.2925 13.7334 87.2925 14.2783C87.2925 14.8231 87.1889 15.3274 86.9803 15.7912C86.7717 16.2565 86.4595 16.6603 86.0437 17.0055C85.628 17.3507 85.1161 17.6209 84.5082 17.822C83.9004 18.0216 83.1949 18.1222 82.3949 18.1222Z" fill="black"/>
<path d="M97.399 18.1268C96.3738 18.1268 95.3547 17.9377 94.3371 17.5625C93.3194 17.1857 92.4113 16.6214 91.6113 15.8694L93.6301 13.4439C94.19 13.9227 94.8098 14.3159 95.4898 14.6206C96.1712 14.9238 96.8391 15.0769 97.4965 15.0769C98.232 15.0769 98.7799 14.9403 99.1416 14.6686C99.5018 14.397 99.6804 14.0292 99.6804 13.5654C99.6804 13.3253 99.6294 13.1167 99.5243 12.9411C99.4193 12.7654 99.2677 12.6078 99.068 12.4713C98.8669 12.3362 98.6268 12.2071 98.3476 12.087C98.0684 11.9669 97.7592 11.8349 97.423 11.6908L95.3832 10.8262C94.9825 10.6656 94.5937 10.4585 94.217 10.2018C93.8402 9.94516 93.504 9.64497 93.2083 9.29975C92.9126 8.95604 92.677 8.55678 92.4999 8.099C92.3228 7.64421 92.2357 7.12788 92.2357 6.55152C92.2357 5.91061 92.3723 5.30573 92.644 4.73837C92.9171 4.16951 93.3014 3.6727 93.7967 3.24943C94.2935 2.82467 94.8819 2.49296 95.5633 2.25281C96.2432 2.01265 96.9907 1.89258 97.8087 1.89258C98.7198 1.89258 99.6219 2.06819 100.51 2.42091C101.399 2.77363 102.178 3.28546 102.852 3.95788L101.051 6.19129C100.539 5.79054 100.026 5.48134 99.5153 5.26671C99.002 5.05057 98.4331 4.9425 97.8102 4.9425C97.2009 4.9425 96.716 5.06708 96.3558 5.31474C95.9971 5.56239 95.817 5.91061 95.817 6.3579C95.817 6.59805 95.877 6.80368 95.9971 6.97028C96.1157 7.13839 96.2838 7.29149 96.5014 7.42807C96.7175 7.56316 96.9697 7.69224 97.2579 7.81231C97.5446 7.93239 97.8568 8.06447 98.1945 8.20856L100.212 9.02508C101.172 9.40932 101.929 9.93766 102.481 10.6101C103.034 11.2825 103.31 12.1711 103.31 13.2758C103.31 13.9332 103.178 14.5531 102.913 15.1369C102.649 15.7208 102.265 16.2326 101.761 16.6724C101.256 17.1137 100.635 17.4649 99.8996 17.7291C99.1596 17.9932 98.3266 18.1268 97.399 18.1268Z" fill="black"/>
<path d="M109.26 18.1294C107.963 18.1294 107.024 17.7046 106.439 16.8551C105.853 16.0055 105.563 14.8318 105.563 13.3264V5.92969H109.094V12.8701C109.094 13.7331 109.214 14.3275 109.454 14.6472C109.694 14.9684 110.071 15.1275 110.583 15.1275C111.031 15.1275 111.408 15.0239 111.711 14.8153C112.016 14.6067 112.345 14.2705 112.696 13.8052V5.92969H116.228V17.8412H113.344L113.08 16.1842H113.008C112.495 16.792 111.947 17.2693 111.363 17.6116C110.778 17.9568 110.077 18.1294 109.26 18.1294Z" fill="black"/>
<path d="M119.324 22.2513V5.92099H122.206L122.446 7.09624H122.541C123.006 6.68047 123.53 6.33225 124.115 6.05308C124.699 5.7724 125.304 5.63281 125.928 5.63281C126.647 5.63281 127.296 5.7769 127.874 6.06509C128.45 6.35177 128.938 6.76152 129.339 7.28836C129.739 7.81819 130.047 8.45309 130.263 9.19756C130.479 9.94203 130.587 10.7706 130.587 11.6831C130.587 12.7083 130.446 13.6164 130.167 14.4074C129.886 15.1999 129.51 15.8738 129.038 16.4261C128.567 16.977 128.03 17.3972 127.431 17.6869C126.83 17.9736 126.211 18.1192 125.57 18.1192C125.056 18.1192 124.561 18.0111 124.081 17.7935C123.6 17.5774 123.152 17.2697 122.736 16.8704L122.856 18.7676V22.2498H119.324V22.2513ZM124.752 15.2389C125.36 15.2389 125.88 14.9612 126.313 14.4089C126.745 13.8565 126.961 12.9649 126.961 11.7312C126.961 9.58631 126.272 8.51313 124.896 8.51313C124.207 8.51313 123.527 8.87336 122.854 9.59381V14.4689C123.176 14.7571 123.495 14.9582 123.817 15.0693C124.135 15.1818 124.447 15.2389 124.752 15.2389Z" fill="black"/>
<path d="M133.085 22.2513V5.92099H135.967L136.207 7.09624H136.301C136.767 6.68047 137.291 6.33225 137.876 6.05308C138.46 5.7724 139.065 5.63281 139.689 5.63281C140.408 5.63281 141.057 5.7769 141.634 6.06509C142.211 6.35177 142.699 6.76152 143.099 7.28836C143.5 7.81819 143.808 8.45309 144.024 9.19756C144.24 9.94203 144.348 10.7706 144.348 11.6831C144.348 12.7083 144.207 13.6164 143.928 14.4074C143.647 15.1999 143.27 15.8738 142.799 16.4261C142.328 16.977 141.79 17.3972 141.192 17.6869C140.591 17.9736 139.971 18.1192 139.33 18.1192C138.817 18.1192 138.322 18.0111 137.841 17.7935C137.361 17.5774 136.912 17.2697 136.497 16.8704L136.617 18.7676V22.2498H133.085V22.2513ZM138.512 15.2389C139.12 15.2389 139.641 14.9612 140.073 14.4089C140.506 13.8565 140.722 12.9649 140.722 11.7312C140.722 9.58631 140.033 8.51313 138.656 8.51313C137.968 8.51313 137.288 8.87336 136.615 9.59381V14.4689C136.936 14.7571 137.256 14.9582 137.577 15.0693C137.896 15.1818 138.208 15.2389 138.512 15.2389Z" fill="black"/>
<path d="M150.088 18.1228C149.48 18.1228 148.967 18.0267 148.551 17.8346C148.135 17.6425 147.804 17.3738 147.555 17.0301C147.307 16.6864 147.127 16.2691 147.016 15.7813C146.903 15.2935 146.848 14.7457 146.848 14.1363V1H150.378V14.2804C150.378 14.6496 150.447 14.9048 150.584 15.0489C150.719 15.1945 150.86 15.2665 151.002 15.2665C151.083 15.2665 151.151 15.2665 151.208 15.2665C151.263 15.2665 151.34 15.25 151.435 15.2185L151.867 17.8361C151.675 17.9172 151.43 17.9847 151.136 18.0403C150.836 18.0928 150.487 18.1228 150.088 18.1228Z" fill="black"/>
<path d="M155.037 22.4997C154.669 22.4997 154.357 22.4802 154.1 22.4412C153.843 22.4006 153.596 22.3406 153.355 22.261L153.98 19.5713C154.091 19.6029 154.22 19.6344 154.364 19.6659C154.51 19.6974 154.645 19.7139 154.772 19.7139C155.365 19.7139 155.82 19.5698 156.141 19.2817C156.461 18.9935 156.701 18.6182 156.86 18.153L157.028 17.5286L152.441 5.92924H155.994L157.701 11.043C157.876 11.5878 158.037 12.1402 158.18 12.7C158.325 13.2599 158.475 13.8377 158.637 14.4276H158.732C158.861 13.8677 158.993 13.3034 159.13 12.7345C159.265 12.1672 159.406 11.6028 159.548 11.0415L160.989 5.92773H164.375L160.245 17.9593C159.958 18.7113 159.656 19.3717 159.344 19.9406C159.032 20.5079 158.672 20.9792 158.264 21.356C157.855 21.7327 157.39 22.0164 156.869 22.2085C156.348 22.4006 155.74 22.4997 155.037 22.4997Z" fill="black"/>
</svg>
