<?xml version="1.0" encoding="utf-8"?>
<!-- Generator: Adobe Illustrator 16.0.0, SVG Export Plug-In . SVG Version: 6.00 Build 0)  -->
<!DOCTYPE svg PUBLIC "-//W3C//DTD SVG 1.1//EN" "http://www.w3.org/Graphics/SVG/1.1/DTD/svg11.dtd">
<svg version="1.1" id="Layer_1" xmlns="http://www.w3.org/2000/svg" xmlns:xlink="http://www.w3.org/1999/xlink" x="0px" y="0px"
	 width="50px" height="50px" viewBox="0 0 50 50" enable-background="new 0 0 50 50" xml:space="preserve">
<g>
	<path fill="#C7C7C7" d="M25,49c13.255,0,24-10.746,24-24C49,11.744,38.255,1,25,1S1,11.744,1,25C1,38.254,11.745,49,25,49"/>
	<path fill="none" stroke="#FFFFFF" stroke-width="1.5" d="M25,31.213c4.335,0,7.85-4.971,7.85-9.309c0-4.34-3.515-7.857-7.85-7.857
		s-7.849,3.518-7.849,7.857C17.151,26.242,20.665,31.213,25,31.213z"/>
	<path fill="none" stroke="#FFFFFF" stroke-width="1.5" d="M35.75,44.699c0-5.684-3.085-10.293-10.75-10.293
		c-7.664,0-10.75,4.609-10.75,10.293"/>
</g>
</svg>
