<?xml version="1.0" encoding="UTF-8"?>
<svg width="17px" height="13px" viewBox="0 0 17 13" version="1.1" xmlns="http://www.w3.org/2000/svg" xmlns:xlink="http://www.w3.org/1999/xlink">
    <!-- Generator: Sketch 54.1 (76490) - https://sketchapp.com -->
    <title></title>
    <desc>Created with Sketch.</desc>
    <g id="Store-front" stroke="none" stroke-width="1" fill="none" fill-rule="evenodd">
        <g id="Playbook-page" transform="translate(-1057.000000, -205.000000)" fill="#202023" fill-rule="nonzero">
            <path d="M1071.846,208.196 L1071.846,206.6 L1065.5,210.571 L1059.154,206.6 L1059.154,208.196 L1065.5,212.129 L1071.846,208.196 Z M1071.846,205.004 C1072.27667,205.004 1072.644,205.162332 1072.948,205.479 C1073.252,205.795668 1073.404,206.169331 1073.404,206.6 L1073.404,216.1 C1073.404,216.530669 1073.252,216.904332 1072.948,217.221 C1072.644,217.537668 1072.27667,217.696 1071.846,217.696 L1059.154,217.696 C1058.72333,217.696 1058.356,217.537668 1058.052,217.221 C1057.748,216.904332 1057.596,216.530669 1057.596,216.1 L1057.596,206.6 C1057.596,206.169331 1057.748,205.795668 1058.052,205.479 C1058.356,205.162332 1058.72333,205.004 1059.154,205.004 L1071.846,205.004 Z" id=""></path>
        </g>
    </g>
</svg>