<svg width="14" height="14" viewBox="0 0 14 14" fill="none" xmlns="http://www.w3.org/2000/svg">
<path fill-rule="evenodd" clip-rule="evenodd" d="M11.7997 7.0001C11.7997 7.2201 11.7864 7.42676 11.7597 7.62676L13.0997 8.6801C13.2264 8.77343 13.2597 8.9401 13.1797 9.08676L11.8997 11.3001C11.8197 11.4468 11.6531 11.5001 11.5064 11.4468L9.91308 10.8068C9.58641 11.0601 9.22641 11.2734 8.83308 11.4334L8.59308 13.1268C8.57308 13.2868 8.43975 13.4001 8.27975 13.4001H5.71975C5.55975 13.4001 5.43308 13.2868 5.39975 13.1268L5.15975 11.4334C4.76641 11.2734 4.41308 11.0601 4.07975 10.8068L2.48641 11.4468C2.33975 11.4934 2.17308 11.4468 2.09308 11.3001L0.813081 9.08676C0.739748 8.95343 0.773081 8.77343 0.893081 8.6801L2.24641 7.62676C2.21308 7.42676 2.19975 7.20676 2.19975 7.0001C2.19975 6.79343 2.22641 6.57343 2.25975 6.37343L0.906414 5.3201C0.773081 5.22676 0.746414 5.05343 0.826414 4.91343L2.09975 2.7001C2.17975 2.55343 2.34641 2.5001 2.49308 2.55343L4.08641 3.19343C4.41308 2.94676 4.77308 2.72676 5.16641 2.56676L5.40641 0.873431C5.43308 0.713431 5.55975 0.600098 5.71975 0.600098H8.27975C8.43975 0.600098 8.57308 0.713431 8.59975 0.873431L8.83975 2.56676C9.23308 2.72676 9.58641 2.9401 9.91975 3.19343L11.5131 2.55343C11.6597 2.50676 11.8264 2.55343 11.9064 2.7001L13.1864 4.91343C13.2597 5.04676 13.2264 5.22676 13.1064 5.3201L11.7531 6.37343C11.7864 6.57343 11.7997 6.78676 11.7997 7.0001ZM4.59945 7.00018C4.59945 8.32018 5.67945 9.40018 6.99945 9.40018C8.31945 9.40018 9.39945 8.32018 9.39945 7.00018C9.39945 5.68018 8.31945 4.60018 6.99945 4.60018C5.67945 4.60018 4.59945 5.68018 4.59945 7.00018Z" fill="#6BA2E4"/>
</svg>
