<?xml version="1.0" encoding="utf-8"?>
<!-- Generator: Adobe Illustrator 16.0.0, SVG Export Plug-In . SVG Version: 6.00 Build 0)  -->
<!DOCTYPE svg PUBLIC "-//W3C//DTD SVG 1.1//EN" "http://www.w3.org/Graphics/SVG/1.1/DTD/svg11.dtd">
<svg version="1.1" id="Layer_1" xmlns="http://www.w3.org/2000/svg" xmlns:xlink="http://www.w3.org/1999/xlink" x="0px" y="0px"
	 width="29px" height="29px" viewBox="0 0 29 29" enable-background="new 0 0 29 29" xml:space="preserve">
<g>
	<path fill="#F04036" d="M25.776,0.5H3.222C1.712,0.5,0.5,1.724,0.5,3.234v22.552c0,1.377,1.009,2.505,2.333,2.696v0.015h0.159
		c0.077,0.006,0.151,0,0.229,0H14.5l0,0h3.889l0,0h7.388c1.51,0,2.724-1.201,2.724-2.711V3.234C28.5,1.724,27.286,0.5,25.776,0.5z"
		/>
	<path fill="#FFFFFF" d="M14.382,12.358v3.898h5.313c-0.796,2.07-2.821,3.544-5.194,3.544c-3.068,0-5.557-2.457-5.557-5.492
		c0-3.033,2.488-5.492,5.557-5.492c1.366,0,2.616,0.489,3.584,1.299l2.781-2.693c-1.677-1.518-3.911-2.446-6.365-2.446
		c-5.213,0-9.439,4.179-9.439,9.333c0,5.153,4.226,9.333,9.439,9.333c5.213,0,9.438-4.178,9.438-9.333
		c0-0.668-0.072-1.321-0.206-1.95L14.382,12.358L14.382,12.358z"/>
</g>
</svg>
