<?xml version="1.0" encoding="utf-8"?>
<!-- Generator: Adobe Illustrator 16.0.3, SVG Export Plug-In . SVG Version: 6.00 Build 0)  -->
<!DOCTYPE svg PUBLIC "-//W3C//DTD SVG 1.1//EN" "http://www.w3.org/Graphics/SVG/1.1/DTD/svg11.dtd">
<svg version="1.1" id="Layer_1" xmlns="http://www.w3.org/2000/svg" xmlns:xlink="http://www.w3.org/1999/xlink" x="0px" y="0px"
	 width="32px" height="32px" viewBox="0 0 32 32" enable-background="new 0 0 32 32" xml:space="preserve">
<g>
	<g>
		<g>
			<circle cx="16" cy="16" r="15"/>
		</g>
	</g>
	<g id="XMLID_4_">
		<path fill="#FFFFFF" d="M16.506,16l4.944-4.943c0.14-0.141,0.14-0.366,0-0.506c-0.14-0.141-0.366-0.141-0.507,0L16,15.494
			l-4.943-4.943c-0.141-0.141-0.367-0.141-0.506,0c-0.141,0.14-0.141,0.365,0,0.506L15.494,16l-4.943,4.943
			c-0.141,0.141-0.141,0.367,0,0.507c0.069,0.07,0.16,0.104,0.252,0.104s0.184-0.034,0.254-0.104L16,16.507l4.943,4.943
			c0.07,0.07,0.162,0.104,0.254,0.104s0.183-0.034,0.253-0.104c0.14-0.14,0.14-0.366,0-0.507L16.506,16z"/>
	</g>
</g>
</svg>
