<?xml version="1.0" encoding="utf-8"?>
<!-- Generator: Adobe Illustrator 16.0.3, SVG Export Plug-In . SVG Version: 6.00 Build 0)  -->
<!DOCTYPE svg PUBLIC "-//W3C//DTD SVG 1.1//EN" "http://www.w3.org/Graphics/SVG/1.1/DTD/svg11.dtd">
<svg version="1.1" fill="#fff" id="Layer_1" xmlns="http://www.w3.org/2000/svg" xmlns:xlink="http://www.w3.org/1999/xlink" x="0px" y="0px"
	 width="40px" height="40px" viewBox="0 0 40 40" enable-background="new 0 0 40 40" xml:space="preserve">
<g id="XMLID_1_">
	<path d="M20.74,19.258l0.002-14.515C20.74,4.332,20.409,4,20,4c-0.411-0.001-0.744,0.332-0.744,0.744v14.514H4.742
		C4.328,19.258,3.996,19.591,4,20c-0.002,0.411,0.328,0.742,0.742,0.742h14.514v14.514c0,0.414,0.333,0.746,0.744,0.744
		c0.205,0.002,0.388-0.081,0.523-0.217c0.134-0.134,0.219-0.318,0.219-0.525V20.744h14.514c0.207,0,0.392-0.085,0.525-0.219
		C35.917,20.39,36,20.207,36,20c0-0.409-0.332-0.742-0.744-0.744L20.74,19.258z"/>
</g>
</svg>
