<svg xmlns="http://www.w3.org/2000/svg" viewBox="0 0 30 30"><defs><style>.cls-1{fill:#575c63;}.cls-2{fill:#fff;}</style></defs><title>Asset 6</title><g id="Layer_2" data-name="Layer 2"><g id="Layer_1-2" data-name="Layer 1"><polygon class="cls-1" points="16.45 16.44 16.45 13.92 16.45 13.55 16.07 13.55 13.55 13.56 13.56 16.45 16.45 16.44"/><path class="cls-2" d="M15,1A14,14,0,1,0,29,15,14,14,0,0,0,15,1m0,29A15,15,0,1,1,30,15,15,15,0,0,1,15,30"/><path class="cls-2" d="M21.87,20.23a1.64,1.64,0,0,1-1.64,1.64H9.77a1.64,1.64,0,0,1-1.64-1.64v-7h2.55A4.63,4.63,0,0,0,10.33,15a4.67,4.67,0,0,0,9.34,0,4.63,4.63,0,0,0-.35-1.75h2.55Zm-9.3-7A3,3,0,0,1,15,12a3,3,0,1,1-3,3,3,3,0,0,1,.57-1.75m7.66-6.78H9.77a3.3,3.3,0,0,0-3.3,3.3V20.23a3.3,3.3,0,0,0,3.3,3.3H20.23a3.3,3.3,0,0,0,3.3-3.3V9.77a3.3,3.3,0,0,0-3.3-3.3"/></g></g></svg>