<svg xmlns="http://www.w3.org/2000/svg" viewBox="0 0 30 30"><defs><style>.cls-1{fill:#fff;}</style></defs><title>Asset 7</title><g id="Layer_2" data-name="Layer 2"><g id="Layer_1-2" data-name="Layer 1"><path class="cls-1" d="M15,1A14,14,0,1,0,29,15,14,14,0,0,0,15,1m0,29A15,15,0,1,1,30,15,15,15,0,0,1,15,30"/><rect class="cls-1" x="7.32" y="11.63" width="3.55" height="10.59"/><path class="cls-1" d="M9.09,10.19h0a1.84,1.84,0,1,1,0-3.66,1.84,1.84,0,1,1,0,3.66"/><path class="cls-1" d="M23.64,22.22H20.1V16.56c0-1.43-.52-2.4-1.8-2.4a2,2,0,0,0-1.82,1.29,2.5,2.5,0,0,0-.11.86v5.91H12.83s0-9.59,0-10.59h3.54v1.5a3.52,3.52,0,0,1,3.19-1.75c2.33,0,4.08,1.52,4.08,4.77Z"/></g></g></svg>