<?xml version="1.0" encoding="UTF-8"?>
<svg width="13px" height="17px" viewBox="0 0 13 17" version="1.1" xmlns="http://www.w3.org/2000/svg" xmlns:xlink="http://www.w3.org/1999/xlink">
    <!-- Generator: Sketch 54.1 (76490) - https://sketchapp.com -->
    <title></title>
    <desc>Created with Sketch.</desc>
    <g id="Store-front" stroke="none" stroke-width="1" fill="none" fill-rule="evenodd">
        <g id="Playbook-page" transform="translate(-1059.000000, -236.000000)" fill="#202023" fill-rule="nonzero">
            <path d="M1065.5,243.932 C1065.85467,243.932 1066.184,243.843334 1066.488,243.666 C1066.792,243.488666 1067.03267,243.251168 1067.21,242.9535 C1067.38733,242.655832 1067.476,242.329668 1067.476,241.975 C1067.476,241.620332 1067.38733,241.291002 1067.21,240.987 C1067.03267,240.682998 1066.792,240.442334 1066.488,240.265 C1066.184,240.087666 1065.85467,239.999 1065.5,239.999 C1065.14533,239.999 1064.81917,240.087666 1064.5215,240.265 C1064.22383,240.442334 1063.98633,240.682998 1063.809,240.987 C1063.63167,241.291002 1063.543,241.620332 1063.543,241.975 C1063.543,242.519669 1063.733,242.981998 1064.113,243.362 C1064.493,243.742002 1064.95533,243.932 1065.5,243.932 Z M1065.5,236.446 C1066.51334,236.446 1067.44433,236.692998 1068.293,237.187 C1069.129,237.681002 1069.794,238.345996 1070.288,239.182 C1070.782,240.030671 1071.029,240.961662 1071.029,241.975 C1071.029,242.747671 1070.839,243.634328 1070.459,244.635 C1070.12967,245.483671 1069.67367,246.401995 1069.091,247.39 C1068.60966,248.175337 1068.05867,248.992329 1067.438,249.841 C1067.00733,250.436336 1066.55134,251.018997 1066.07,251.589 L1065.5,252.254 L1064.93,251.589 C1064.44866,251.018997 1063.99267,250.436336 1063.562,249.841 C1062.94133,248.992329 1062.39034,248.175337 1061.909,247.39 C1061.32633,246.401995 1060.87033,245.483671 1060.541,244.635 C1060.161,243.634328 1059.971,242.747671 1059.971,241.975 C1059.971,240.961662 1060.218,240.030671 1060.712,239.182 C1061.206,238.345996 1061.871,237.681002 1062.707,237.187 C1063.55567,236.692998 1064.48666,236.446 1065.5,236.446 Z" id=""></path>
        </g>
    </g>
</svg>