<?xml version="1.0" encoding="utf-8"?>
<!-- Generator: Adobe Illustrator 16.0.3, SVG Export Plug-In . SVG Version: 6.00 Build 0)  -->
<!DOCTYPE svg PUBLIC "-//W3C//DTD SVG 1.1//EN" "http://www.w3.org/Graphics/SVG/1.1/DTD/svg11.dtd" [
	<!ENTITY ns_extend "http://ns.adobe.com/Extensibility/1.0/">
	<!ENTITY ns_ai "http://ns.adobe.com/AdobeIllustrator/10.0/">
	<!ENTITY ns_graphs "http://ns.adobe.com/Graphs/1.0/">
	<!ENTITY ns_vars "http://ns.adobe.com/Variables/1.0/">
	<!ENTITY ns_imrep "http://ns.adobe.com/ImageReplacement/1.0/">
	<!ENTITY ns_sfw "http://ns.adobe.com/SaveForWeb/1.0/">
	<!ENTITY ns_custom "http://ns.adobe.com/GenericCustomNamespace/1.0/">
	<!ENTITY ns_adobe_xpath "http://ns.adobe.com/XPath/1.0/">
]>
<svg version="1.1" id="Layer_1" xmlns:x="&ns_extend;" xmlns:i="&ns_ai;" xmlns:graph="&ns_graphs;"
	 xmlns="http://www.w3.org/2000/svg" xmlns:xlink="http://www.w3.org/1999/xlink" x="0px" y="0px" width="135px" height="173px"
	 viewBox="0 0 135 173" enable-background="new 0 0 135 173" xml:space="preserve">
<metadata>
	<sfw  xmlns="&ns_sfw;">
		<slices></slices>
		<sliceSourceBounds  height="539.787" width="1687.343" y="-611.787" x="-933.557" bottomLeftOrigin="true"></sliceSourceBounds>
	</sfw>
</metadata>
<g>
	<g>
		<path fill="#999999" d="M118,68.5h-5v-18C113,25.411,92.589,5,67.5,5S22,25.411,22,50.5v18h-5v-18C17,22.654,39.654,0,67.5,0
			S118,22.654,118,50.5V68.5z"/>
	</g>
	<g>
		<path fill="#999999" d="M128.5,173H6.5c-3.584,0-6.5-2.916-6.5-6.5v-94C0,68.916,2.916,66,6.5,66h122c3.584,0,6.5,2.916,6.5,6.5
			v94C135,170.084,132.084,173,128.5,173z M6.5,71C5.673,71,5,71.673,5,72.5v94c0,0.827,0.673,1.5,1.5,1.5h122
			c0.827,0,1.5-0.673,1.5-1.5v-94c0-0.827-0.673-1.5-1.5-1.5H6.5z"/>
	</g>
	<g>
		<circle fill="#999999" cx="67.5" cy="119.5" r="5.931"/>
	</g>
</g>
</svg>
