<?xml version="1.0" encoding="utf-8"?>
<!-- Generator: Adobe Illustrator 16.0.0, SVG Export Plug-In . SVG Version: 6.00 Build 0)  -->
<!DOCTYPE svg PUBLIC "-//W3C//DTD SVG 1.1//EN" "http://www.w3.org/Graphics/SVG/1.1/DTD/svg11.dtd">
<svg version="1.1" id="Layer_1" xmlns="http://www.w3.org/2000/svg" xmlns:xlink="http://www.w3.org/1999/xlink" x="0px" y="0px"
	 width="149px" height="54px" viewBox="0 0 149 54" enable-background="new 0 0 149 54" xml:space="preserve">
<title>Group</title>
<desc>Created with Sketch.</desc>
<g id="Page-1">
	<g id="Group">
		<path id="NCD" fill="#25912D" d="M149,20.583c0,5.909-1.854,10.423-5.564,13.542c-3.381,2.824-7.847,4.234-13.394,4.234h-10.784
			V2.808h10.784c5.547,0,10.013,1.412,13.394,4.234C147.146,10.161,149,14.675,149,20.583z M141.662,20.583
			c0-8.076-3.874-12.113-11.62-12.113h-3.397v24.227h3.397C137.788,32.697,141.662,28.66,141.662,20.583z"/>
		<polygon id="Path" fill="#25912D" points="76.184,38.027 66.237,38.027 53.07,10.7 53.07,38.027 46.44,38.027 46.44,3.833 
			56.385,3.833 69.552,31.16 69.552,3.833 76.184,3.833 		"/>
		<path id="Path_1_" fill="#25912D" d="M113.104,26.226c-0.166,3.349-1.742,6.209-4.729,8.579c-2.988,2.37-6.439,3.557-10.355,3.557
			c-5.312,0-9.328-1.771-12.049-5.311c-2.423-3.097-3.635-7.252-3.635-12.467c0-5.562,1.443-9.939,4.331-13.13
			c2.788-3.097,6.571-4.646,11.353-4.646c9.094,0,13.988,3.839,14.687,11.519h-7.22c-0.729-2.37-1.525-3.95-2.389-4.74
			c-1.029-0.885-2.723-1.327-5.078-1.327c-3.319,0-5.608,1.327-6.871,3.982c-0.896,1.864-1.344,4.646-1.344,8.343
			c0,3.729,0.447,6.527,1.344,8.39c1.263,2.688,3.552,4.03,6.871,4.03c2.258,0,3.949-0.664,5.078-1.991
			c0.862-0.979,1.526-2.574,1.991-4.787L113.104,26.226L113.104,26.226z"/>
		<g id="Group-2">
			<path id="Path_2_" fill="#204D7E" d="M11.732,1.602l3.375,8.352c-0.868,0.401-1.673,0.917-2.394,1.528L6.571,4.896
				C8.097,3.543,9.836,2.427,11.732,1.602z"/>
			<path id="Path_3_" fill="#13345F" d="M12.659,1.228C14.64,0.485,16.773,0.056,19,0v9.005c-1.035,0.049-2.031,0.247-2.966,0.574
				L12.659,1.228z"/>
			<path id="Path_4_" fill="#60A140" d="M5.84,5.578l6.142,6.586c-0.661,0.678-1.231,1.445-1.69,2.282l-8.096-3.949
				C3.147,8.668,4.382,7.009,5.84,5.578z"/>
			<path id="Path_5_" fill="#3275B0" d="M1.756,11.396l8.096,3.949c-0.37,0.859-0.628,1.778-0.757,2.737l-8.972-0.785
				C0.356,15.212,0.918,13.228,1.756,11.396z"/>
			<path id="Path_6_" fill="#55773E" d="M0.037,18.293l8.972,0.785C9.003,19.216,9,19.354,9,19.494c0,0.83,0.096,1.637,0.278,2.411
				l-8.659,2.483C0.215,22.824,0,21.184,0,19.494C0,19.09,0.012,18.69,0.037,18.293z"/>
			<path id="Path_7_" fill="#C89133" d="M0.895,25.349l8.659-2.483c0.308,0.909,0.738,1.762,1.269,2.541L3.63,30.826
				C2.448,29.174,1.517,27.33,0.895,25.349z"/>
			<path id="Path_8_" fill="#E8A33D" d="M4.232,31.625l7.192-5.42c0.646,0.777,1.402,1.459,2.245,2.021L9.03,35.947
				C7.201,34.781,5.579,33.316,4.232,31.625z"/>
			<path id="Path_9_" fill="#C93278" d="M9.887,36.463l4.639-7.72c0.826,0.444,1.719,0.782,2.66,0.995l-1.564,8.869
				C13.576,38.195,11.646,37.463,9.887,36.463z"/>
			<path id="Path_10_" fill="#DA6F30" d="M16.607,38.781l1.564-8.871c0.436,0.055,0.879,0.084,1.329,0.084
				c0.513,0,1.018-0.037,1.511-0.108l1.719,8.843c-1.051,0.174-2.129,0.267-3.229,0.267C18.517,38.994,17.551,38.921,16.607,38.781z
				"/>
			<path id="Path_11_" fill="#882336" d="M23.711,38.537l-1.718-8.842c0.936-0.228,1.823-0.58,2.642-1.041l4.773,7.639
				C27.665,37.322,25.748,38.09,23.711,38.537z"/>
			<path id="Path_12_" fill="#F1BE46" d="M30.255,35.762l-4.773-7.638c0.782-0.543,1.486-1.189,2.093-1.919l7.192,5.42
				C33.492,33.229,31.968,34.627,30.255,35.762z"/>
			<path id="Path_13_" fill="#4AA5CD" d="M35.371,30.826l-7.193-5.419c0.531-0.778,0.961-1.631,1.269-2.541l8.659,2.483
				C37.483,27.33,36.552,29.174,35.371,30.826z"/>
			<path id="Path_14_" fill="#D34431" d="M38.381,24.388l-8.659-2.483C29.904,21.13,30,20.323,30,19.494
				c0-0.139-0.003-0.278-0.008-0.416l8.972-0.785C38.988,18.69,39,19.09,39,19.494C39,21.184,38.785,22.824,38.381,24.388z"/>
			<path id="Path_15_" fill="#B12934" d="M38.877,17.296l-8.972,0.785c-0.129-0.959-0.388-1.878-0.757-2.737l8.096-3.949
				C38.082,13.228,38.644,15.212,38.877,17.296z"/>
			<path id="Path_16_" fill="#D8D8D8" d="M28.709,14.446c-0.489-0.891-1.104-1.702-1.819-2.412l9.047-9.551
				c1.565,1.484,3.793,4.369,4.799,6.299L28.709,14.446z"/>
			<path id="Path_17_" fill="#CEA539" d="M32.172,4.672l-6.026,6.692c-0.731-0.599-1.544-1.1-2.42-1.486l3.228-8.41
				C28.866,2.261,30.624,3.347,32.172,4.672z"/>
			<path id="Path_18_" fill="#CE2B2F" d="M26.021,1.111l-3.228,8.41C21.908,9.229,20.971,9.051,20,9.005V0
				C22.107,0.053,24.131,0.44,26.021,1.111z"/>
			<path id="Path_19_" fill="#488F3C" d="M41.103,7.932l-12.483,6.36c-0.474-0.828-1.057-1.585-1.73-2.251l9.372-10.409
				C38.197,3.447,39.837,5.574,41.103,7.932z"/>
		</g>
		<path id="The-Defeat-NCD-Partn" fill="#4D4D4D" d="M49.413,50.033h-0.955v-5.021H46.74v-0.818h4.39v0.818h-1.718L49.413,50.033
			L49.413,50.033z M55.373,50.033H54.43v-2.717c0-0.342-0.068-0.596-0.206-0.764c-0.137-0.167-0.354-0.251-0.653-0.251
			c-0.394,0-0.684,0.117-0.869,0.354c-0.185,0.234-0.278,0.631-0.278,1.185v2.192h-0.938v-6.217h0.938v1.578
			c0,0.254-0.016,0.523-0.048,0.812h0.06c0.127-0.213,0.306-0.377,0.533-0.495c0.228-0.117,0.493-0.176,0.797-0.176
			c1.071,0,1.606,0.539,1.606,1.617L55.373,50.033L55.373,50.033z M58.169,50.113c-0.687,0-1.225-0.199-1.612-0.602
			c-0.388-0.402-0.582-0.953-0.582-1.656c0-0.721,0.18-1.287,0.54-1.701c0.359-0.413,0.854-0.619,1.482-0.619
			c0.583,0,1.044,0.178,1.382,0.531s0.507,0.841,0.507,1.461v0.509h-2.944c0.013,0.43,0.129,0.759,0.348,0.987
			c0.218,0.23,0.526,0.347,0.923,0.347c0.261,0,0.504-0.022,0.729-0.073c0.225-0.05,0.466-0.132,0.725-0.246v0.764
			c-0.229,0.109-0.461,0.187-0.695,0.231C58.738,50.091,58.47,50.113,58.169,50.113z M57.998,46.246
			c-0.298,0-0.537,0.095-0.717,0.283c-0.18,0.189-0.287,0.466-0.322,0.828h2.005c-0.005-0.366-0.093-0.643-0.264-0.83
			C58.53,46.341,58.296,46.246,57.998,46.246z M67.049,47.059c0,0.965-0.268,1.7-0.803,2.211c-0.536,0.51-1.307,0.765-2.313,0.765
			h-1.634v-5.841h1.806c0.93,0,1.653,0.25,2.169,0.752C66.791,45.445,67.049,46.148,67.049,47.059z M66.042,47.09
			c0-1.398-0.653-2.098-1.961-2.098h-0.827v4.238h0.679C65.339,49.23,66.042,48.518,66.042,47.09z M69.693,50.113
			c-0.687,0-1.224-0.199-1.612-0.602c-0.387-0.402-0.581-0.951-0.581-1.656c0-0.721,0.18-1.287,0.539-1.701
			c0.36-0.413,0.854-0.619,1.482-0.619c0.583,0,1.044,0.178,1.382,0.531c0.338,0.353,0.507,0.841,0.507,1.461v0.509h-2.944
			c0.013,0.43,0.128,0.759,0.347,0.987c0.218,0.23,0.526,0.347,0.923,0.347c0.261,0,0.504-0.022,0.729-0.073
			c0.225-0.05,0.466-0.132,0.725-0.246v0.764c-0.229,0.109-0.461,0.187-0.695,0.231C70.262,50.092,69.994,50.113,69.693,50.113z
			 M69.521,46.246c-0.298,0-0.537,0.095-0.717,0.283c-0.18,0.189-0.287,0.466-0.322,0.828h2.005
			c-0.005-0.366-0.093-0.643-0.264-0.83C70.052,46.341,69.82,46.246,69.521,46.246z M74.255,46.326h-1.079v3.707h-0.942v-3.707
			h-0.727v-0.439l0.727-0.287v-0.287c0-0.521,0.122-0.908,0.367-1.16s0.619-0.379,1.123-0.379c0.33,0,0.655,0.055,0.975,0.164
			l-0.248,0.711c-0.231-0.073-0.453-0.11-0.663-0.11c-0.214,0-0.368,0.065-0.465,0.196c-0.097,0.133-0.146,0.33-0.146,0.595v0.287
			h1.079L74.255,46.326L74.255,46.326z M76.496,50.113c-0.688,0-1.225-0.199-1.612-0.602s-0.581-0.953-0.581-1.656
			c0-0.721,0.18-1.287,0.539-1.701c0.36-0.413,0.854-0.619,1.482-0.619c0.583,0,1.044,0.178,1.383,0.531
			c0.337,0.354,0.507,0.841,0.507,1.461v0.509H75.27c0.015,0.43,0.129,0.759,0.349,0.987c0.218,0.23,0.524,0.347,0.923,0.347
			c0.261,0,0.503-0.022,0.729-0.073c0.226-0.05,0.467-0.132,0.726-0.246v0.764c-0.229,0.109-0.461,0.187-0.695,0.231
			C77.066,50.091,76.797,50.113,76.496,50.113z M76.324,46.246c-0.299,0-0.537,0.095-0.717,0.283
			c-0.181,0.189-0.289,0.466-0.321,0.828h2.005c-0.006-0.366-0.094-0.643-0.264-0.83C76.855,46.341,76.622,46.246,76.324,46.246z
			 M81.605,50.033l-0.188-0.615h-0.032c-0.214,0.271-0.428,0.452-0.644,0.55c-0.216,0.099-0.493,0.146-0.83,0.146
			c-0.435,0-0.772-0.118-1.017-0.353c-0.244-0.232-0.367-0.564-0.367-0.994c0-0.455,0.17-0.8,0.509-1.031
			c0.337-0.23,0.853-0.356,1.546-0.379l0.764-0.023V47.1c0-0.283-0.066-0.494-0.197-0.635c-0.133-0.14-0.338-0.209-0.613-0.209
			c-0.227,0-0.443,0.033-0.651,0.1c-0.208,0.065-0.407,0.146-0.6,0.235L78.98,45.92c0.24-0.126,0.502-0.22,0.787-0.286
			c0.285-0.065,0.553-0.098,0.808-0.098c0.562,0,0.985,0.122,1.272,0.368c0.284,0.244,0.428,0.629,0.428,1.154v2.976L81.605,50.033
			L81.605,50.033z M80.207,49.395c0.341,0,0.613-0.096,0.82-0.285s0.311-0.457,0.311-0.801v-0.385l-0.566,0.024
			c-0.442,0.016-0.765,0.09-0.965,0.222c-0.201,0.132-0.303,0.334-0.303,0.605c0,0.197,0.059,0.35,0.176,0.457
			C79.797,49.341,79.973,49.395,80.207,49.395z M84.792,49.354c0.229,0,0.459-0.035,0.688-0.106v0.707
			c-0.104,0.046-0.237,0.083-0.401,0.112c-0.164,0.031-0.334,0.047-0.511,0.047c-0.889,0-1.334-0.469-1.334-1.406v-2.381h-0.604
			v-0.415l0.646-0.345l0.32-0.935h0.578v0.982h1.26v0.711h-1.26v2.364c0,0.227,0.059,0.395,0.17,0.502
			C84.46,49.301,84.607,49.354,84.792,49.354z M94.619,50.033h-1.171l-2.872-4.653h-0.032l0.021,0.261
			c0.037,0.494,0.057,0.947,0.057,1.356v3.036h-0.867v-5.84h1.158l2.863,4.63H93.8c-0.005-0.062-0.016-0.284-0.032-0.669
			c-0.016-0.387-0.022-0.687-0.022-0.901v-3.06h0.875L94.619,50.033L94.619,50.033z M98.206,44.928
			c-0.548,0-0.979,0.194-1.294,0.584c-0.314,0.391-0.473,0.926-0.473,1.609c0,0.718,0.151,1.259,0.453,1.626
			c0.303,0.367,0.74,0.552,1.312,0.552c0.248,0,0.486-0.023,0.719-0.074c0.232-0.05,0.475-0.111,0.725-0.188v0.817
			c-0.459,0.174-0.978,0.261-1.56,0.261c-0.854,0-1.511-0.261-1.969-0.776c-0.458-0.518-0.688-1.259-0.688-2.224
			c0-0.607,0.112-1.14,0.334-1.595c0.223-0.455,0.545-0.805,0.965-1.047c0.422-0.24,0.914-0.363,1.481-0.363
			c0.599,0,1.147,0.127,1.654,0.375l-0.345,0.795c-0.196-0.094-0.404-0.176-0.625-0.244C98.68,44.964,98.448,44.928,98.206,44.928z
			 M105.217,47.059c0,0.965-0.268,1.7-0.803,2.211c-0.535,0.51-1.307,0.765-2.312,0.765h-1.635v-5.841h1.807
			c0.929,0,1.651,0.25,2.17,0.752C104.958,45.445,105.217,46.148,105.217,47.059z M104.21,47.09c0-1.398-0.653-2.098-1.961-2.098
			h-0.827v4.238h0.68C103.507,49.23,104.21,48.518,104.21,47.09z M111.584,45.959c0,0.609-0.2,1.076-0.6,1.402
			c-0.399,0.324-0.969,0.486-1.707,0.486h-0.605v2.186h-0.955v-5.84h1.682c0.73,0,1.276,0.148,1.641,0.447
			C111.402,44.938,111.584,45.378,111.584,45.959z M108.672,47.046h0.508c0.489,0,0.85-0.086,1.078-0.256s0.344-0.438,0.344-0.799
			c0-0.337-0.104-0.587-0.309-0.751c-0.204-0.166-0.523-0.248-0.958-0.248h-0.663V47.046z M114.977,50.033l-0.188-0.615h-0.031
			c-0.213,0.271-0.428,0.452-0.644,0.55c-0.217,0.099-0.492,0.146-0.831,0.146c-0.435,0-0.772-0.118-1.017-0.353
			c-0.244-0.232-0.365-0.564-0.365-0.994c0-0.455,0.168-0.8,0.507-1.031c0.339-0.23,0.854-0.356,1.546-0.379l0.764-0.023V47.1
			c0-0.283-0.066-0.494-0.197-0.635c-0.133-0.14-0.336-0.209-0.613-0.209c-0.227,0-0.443,0.033-0.65,0.1
			c-0.208,0.065-0.408,0.146-0.6,0.235l-0.305-0.671c0.24-0.126,0.504-0.22,0.787-0.286c0.284-0.065,0.555-0.098,0.807-0.098
			c0.562,0,0.986,0.122,1.272,0.368c0.287,0.244,0.431,0.629,0.431,1.154v2.976L114.977,50.033L114.977,50.033z M113.577,49.395
			c0.341,0,0.614-0.096,0.821-0.285c0.205-0.189,0.31-0.457,0.31-0.801v-0.385l-0.567,0.024c-0.441,0.016-0.765,0.09-0.965,0.222
			c-0.201,0.132-0.302,0.334-0.302,0.605c0,0.197,0.06,0.35,0.176,0.457C113.167,49.341,113.343,49.395,113.577,49.395z
			 M118.758,45.535c0.189,0,0.346,0.015,0.467,0.04l-0.092,0.875c-0.133-0.032-0.271-0.048-0.415-0.048
			c-0.376,0-0.68,0.121-0.913,0.367c-0.231,0.246-0.35,0.562-0.35,0.955v2.309h-0.938v-4.418h0.733l0.124,0.779h0.048
			c0.147-0.265,0.338-0.475,0.573-0.629C118.232,45.613,118.484,45.535,118.758,45.535z M121.25,49.354
			c0.229,0,0.459-0.035,0.688-0.106v0.707c-0.104,0.046-0.237,0.083-0.4,0.112c-0.164,0.031-0.334,0.047-0.51,0.047
			c-0.889,0-1.334-0.469-1.334-1.406v-2.381h-0.604v-0.415l0.647-0.345l0.318-0.935h0.579v0.982h1.259v0.711h-1.259v2.364
			c0,0.227,0.058,0.395,0.171,0.502C120.919,49.301,121.066,49.354,121.25,49.354z M126.268,50.033h-0.941v-2.717
			c0-0.342-0.068-0.596-0.206-0.764c-0.138-0.167-0.354-0.251-0.653-0.251c-0.396,0-0.688,0.117-0.871,0.353
			c-0.184,0.232-0.275,0.627-0.275,1.178v2.201h-0.938v-4.418h0.734l0.133,0.578h0.048c0.134-0.209,0.321-0.373,0.565-0.486
			c0.246-0.113,0.519-0.172,0.816-0.172c1.061,0,1.59,0.539,1.59,1.617v2.881H126.268z M129.064,50.113
			c-0.688,0-1.226-0.199-1.612-0.602c-0.388-0.402-0.581-0.953-0.581-1.656c0-0.721,0.18-1.287,0.539-1.701
			c0.359-0.413,0.854-0.619,1.482-0.619c0.582,0,1.043,0.178,1.381,0.531s0.509,0.841,0.509,1.461v0.509h-2.944
			c0.014,0.43,0.129,0.759,0.348,0.987c0.219,0.23,0.525,0.347,0.924,0.347c0.26,0,0.502-0.022,0.729-0.073
			c0.225-0.05,0.467-0.132,0.727-0.246v0.764c-0.23,0.109-0.463,0.187-0.695,0.231C129.632,50.092,129.363,50.113,129.064,50.113z
			 M128.893,46.246c-0.299,0-0.537,0.095-0.718,0.283c-0.18,0.189-0.286,0.466-0.321,0.828h2.006
			c-0.006-0.366-0.094-0.643-0.264-0.83C129.425,46.341,129.189,46.246,128.893,46.246z M133.65,45.535
			c0.188,0,0.343,0.015,0.467,0.04l-0.092,0.875c-0.135-0.032-0.271-0.048-0.416-0.048c-0.375,0-0.682,0.121-0.912,0.367
			c-0.233,0.246-0.35,0.562-0.35,0.955v2.309h-0.938v-4.418h0.733l0.125,0.779h0.047c0.146-0.265,0.338-0.475,0.574-0.629
			C133.125,45.613,133.379,45.535,133.65,45.535z M137.464,48.775c0,0.432-0.155,0.763-0.471,0.992s-0.765,0.346-1.351,0.346
			c-0.588,0-1.062-0.09-1.418-0.268v-0.812c0.52,0.239,1.002,0.358,1.449,0.358c0.578,0,0.866-0.174,0.866-0.522
			c0-0.112-0.031-0.206-0.097-0.279c-0.062-0.073-0.168-0.151-0.314-0.231s-0.352-0.17-0.611-0.271
			c-0.508-0.197-0.853-0.395-1.031-0.591c-0.18-0.198-0.271-0.454-0.271-0.769c0-0.377,0.152-0.67,0.457-0.881
			c0.306-0.209,0.72-0.312,1.244-0.312c0.521,0,1.011,0.105,1.476,0.314l-0.305,0.707c-0.477-0.197-0.878-0.295-1.203-0.295
			c-0.494,0-0.742,0.143-0.742,0.424c0,0.138,0.064,0.256,0.193,0.352c0.129,0.097,0.41,0.229,0.846,0.396
			c0.363,0.143,0.629,0.27,0.795,0.387c0.164,0.119,0.287,0.253,0.367,0.406S137.464,48.562,137.464,48.775z M141.926,50.033h-0.943
			v-2.717c0-0.342-0.066-0.596-0.205-0.764c-0.137-0.167-0.354-0.251-0.652-0.251c-0.395,0-0.684,0.117-0.869,0.354
			c-0.184,0.234-0.277,0.631-0.277,1.185v2.192h-0.938v-6.217h0.938v1.578c0,0.254-0.017,0.523-0.047,0.812h0.06
			c0.128-0.213,0.306-0.377,0.532-0.495c0.229-0.117,0.494-0.176,0.797-0.176c1.07,0,1.607,0.539,1.607,1.617v2.881H141.926z
			 M143.73,50.033h-0.938v-4.418h0.938V50.033z M142.736,44.443c0-0.166,0.046-0.297,0.138-0.387s0.224-0.136,0.394-0.136
			c0.166,0,0.295,0.046,0.387,0.136s0.138,0.221,0.138,0.387c0,0.16-0.046,0.287-0.138,0.379s-0.221,0.138-0.387,0.138
			c-0.17,0-0.302-0.046-0.394-0.138S142.736,44.604,142.736,44.443z M146.875,50.113c-0.561,0-0.993-0.201-1.303-0.604h-0.057
			c0.039,0.374,0.057,0.601,0.057,0.681v1.81h-0.938v-6.384h0.759c0.022,0.082,0.066,0.279,0.133,0.591h0.048
			c0.294-0.447,0.733-0.671,1.317-0.671c0.553,0,0.981,0.199,1.289,0.6c0.307,0.399,0.461,0.961,0.461,1.682
			c0,0.722-0.156,1.285-0.47,1.689C147.857,49.912,147.426,50.113,146.875,50.113z M146.646,46.303
			c-0.373,0-0.646,0.109-0.816,0.327s-0.258,0.567-0.258,1.047v0.14c0,0.537,0.086,0.928,0.256,1.17
			c0.17,0.24,0.449,0.361,0.835,0.361c0.325,0,0.575-0.135,0.751-0.399s0.264-0.646,0.264-1.14c0-0.494-0.088-0.871-0.262-1.125
			C147.242,46.432,146.984,46.303,146.646,46.303z"/>
		<rect id="Rectangle-3" x="85.604" y="46.842" fill="#4D4D4D" width="3.066" height="1.022"/>
	</g>
</g>
</svg>
