<?xml version="1.0" encoding="UTF-8"?>
<svg width="198px" height="150px" viewBox="0 0 198 150" version="1.1" xmlns="http://www.w3.org/2000/svg" xmlns:xlink="http://www.w3.org/1999/xlink">
    <!-- Generator: Sketch 53.2 (72643) - https://sketchapp.com -->
    <title>Group 10</title>
    <desc>Created with Sketch.</desc>
    <defs>
        <polygon id="path-1" points="5.19718496e-12 0 100.671141 0 100.671141 122.818792 0 122.818792"></polygon>
        <mask id="mask-2" maskContentUnits="userSpaceOnUse" maskUnits="objectBoundingBox" x="0" y="0" width="100.671141" height="122.818792" fill="white">
            <use xlink:href="#path-1"></use>
        </mask>
    </defs>
    <g id="Search-page" stroke="none" stroke-width="1" fill="none" fill-rule="evenodd">
        <g id="Group-10">
            <g id="Group-9" transform="translate(0.000000, 27.181208)" stroke="#C2C2C2" stroke-dasharray="6,4">
                <use id="Rectangle" mask="url(#mask-2)" stroke-width="4" xlink:href="#path-1"></use>
                <path d="M13.0872483,16.6107383 L89.5973154,16.6107383" id="Path-4" stroke-width="2"></path>
                <path d="M13.0872483,30.704698 L89.5973154,30.704698" id="Path-4" stroke-width="2"></path>
                <path d="M13.0872483,46.8120805 L89.5973154,46.8120805" id="Path-4" stroke-width="2"></path>
                <path d="M13.0872483,61.9127517 L89.5973154,61.9127517" id="Path-4-Copy" stroke-width="2"></path>
                <path d="M13.1282649,78.0201342 L89.638332,78.0201342" id="Path-4-Copy-3" stroke-width="2"></path>
                <path d="M13.1282649,93.1208054 L89.638332,93.1208054" id="Path-4-Copy-2" stroke-width="2"></path>
            </g>
            <path d="M146.638629,95.5158662 L139.727232,88.6467974 C148.21089,79.238452 153.386249,66.8025076 153.386249,53.1945894 C153.386249,23.8626891 129.376513,2.18847163e-12 99.8638645,2.18847163e-12 C70.3512157,2.18847163e-12 46.3087248,23.8626891 46.3087248,53.1945894 C46.3087248,82.5264897 70.3184602,106.389179 99.8311091,106.389179 C113.522882,106.389179 126.002703,101.245516 135.50178,92.8138154 L142.413177,99.6828842 L146.638629,95.5158662 Z M52.2702144,53.1945894 C52.2702144,27.118172 73.6267594,5.89242392 99.8638645,5.89242392 C126.10097,5.89242392 147.457515,27.118172 147.457515,53.1945894 C147.457515,79.2710068 126.10097,100.496755 99.8638645,100.496755 C73.6267594,100.496755 52.2702144,79.2710068 52.2702144,53.1945894 Z" id="Shape" fill="#212124" fill-rule="nonzero"></path>
            <path d="M195.98843,139.904953 L187.286564,148.575323 C186.565944,149.291529 185.648792,149.682187 184.633374,149.682187 C183.617955,149.682187 182.700803,149.291529 181.980183,148.575323 L137.596566,104.463531 L151.604813,90.5192783 L195.98843,134.631071 C196.70905,135.347277 197.102115,136.258812 197.102115,137.268012 C197.102115,138.277211 196.676294,139.221301 195.98843,139.904953 Z" id="Path" fill="#212124" fill-rule="nonzero"></path>
        </g>
    </g>
</svg>