<?xml version="1.0" encoding="UTF-8"?>
<svg width="40px" height="40px" viewBox="0 0 40 40" version="1.1" xmlns="http://www.w3.org/2000/svg" xmlns:xlink="http://www.w3.org/1999/xlink">
    <!-- Generator: sketchtool 52.5 (67469) - http://www.bohemiancoding.com/sketch -->
    <title>CD417F43-A46F-473F-8E84-D6347C6AC426</title>
    <desc>Created with sketchtool.</desc>
    <g id="Seller-Order-History" stroke="none" stroke-width="1" fill="none" fill-rule="evenodd">
        <g id="Seller-order-detail" transform="translate(-1155.000000, -175.000000)">
            <g id="Group" transform="translate(1156.000000, 176.000000)">
                <circle id="Oval" stroke="#FF5A61" fill-rule="nonzero" cx="19" cy="19" r="19"></circle>
                <circle id="Oval-Copy-2" fill="#FF5A61" fill-rule="nonzero" cx="19" cy="19" r="15"></circle>
                <path d="M25.9599609,15.6728516 C26.2431655,15.6728516 26.4873037,15.7753896 26.6923828,15.9804688 C26.897462,16.1855479 27,16.4296861 27,16.7128906 L27,23.0703125 C27,23.3632827 26.897462,23.6123037 26.6923828,23.8173828 C26.4873037,24.022462 26.2431655,24.125 25.9599609,24.125 L24.1875,24.125 L24.1875,26.9375 L14.8125,26.9375 L14.8125,24.125 L13.0400391,24.125 C12.7568345,24.125 12.5126963,24.022462 12.3076172,23.8173828 C12.102538,23.6123037 12,23.3632827 12,23.0703125 L12,16.7128906 C12,16.4296861 12.102538,16.1855479 12.3076172,15.9804688 C12.5126963,15.7753896 12.7568345,15.6728516 13.0400391,15.6728516 L14.8125,15.6728516 L14.8125,11.9375 L24.1875,11.9375 L24.1875,15.6728516 L25.9599609,15.6728516 Z M15.75,12.8603516 L15.75,15.6728516 L23.25,15.6728516 L23.25,12.8603516 L15.75,12.8603516 Z M23.25,26 L23.25,20.8291016 L15.75,20.8291016 L15.75,26 L23.25,26 Z M26.0625,23.0703125 L26.0625,16.7128906 C26.0625,16.6835936 26.0527345,16.6591798 26.0332031,16.6396484 C26.0136718,16.6201171 25.989258,16.6103516 25.9599609,16.6103516 L13.0400391,16.6103516 C13.010742,16.6103516 12.9863282,16.6201171 12.9667969,16.6396484 C12.9472655,16.6591798 12.9375,16.6835936 12.9375,16.7128906 L12.9375,23.0703125 C12.9375,23.0996095 12.9472655,23.1240233 12.9667969,23.1435547 C12.9863282,23.163086 13.010742,23.1728516 13.0400391,23.1728516 L14.8125,23.1728516 L14.8125,19.8916016 L24.1875,19.8916016 L24.1875,23.1875 L25.9599609,23.1875 C25.989258,23.1875 26.0136718,23.1752931 26.0332031,23.1508789 C26.0527345,23.1264647 26.0625,23.0996095 26.0625,23.0703125 Z M24.1875,17.5478516 C24.3144538,17.5478516 24.4243159,17.5942378 24.5170898,17.6870117 C24.6098637,17.7797856 24.65625,17.8896478 24.65625,18.0166016 C24.65625,18.153321 24.6098637,18.2656246 24.5170898,18.3535156 C24.4243159,18.4414067 24.3144538,18.4853516 24.1875,18.4853516 L23.71875,18.4853516 C23.5917962,18.4853516 23.4819341,18.4414067 23.3891602,18.3535156 C23.2963863,18.2656246 23.25,18.153321 23.25,18.0166016 C23.25,17.8896478 23.2963863,17.7797856 23.3891602,17.6870117 C23.4819341,17.5942378 23.5917962,17.5478516 23.71875,17.5478516 L24.1875,17.5478516 Z" id="printer---simple-line-icons" fill="#FFFFFF"></path>
            </g>
        </g>
    </g>
</svg>