<?xml version="1.0" encoding="utf-8"?>
<!-- Generator: Adobe Illustrator 16.0.0, SVG Export Plug-In . SVG Version: 6.00 Build 0)  -->
<!DOCTYPE svg PUBLIC "-//W3C//DTD SVG 1.1//EN" "http://www.w3.org/Graphics/SVG/1.1/DTD/svg11.dtd">
<svg version="1.1" id="Layer_1" xmlns="http://www.w3.org/2000/svg" xmlns:xlink="http://www.w3.org/1999/xlink" x="0px" y="0px"
	 width="30px" height="30px" viewBox="0 0 30 30" enable-background="new 0 0 30 30" xml:space="preserve">
<g>
	<path d="M14.382,17.134c0-0.478-0.388-0.863-0.865-0.863c-0.476,0-0.863,0.386-0.863,0.863c0,1.413,1.215,2.599,2.844,2.914v0.834
		c0,0.478,0.387,0.866,0.863,0.866c0.478,0,0.863-0.389,0.863-0.866v-0.834c1.63-0.315,2.845-1.501,2.845-2.914
		s-1.215-2.6-2.845-2.916v-2.484c0.65,0.214,1.118,0.652,1.118,1.133c0,0.478,0.387,0.864,0.863,0.864
		c0.478,0,0.863-0.387,0.863-0.864c0-1.412-1.215-2.598-2.845-2.914V9.117c0-0.478-0.386-0.864-0.863-0.864
		c-0.477,0-0.863,0.387-0.863,0.864v0.835c-1.629,0.316-2.844,1.502-2.844,2.914c0,1.413,1.215,2.6,2.844,2.915v2.486
		C14.849,18.054,14.382,17.615,14.382,17.134z M17.225,16c0.65,0.213,1.118,0.651,1.118,1.134c0,0.481-0.468,0.92-1.118,1.134V16z
		 M14.382,12.866c0-0.48,0.467-0.919,1.116-1.133V14C14.849,13.786,14.382,13.347,14.382,12.866z"/>
	<path d="M26.17,5.65H4.537c-0.477,0-0.864,0.388-0.864,0.863c0,0.478,0.387,0.865,0.864,0.865h20.77v15.243H10.073
		c-2.478,0-4.635-3.124-3.755-5.121c0.479-1.088,1.004-1.562,1.386-1.771l-0.758,2.295l4.986-3.102l-4.986-3.101l0.742,2.248
		c-0.873,0.039-2.338,0.236-3.216,1.116c-1.303,1.304-1.436,3.671-1.436,5.267c0,1.595,0.624,3.896,3.876,3.896H26.17
		c0.477,0,0.865-0.387,0.865-0.864V6.514C27.035,6.038,26.646,5.65,26.17,5.65z"/>
</g>
</svg>
