<svg width="12" height="12" viewBox="0 0 12 12" fill="none" xmlns="http://www.w3.org/2000/svg">
<path fill-rule="evenodd" clip-rule="evenodd" d="M7.80667 7.33333H8.33333L11.66 10.6667L10.6667 11.66L7.33333 8.33333V7.80667L7.15333 7.62C6.39333 8.27333 5.40667 8.66667 4.33333 8.66667C1.94 8.66667 0 6.72667 0 4.33333C0 1.94 1.94 0 4.33333 0C6.72667 0 8.66667 1.94 8.66667 4.33333C8.66667 5.40667 8.27333 6.39333 7.62 7.15333L7.80667 7.33333ZM1.33333 4.33333C1.33333 5.99333 2.67333 7.33333 4.33333 7.33333C5.99333 7.33333 7.33333 5.99333 7.33333 4.33333C7.33333 2.67333 5.99333 1.33333 4.33333 1.33333C2.67333 1.33333 1.33333 2.67333 1.33333 4.33333Z" fill="#9D9D9C"/>
</svg>
