<?xml version="1.0" encoding="utf-8"?>
<!-- Generator: Adobe Illustrator 16.0.3, SVG Export Plug-In . SVG Version: 6.00 Build 0)  -->
<!DOCTYPE svg PUBLIC "-//W3C//DTD SVG 1.1//EN" "http://www.w3.org/Graphics/SVG/1.1/DTD/svg11.dtd" [
	<!ENTITY ns_extend "http://ns.adobe.com/Extensibility/1.0/">
	<!ENTITY ns_ai "http://ns.adobe.com/AdobeIllustrator/10.0/">
	<!ENTITY ns_graphs "http://ns.adobe.com/Graphs/1.0/">
	<!ENTITY ns_vars "http://ns.adobe.com/Variables/1.0/">
	<!ENTITY ns_imrep "http://ns.adobe.com/ImageReplacement/1.0/">
	<!ENTITY ns_sfw "http://ns.adobe.com/SaveForWeb/1.0/">
	<!ENTITY ns_custom "http://ns.adobe.com/GenericCustomNamespace/1.0/">
	<!ENTITY ns_adobe_xpath "http://ns.adobe.com/XPath/1.0/">
]>
<svg version="1.1" id="Layer_1" xmlns:x="&ns_extend;" xmlns:i="&ns_ai;" xmlns:graph="&ns_graphs;"
	 xmlns="http://www.w3.org/2000/svg" xmlns:xlink="http://www.w3.org/1999/xlink" x="0px" y="0px" width="19.802px"
	 height="19.807px" viewBox="0 0 19.802 19.807" enable-background="new 0 0 19.802 19.807" xml:space="preserve">
<metadata>
	<sfw  xmlns="&ns_sfw;">
		<slices></slices>
		<sliceSourceBounds  height="37.666" width="82.912" y="-337.95" x="229.737" bottomLeftOrigin="true"></sliceSourceBounds>
	</sfw>
</metadata>
<g>
	<g>
		<path fill="#193C88" d="M14.748,19.807c-1.351,0-2.62-0.526-3.575-1.481L1.479,8.631c-1.971-1.971-1.971-5.179,0-7.15
			C2.434,0.526,3.704,0,5.054,0c1.351,0,2.62,0.526,3.575,1.481l9.694,9.695c1.972,1.971,1.972,5.179,0,7.15
			C17.369,19.281,16.099,19.807,14.748,19.807z M5.054,1.014c-1.08,0-2.095,0.42-2.858,1.184c-1.577,1.576-1.577,4.141,0,5.717
			l9.695,9.695c0.763,0.764,1.778,1.184,2.858,1.184c1.08,0,2.095-0.421,2.859-1.185c1.576-1.576,1.576-4.141,0-5.716L7.912,2.198
			C7.148,1.434,6.134,1.014,5.054,1.014z"/>
	</g>
	<g>
		<path fill="#193C88" d="M17.965,11.534l-4.848-4.847L6.685,13.12l4.847,4.848c1.776,1.776,4.657,1.776,6.434,0
			C19.742,16.191,19.742,13.311,17.965,11.534z"/>
	</g>
	<g>
		<circle fill="#193C88" cx="6.198" cy="6.2" r="1.351"/>
	</g>
	<g>
		<circle fill="#193C88" cx="6.198" cy="3.115" r="0.522"/>
	</g>
	<g>
		<circle fill="#193C88" cx="9.282" cy="6.2" r="0.522"/>
	</g>
	<g>
		<circle fill="#193C88" cx="3.113" cy="6.2" r="0.522"/>
	</g>
	<g>
		<circle fill="#193C88" cx="6.198" cy="9.285" r="0.522"/>
	</g>
</g>
</svg>
