<?xml version="1.0" encoding="utf-8"?>
<!-- Generator: Adobe Illustrator 16.0.0, SVG Export Plug-In . SVG Version: 6.00 Build 0)  -->
<!DOCTYPE svg PUBLIC "-//W3C//DTD SVG 1.1//EN" "http://www.w3.org/Graphics/SVG/1.1/DTD/svg11.dtd">
<svg version="1.1" id="Layer_1" xmlns="http://www.w3.org/2000/svg" xmlns:xlink="http://www.w3.org/1999/xlink" x="0px" y="0px"
	 width="40px" height="40px" viewBox="0 0 40 40" enable-background="new 0 0 40 40" xml:space="preserve">
<rect fill="#B4B4B4" width="40" height="40"/>
<g>
	<path fill="#787878" d="M35.045,36.104c-0.395,0-0.789-0.147-1.092-0.446L4.718,6.504C4.106,5.901,4.097,4.916,4.7,4.303
		c0.604-0.613,1.591-0.62,2.202-0.017l29.237,29.151c0.611,0.604,0.618,1.59,0.016,2.203C35.852,35.949,35.447,36.104,35.045,36.104
		z"/>
</g>
<g>
	<circle fill="#787878" cx="16.823" cy="30.932" r="3.178"/>
</g>
<g>
	<circle fill="#787878" cx="29.23" cy="30.932" r="3.178"/>
</g>
<polyline fill="none" stroke="#787878" stroke-width="3" stroke-linecap="round" stroke-linejoin="round" stroke-miterlimit="10" points="
	4.816,11.216 8.925,11.216 11.667,26.68 32.08,26.68 35.184,13.08 14.554,13.08 "/>
</svg>
