<?xml version="1.0" encoding="utf-8"?>
<!-- Generator: Adobe Illustrator 16.0.0, SVG Export Plug-In . SVG Version: 6.00 Build 0)  -->
<!DOCTYPE svg PUBLIC "-//W3C//DTD SVG 1.1//EN" "http://www.w3.org/Graphics/SVG/1.1/DTD/svg11.dtd">
<svg version="1.1" id="Layer_1" xmlns="http://www.w3.org/2000/svg" xmlns:xlink="http://www.w3.org/1999/xlink" x="0px" y="0px"
	 width="64px" height="36px" viewBox="0 10.619 64 36" enable-background="new 0 10.619 64 36" xml:space="preserve">
<path fill="#231F20" d="M7.438,27.326c-1.338-0.495-2.071-0.88-2.071-1.485c0-0.513,0.421-0.806,1.173-0.806
	c1.375,0,2.787,0.531,3.758,1.008l0.55-3.392c-0.77-0.366-2.346-0.971-4.528-0.971c-1.54,0-2.823,0.403-3.74,1.155
	c-0.953,0.788-1.448,1.925-1.448,3.3c0,2.493,1.521,3.556,3.996,4.455c1.595,0.568,2.127,0.971,2.127,1.596
	c0,0.604-0.513,0.953-1.448,0.953c-1.155,0-3.062-0.566-4.309-1.303l-0.55,3.43c1.064,0.604,3.044,1.229,5.097,1.229
	c1.632,0,2.988-0.386,3.905-1.118c1.027-0.809,1.558-1.999,1.558-3.539C11.507,29.288,9.948,28.225,7.438,27.326 M20.461,25.328
	l0.55-3.373h-2.904V17.86l-3.904,0.642l-0.563,3.453l-1.373,0.222l-0.514,3.151h1.881v6.618c0,1.724,0.44,2.915,1.338,3.647
	c0.752,0.604,1.834,0.897,3.355,0.897c1.174,0,1.889-0.202,2.384-0.33v-3.573c-0.275,0.073-0.899,0.202-1.32,0.202
	c-0.898,0-1.283-0.459-1.283-1.504v-5.958H20.461z M29.18,21.758c-1.284,0-2.31,0.673-2.714,1.883l-0.274-1.686h-3.978v14.264h4.547
	V26.96c0.568-0.697,1.375-0.949,2.476-0.949c0.237,0,0.495,0,0.806,0.055v-4.198C29.731,21.794,29.456,21.758,29.18,21.758
	 M33.434,20.543c1.32,0,2.385-1.082,2.385-2.402c0-1.338-1.064-2.401-2.385-2.401c-1.338,0-2.401,1.063-2.401,2.401
	C31.032,19.461,32.095,20.543,33.434,20.543 M31.141,21.955h4.566v14.264h-4.566V21.955z M48.643,23.238
	c-0.807-1.045-1.924-1.558-3.354-1.558c-1.32,0-2.477,0.55-3.557,1.705l-0.238-1.43h-3.996v19.543l4.547-0.752v-4.583
	c0.695,0.22,1.41,0.33,2.053,0.33c1.139,0,2.787-0.293,4.07-1.688c1.229-1.338,1.854-3.41,1.854-6.141
	C50.018,26.245,49.559,24.411,48.643,23.238 M44.867,32.038c-0.367,0.696-0.936,1.063-1.596,1.063c-0.457,0-0.861-0.093-1.229-0.274
	v-6.784c0.771-0.807,1.467-0.898,1.723-0.898c1.156,0,1.725,1.246,1.725,3.685C45.49,30.223,45.289,31.305,44.867,32.038
	 M63.053,28.958c0-2.273-0.494-4.07-1.467-5.335c-0.99-1.283-2.475-1.943-4.363-1.943c-3.867,0-6.27,2.86-6.27,7.443
	c0,2.566,0.641,4.492,1.906,5.721c1.137,1.1,2.77,1.649,4.877,1.649c1.939,0,3.736-0.458,4.877-1.21l-0.496-3.117
	c-1.119,0.604-2.42,0.936-3.887,0.936c-0.883,0-1.484-0.184-1.928-0.566c-0.477-0.403-0.752-1.062-0.842-1.998h7.535
	C63.016,30.314,63.053,29.288,63.053,28.958 M55.426,27.748c0.129-2.035,0.68-2.988,1.727-2.988c1.023,0,1.559,0.971,1.631,2.988
	H55.426z"/>
</svg>
