<?xml version="1.0" encoding="UTF-8"?>
<svg width="15px" height="15px" viewBox="0 0 15 15" version="1.1" xmlns="http://www.w3.org/2000/svg" xmlns:xlink="http://www.w3.org/1999/xlink">
    <!-- Generator: Sketch 54.1 (76490) - https://sketchapp.com -->
    <title></title>
    <desc>Created with Sketch.</desc>
    <g id="Store-front" stroke="none" stroke-width="1" fill="none" fill-rule="evenodd">
        <g id="Playbook-page" transform="translate(-1058.000000, -172.000000)" fill="#202023" fill-rule="nonzero">
            <path d="M1061.225,178.381 C1061.80767,179.495672 1062.54866,180.502662 1063.448,181.402 C1064.34734,182.301338 1065.35433,183.04233 1066.469,183.625 L1068.217,181.877 C1068.31833,181.762999 1068.445,181.687 1068.597,181.649 C1068.749,181.611 1068.89467,181.623666 1069.034,181.687 C1069.87,181.978335 1070.80733,182.124 1071.846,182.124 C1072.06133,182.124 1072.245,182.199999 1072.397,182.352 C1072.549,182.504001 1072.625,182.687666 1072.625,182.903 L1072.625,185.696 C1072.625,185.911334 1072.549,186.094999 1072.397,186.247 C1072.245,186.399001 1072.06133,186.475 1071.846,186.475 C1070.02199,186.475 1068.27401,186.120337 1066.602,185.411 C1064.99333,184.726997 1063.56834,183.76434 1062.327,182.523 C1061.08566,181.28166 1060.123,179.856675 1059.439,178.248 C1058.72966,176.575992 1058.375,174.828009 1058.375,173.004 C1058.375,172.788666 1058.451,172.605001 1058.603,172.453 C1058.755,172.300999 1058.93867,172.225 1059.154,172.225 L1061.947,172.225 C1062.16233,172.225 1062.346,172.300999 1062.498,172.453 C1062.65,172.605001 1062.726,172.788666 1062.726,173.004 C1062.726,174.042672 1062.87167,174.979996 1063.163,175.816 C1063.201,175.955334 1063.20733,176.100999 1063.182,176.253 C1063.15667,176.405001 1063.087,176.531666 1062.973,176.633 L1061.225,178.381 Z" id=""></path>
        </g>
    </g>
</svg>