<?xml version="1.0" encoding="utf-8"?>
<!-- Generator: Adobe Illustrator 16.0.3, SVG Export Plug-In . SVG Version: 6.00 Build 0)  -->
<!DOCTYPE svg PUBLIC "-//W3C//DTD SVG 1.1//EN" "http://www.w3.org/Graphics/SVG/1.1/DTD/svg11.dtd" [
	<!ENTITY ns_extend "http://ns.adobe.com/Extensibility/1.0/">
	<!ENTITY ns_ai "http://ns.adobe.com/AdobeIllustrator/10.0/">
	<!ENTITY ns_graphs "http://ns.adobe.com/Graphs/1.0/">
	<!ENTITY ns_vars "http://ns.adobe.com/Variables/1.0/">
	<!ENTITY ns_imrep "http://ns.adobe.com/ImageReplacement/1.0/">
	<!ENTITY ns_sfw "http://ns.adobe.com/SaveForWeb/1.0/">
	<!ENTITY ns_custom "http://ns.adobe.com/GenericCustomNamespace/1.0/">
	<!ENTITY ns_adobe_xpath "http://ns.adobe.com/XPath/1.0/">
]>
<svg version="1.1" id="Layer_1" xmlns:x="&ns_extend;" xmlns:i="&ns_ai;" xmlns:graph="&ns_graphs;"
	 xmlns="http://www.w3.org/2000/svg" xmlns:xlink="http://www.w3.org/1999/xlink" x="0px" y="0px" width="68.167px"
	 height="68.167px" viewBox="1239.249 966.583 68.167 68.167" enable-background="new 1239.249 966.583 68.167 68.167"
	 xml:space="preserve">
<metadata>
	<sfw  xmlns="&ns_sfw;">
		<slices></slices>
		<sliceSourceBounds  height="349.417" width="165.751" x="718.749" y="47.5" bottomLeftOrigin="true"></sliceSourceBounds>
	</sfw>
</metadata>
<g>
	<circle fill="#DCFFD0" cx="1273.332" cy="1000.666" r="25.667"/>
	<path fill="none" stroke="#6FD55C" stroke-width="2" stroke-miterlimit="10" d="M1304.66,990.005
		c1.139,3.345,1.756,6.931,1.756,10.661c0,18.272-14.812,33.084-33.083,33.084s-33.084-14.812-33.084-33.084
		c0-18.271,14.813-33.083,33.084-33.083c7.39,0,14.213,2.422,19.72,6.517"/>
	<g>
		
			<rect x="1254.241" y="1001.373" transform="matrix(0.7071 0.7071 -0.7071 0.7071 1080.3506 -600.568)" fill="#16AB04" width="21.833" height="5"/>
		
			<rect x="1262.499" y="992.572" transform="matrix(-0.7071 0.7071 -0.7071 -0.7071 2898.7258 789.4651)" fill="#16AB04" width="46.724" height="5"/>
	</g>
</g>
</svg>
