<?xml version="1.0" encoding="utf-8"?>
<!-- Generator: Adobe Illustrator 16.0.0, SVG Export Plug-In . SVG Version: 6.00 Build 0)  -->
<!DOCTYPE svg PUBLIC "-//W3C//DTD SVG 1.1//EN" "http://www.w3.org/Graphics/SVG/1.1/DTD/svg11.dtd">
<svg version="1.1" xmlns="http://www.w3.org/2000/svg" xmlns:xlink="http://www.w3.org/1999/xlink" x="0px" y="0px"
	 width="855.563px" height="312.754px" viewBox="0 0 855.563 312.754" enable-background="new 0 0 855.563 312.754"
	 xml:space="preserve">
<g id="Layer_1">
</g>
<g id="Layer_2">
	<path fill="#08B583" d="M427.27,92.146c-0.045,13.812-7.84,20.986-21.943,20.943c-14.098-0.043-21.847-7.266-21.807-21.078
		c0.04-13.814,7.835-20.988,21.938-20.943C419.562,71.111,427.311,78.332,427.27,92.146z M424.673,281.227h-39.249V127.992h39.249
		V281.227z"/>
	<path fill="#08B583" d="M189.251,37.496c0.125,15.008-8.251,22.896-23.572,23.029c-15.315,0.133-23.825-7.613-23.957-22.619
		c-0.133-15.01,8.244-22.9,23.567-23.031C180.61,14.742,189.118,22.488,189.251,37.496z"/>
	<path fill="#08B583" d="M500.227,231.379c-0.023,6.045-0.034,10.074,0.241,14.104c0.838,7.775,4.29,10.377,17.814,9.553
		l-0.086,27.342c-7.771,0.84-15.542,1.104-24.463,1.078c-19.574-0.061-31.923-7.293-32.727-27.154
		c-0.557-6.912-0.533-14.107-0.504-24.18L461,69.801l39.72,0.123L500.227,231.379z"/>
	<path fill="#08B583" d="M580.514,231.625c-0.018,6.047-0.03,10.076,0.246,14.105c0.838,7.773,4.284,10.371,17.808,9.551
		l-0.085,27.342c-7.771,0.84-15.537,1.105-24.464,1.078c-19.568-0.061-31.922-7.293-32.725-27.154
		c-0.558-6.912-0.534-14.107-0.499-24.178l0.499-162.322l39.719,0.123L580.514,231.625z"/>
	<path fill="#08B583" d="M664.396,92.873c-0.046,13.814-7.84,20.988-21.945,20.941c-14.097-0.043-21.847-7.262-21.806-21.076
		c0.04-13.812,7.835-20.986,21.939-20.943C656.688,71.838,664.435,79.061,664.396,92.873z M661.939,280.791H622.69V127.557h39.249
		V280.791z"/>
	<path fill="#08B583" d="M427.27,92.146c-0.045,13.812-7.84,20.986-21.943,20.943c-14.098-0.043-21.847-7.266-21.807-21.078
		c0.04-13.814,7.835-20.988,21.938-20.943C419.562,71.111,427.311,78.332,427.27,92.146z"/>
	<path fill="#08B583" d="M351.269,127.459c-5.984-0.018-12.665,0.039-18.705,2.367c-8.812,2.85-15.373,8.375-19.708,17.037
		l-0.078-18.883l-39.65,0.072h-0.557v152.715h0.225l39.713,0.123l0.218-70.223c0.125-41.156,18.235-55.701,51.33-53.299v-28.406
		C360.603,128.09,355.874,127.475,351.269,127.459z"/>
	<path fill="#08B583" d="M826.413,282.461c-2.248-16.99-2.787-27.352-2.752-38.865l0.148-49.498
		c0.029-8.348-0.239-16.406-0.792-23.604c-2.22-26.488-18.278-45.242-61.164-45.375c-36.553-0.111-64.53,19.371-65.786,53.906
		l38.565-0.17c1.205-16.688,9.866-25.869,25.696-25.82c15.543,0.045,22.426,7.836,23.544,18.49
		c0.557,5.182,0.544,9.787,0.534,14.395l-0.012,3.166l-9.785-0.033c-55.549-0.168-84.388,18.736-84.492,52.406
		c-0.084,29.07,22.599,44.68,49.082,44.764c14.39,0.043,27.346-2.797,38.02-9.959c0,0,4.179-2.199,8.898-5.451l1.443,11.527
		L826.413,282.461z M754.534,258.352c-14.097-0.045-23.29-6.404-23.25-19.932c0.062-20.146,21.381-27.273,53.036-24.873
		l-0.04,12.375C784.217,247.219,770.651,258.398,754.534,258.352z"/>
	<path fill="#08B583" d="M165.412,70.85c-9.313-0.029-16.059-2.957-19.919-8.611h-3.875l11.345,220.16h24.294l11.346-220.16h-3.124
		C181.598,67.951,174.797,70.877,165.412,70.85z"/>
	<path fill="#08B583" d="M231.654,130.887h-36.662l0.498-11.598h52.544C245.58,126.021,239.017,129.799,231.654,130.887z"/>
	<path fill="#08B583" d="M263.157,111.832H196l0.47-18.41h82.308C276.438,104.107,270.179,110.104,263.157,111.832z"/>
	<path fill="#08B583" d="M290.29,85.965h-93.305l0.492-23.201h108.496C303.576,73.639,297.382,81.084,290.29,85.965z"/>
	<path fill="#08B583" d="M82.67,119.289h52.543l0.498,11.598H99.049C91.687,129.799,85.123,126.021,82.67,119.289z"/>
	<path fill="#08B583" d="M51.926,93.422h82.308l0.47,18.41H67.546C60.524,110.104,54.266,104.107,51.926,93.422z"/>
	<path fill="#08B583" d="M24.729,62.764h108.496l0.492,23.201H40.413C33.32,81.084,27.127,73.639,24.729,62.764z"/>
	<path fill="#08B583" d="M210.939,152.744h-15.127v10.432h15.127c2.785,0,5.042,2.336,5.042,5.219v13.43
		c0,2.883-2.257,5.219-5.042,5.219h-13.86h-3.512h-56.481h-3.459h-13.913c-2.784,0-5.042-2.336-5.042-5.219v-13.43
		c0-2.883,2.258-5.219,5.042-5.219h15.128v-10.432h-15.128c-8.355,0-15.126,7.004-15.126,15.65v13.43
		c0,8.646,6.771,15.652,15.126,15.652h13.913h3.664h56.072h3.716h13.86c8.355,0,15.127-7.006,15.127-15.652v-13.43
		C226.066,159.748,219.295,152.744,210.939,152.744z"/>
	<path fill="#08B583" d="M200.235,187.043h-15.127v10.432h15.127c2.785,0,5.041,2.338,5.041,5.219v13.434
		c0,2.881-2.256,5.217-5.041,5.217h-13.86h-3.512h-35.072h-3.459h-13.915c-2.783,0-5.04-2.336-5.04-5.217v-13.434
		c0-2.881,2.257-5.219,5.04-5.219h15.128v-10.432h-15.128c-8.354,0-15.124,7.006-15.124,15.65v13.434
		c0,8.643,6.77,15.65,15.124,15.65h13.915h3.663h34.662h3.718h13.86c8.354,0,15.126-7.008,15.126-15.65v-13.434
		C215.361,194.049,208.59,187.043,200.235,187.043z"/>
	<path fill="#08B583" d="M189.531,221.346h-15.127v10.432h15.127c2.783,0,5.04,2.336,5.04,5.219v13.432
		c0,2.881-2.257,5.217-5.04,5.217H175.67h-3.511h-13.664h-3.459h-13.913c-2.785,0-5.042-2.336-5.042-5.217v-13.432
		c0-2.883,2.257-5.219,5.042-5.219h15.126v-10.432h-15.126c-8.356,0-15.127,7.004-15.127,15.65v13.432
		c0,8.645,6.771,15.65,15.127,15.65h13.913h3.664h13.254h3.716h13.861c8.354,0,15.125-7.006,15.125-15.65v-13.432
		C204.656,228.35,197.886,221.346,189.531,221.346z"/>
</g>
</svg>
