<svg id="Layer_1" data-name="Layer 1" xmlns="http://www.w3.org/2000/svg" viewBox="0 0 252.66 71.68"><defs><style>.cls-1{fill:#4d4d4d;}.cls-2{fill:none;stroke:#333;stroke-width:2px;}.cls-3{fill:#81a845;}.cls-4{fill:#618c21;}.cls-5{fill:#9fc260;}.cls-6{fill:#6b9924;}.cls-7{fill:#595959;}</style></defs><title>Artboard 1</title><path class="cls-1" d="M77.32,26.37c-.65-2.81-1.4-4.59-2.38-5.56s-2.32-1.3-5.45-1.3H67V45.06c0,4.59.54,4.91,5.29,5.29v1.89H54.69V50.35c4.54-.38,5.08-.7,5.08-5.29V19.51H57.93c-4.42,0-5.4.6-6.21,1.46s-1.56,2.75-2.26,5.45h-2c.22-3.94.54-7.88.65-10.63h1.3c.86,1.24,1.56,1.35,3.07,1.35H74.24a3.57,3.57,0,0,0,3.13-1.35h1.3c0,2.26.32,7,.59,10.47Z"/><path class="cls-1" d="M115.93,52.72c-.32,0-1,0-1.62,0-6.8-.32-8.91-1.84-11.07-5.24-1.4-2.21-2.86-5.13-4.43-7.94a3.67,3.67,0,0,0-3.56-2.37h-1V45c0,4.43.54,5,4.59,5.35v1.89H82.5V50.35c4-.38,4.65-.92,4.65-5.35V24.26c0-4.32-.49-4.86-4.43-5.23V17.14H97.89c4.7,0,7.46.54,9.62,2.05a8.2,8.2,0,0,1,3.67,7.18c0,4.75-3.13,7.29-6.75,8.8.75,1.57,2.81,5.19,4.37,7.67A45.41,45.41,0,0,0,113,48.67,7.93,7.93,0,0,0,116.25,51ZM95.63,35c2.26,0,4.1-.38,5.29-1.46,1.83-1.51,2.59-3.67,2.59-6.42,0-5.73-3.35-7.83-6.37-7.83a3.61,3.61,0,0,0-2.43.54c-.38.32-.49.86-.49,2V35Z"/><path class="cls-1" d="M118.25,52.24V50.35c4-.38,4.48-.76,4.48-5.29V24.37c0-4.59-.48-5-4.48-5.34V17.14h16.2V19c-4,.37-4.48.75-4.48,5.34V45.06c0,4.53.49,4.91,4.48,5.29v1.89Z"/><path class="cls-1" d="M166.2,43.11c-.43,2.27-1.56,7.67-2,9.13h-26.3V50.35c4.7-.38,5.24-.76,5.24-5.29V24.37c0-4.64-.54-5-4.65-5.34V17.14H155V19c-4.16.37-4.65.7-4.65,5.34V45.43c0,2.54.22,3.51,1.35,4a11.77,11.77,0,0,0,4.05.49c2.27,0,4.21-.38,5.51-1.84a17.28,17.28,0,0,0,3-5.56Z"/><path class="cls-1" d="M196,43.11c-.43,2.27-1.57,7.67-2,9.13h-26.3V50.35c4.7-.38,5.24-.76,5.24-5.29V24.37c0-4.64-.54-5-4.64-5.34V17.14h16.52V19c-4.16.37-4.65.7-4.65,5.34V45.43c0,2.54.22,3.51,1.36,4a11.69,11.69,0,0,0,4,.49c2.26,0,4.21-.38,5.5-1.84a17.46,17.46,0,0,0,3-5.56Z"/><path class="cls-1" d="M198.17,52.24V50.35c4-.38,4.48-.76,4.48-5.29V24.37c0-4.59-.48-5-4.48-5.34V17.14h16.2V19c-4,.37-4.48.75-4.48,5.34V45.06c0,4.53.48,4.91,4.48,5.29v1.89Z"/><path class="cls-1" d="M236.19,52.24V50.35c3.18-.49,3.45-1.14,2.59-3.51-.54-1.62-1.35-3.89-2.16-6.1H226.25c-.59,1.67-1.3,3.61-1.94,5.77-.76,2.6-.65,3.35,3.29,3.84v1.89H215.5l.06-1.89c3.56-.43,4.21-1,6-5.56L232.62,17l2.76-.7c3.45,9.45,6.8,18.84,10.31,28.13,1.84,4.75,2.54,5.46,5.94,5.89v1.89Zm-4.59-26h-.17c-1.51,3.94-2.86,7.83-4.26,11.66h8.42Z"/><line class="cls-2" x1="46" y1="59.49" x2="252.24" y2="59.49"/><line class="cls-2" x1="38.83" y1="9.22" x2="252.24" y2="9.22"/><path class="cls-3" d="M41.73,31.49a7.15,7.15,0,0,0-3.14-5.92,6.23,6.23,0,0,0-4.88-10.12h-.27a6.23,6.23,0,1,0-11.93-3.61,6.17,6.17,0,0,0,0,3.61h-.27a6.22,6.22,0,0,0-4.87,10.12,7.12,7.12,0,0,0,0,11.83,6.22,6.22,0,0,0,4.87,10.12H33.71A6.22,6.22,0,0,0,40,41.3a6.29,6.29,0,0,0-1.36-3.9,7.13,7.13,0,0,0,3.14-5.91"/><path class="cls-4" d="M34.35,27.29a.92.92,0,0,0-1.27,0L28.37,32V19a.9.9,0,1,0-1.79,0v6.31l-4-4a.89.89,0,0,0-1.25,1.26l5.3,5.31V40L22.76,36.2a.89.89,0,0,0-1.26,1.27l5.08,5.08V59.11a.9.9,0,0,0,1.79,0V34.47a1.18,1.18,0,0,0,.18-.13l5.8-5.78a.92.92,0,0,0,0-1.27"/><path class="cls-5" d="M32.53,27.47A8.11,8.11,0,0,0,29,20.72,7.12,7.12,0,0,0,23.39,9.16l-.31,0a7.11,7.11,0,1,0-13.62,0l-.31,0A7.12,7.12,0,0,0,3.59,20.72,8.14,8.14,0,0,0,1.39,32a7.94,7.94,0,0,0,2.2,2.2A7.12,7.12,0,0,0,9.15,45.77H23.39A7.12,7.12,0,0,0,29,34.21a8.1,8.1,0,0,0,3.58-6.74"/><path class="cls-6" d="M24.1,22.68a1,1,0,0,0-1.43,0l-5.38,5.38V13.23a1,1,0,0,0-2,0v7.21l-4.62-4.62A1,1,0,0,0,9.2,17.25l6.05,6.06v13.9l-4.36-4.36a1,1,0,0,0-1.44,1.44l5.8,5.8V59a1,1,0,0,0,2,0V30.87l.21-.14,6.6-6.61a1,1,0,0,0,0-1.44"/><path class="cls-7" d="M33.55,60H11a1,1,0,1,1,0-2H33.55a1,1,0,1,1,0,2"/></svg>