<?xml version="1.0" encoding="UTF-8"?>
<svg width="803px" height="273px" viewBox="0 0 803 273" version="1.1" xmlns="http://www.w3.org/2000/svg" xmlns:xlink="http://www.w3.org/1999/xlink">
    <!-- Generator: Sketch 54.1 (76490) - https://sketchapp.com -->
    <title>trillia_logo</title>
    <desc>Created with Sketch.</desc>
    <g id="Buyer-Dashboard" stroke="none" stroke-width="1" fill="none" fill-rule="evenodd">
        <g id="trillia_logo" fill="#FFFFFF" fill-rule="nonzero">
            <path d="M403.27,78.146 C403.225,91.958 395.43,99.132 381.327,99.089 C367.229,99.046 359.48,91.823 359.52,78.011 C359.56,64.197 367.355,57.023 381.458,57.068 C395.562,57.111 403.311,64.332 403.27,78.146 Z M400.673,267.227 L361.424,267.227 L361.424,113.992 L400.673,113.992 L400.673,267.227 Z" id="Shape"></path>
            <path d="M165.251,23.496 C165.376,38.504 157,46.392 141.679,46.525 C126.364,46.658 117.854,38.912 117.722,23.906 C117.589,8.896 125.966,1.006 141.289,0.875 C156.61,0.742 165.118,8.488 165.251,23.496 Z" id="Path"></path>
            <path d="M476.227,217.379 C476.204,223.424 476.193,227.453 476.468,231.483 C477.306,239.258 480.758,241.86 494.282,241.036 L494.196,268.378 C486.425,269.218 478.654,269.482 469.733,269.456 C450.159,269.395 437.81,262.163 437.006,242.302 C436.449,235.39 436.473,228.195 436.502,218.122 L437,55.801 L476.72,55.924 L476.227,217.379 Z" id="Path"></path>
            <path d="M556.514,217.625 C556.496,223.672 556.484,227.701 556.76,231.73 C557.598,239.503 561.044,242.101 574.568,241.281 L574.483,268.623 C566.712,269.463 558.946,269.728 550.019,269.701 C530.451,269.64 518.097,262.408 517.294,242.547 C516.736,235.635 516.76,228.44 516.795,218.369 L517.294,56.047 L557.013,56.17 L556.514,217.625 Z" id="Path"></path>
            <path d="M640.396,78.873 C640.35,92.687 632.556,99.861 618.451,99.814 C604.354,99.771 596.604,92.552 596.645,78.738 C596.685,64.926 604.48,57.752 618.584,57.795 C632.688,57.838 640.435,65.061 640.396,78.873 Z M637.939,266.791 L598.69,266.791 L598.69,113.557 L637.939,113.557 L637.939,266.791 L637.939,266.791 Z" id="Shape"></path>
            <path d="M403.27,78.146 C403.225,91.958 395.43,99.132 381.327,99.089 C367.229,99.046 359.48,91.823 359.52,78.011 C359.56,64.197 367.355,57.023 381.458,57.068 C395.562,57.111 403.311,64.332 403.27,78.146 Z" id="Path"></path>
            <path d="M327.269,113.459 C321.285,113.441 314.604,113.498 308.564,115.826 C299.752,118.676 293.191,124.201 288.856,132.863 L288.778,113.98 L249.128,114.052 L248.571,114.052 L248.571,266.767 L248.796,266.767 L288.509,266.89 L288.727,196.667 C288.852,155.511 306.962,140.966 340.057,143.368 L340.057,114.962 C336.603,114.09 331.874,113.475 327.269,113.459 Z" id="Path"></path>
            <path d="M802.413,268.461 C800.165,251.471 799.626,241.109 799.661,229.596 L799.809,180.098 C799.838,171.75 799.57,163.692 799.017,156.494 C796.797,130.006 780.739,111.252 737.853,111.119 C701.3,111.008 673.323,130.49 672.067,165.025 L710.632,164.855 C711.837,148.167 720.498,138.986 736.328,139.035 C751.871,139.08 758.754,146.871 759.872,157.525 C760.429,162.707 760.416,167.312 760.406,171.92 L760.394,175.086 L750.609,175.053 C695.06,174.885 666.221,193.789 666.117,227.459 C666.033,256.529 688.716,272.139 715.199,272.223 C729.589,272.266 742.545,269.426 753.219,262.264 C753.219,262.264 757.398,260.065 762.117,256.813 L763.56,268.34 L802.413,268.461 Z M730.534,244.352 C716.437,244.307 707.244,237.948 707.284,224.42 C707.346,204.274 728.665,197.147 760.32,199.547 L760.28,211.922 C760.217,233.219 746.651,244.398 730.534,244.352 Z" id="Shape"></path>
            <path d="M141.412,56.85 C132.099,56.821 125.353,53.893 121.493,48.239 L117.618,48.239 L128.963,268.399 L153.257,268.399 L164.603,48.239 L161.479,48.239 C157.598,53.951 150.797,56.877 141.412,56.85 Z" id="Path"></path>
            <path d="M207.654,116.887 L170.992,116.887 L171.49,105.289 L224.034,105.289 C221.58,112.021 215.017,115.799 207.654,116.887 Z" id="Path"></path>
            <path d="M239.157,97.832 L172,97.832 L172.47,79.422 L254.778,79.422 C252.438,90.107 246.179,96.104 239.157,97.832 Z" id="Path"></path>
            <path d="M266.29,71.965 L172.985,71.965 L173.477,48.764 L281.973,48.764 C279.576,59.639 273.382,67.084 266.29,71.965 Z" id="Path"></path>
            <path d="M58.67,105.289 L111.213,105.289 L111.711,116.887 L75.049,116.887 C67.687,115.799 61.123,112.021 58.67,105.289 Z" id="Path"></path>
            <path d="M27.926,79.422 L110.234,79.422 L110.704,97.832 L43.546,97.832 C36.524,96.104 30.266,90.107 27.926,79.422 Z" id="Path"></path>
            <path d="M0.729,48.764 L109.225,48.764 L109.717,71.965 L16.413,71.965 C9.32,67.084 3.127,59.639 0.729,48.764 Z" id="Path"></path>
            <path d="M186.939,138.744 L171.812,138.744 L171.812,149.176 L186.939,149.176 C189.724,149.176 191.981,151.512 191.981,154.395 L191.981,167.825 C191.981,170.708 189.724,173.044 186.939,173.044 L173.079,173.044 L169.567,173.044 L113.086,173.044 L109.627,173.044 L95.714,173.044 C92.93,173.044 90.672,170.708 90.672,167.825 L90.672,154.395 C90.672,151.512 92.93,149.176 95.714,149.176 L110.842,149.176 L110.842,138.744 L95.714,138.744 C87.359,138.744 80.588,145.748 80.588,154.394 L80.588,167.824 C80.588,176.47 87.359,183.476 95.714,183.476 L109.627,183.476 L113.291,183.476 L169.363,183.476 L173.079,183.476 L186.939,183.476 C195.294,183.476 202.066,176.47 202.066,167.824 L202.066,154.394 C202.066,145.748 195.295,138.744 186.939,138.744 Z" id="Path"></path>
            <path d="M176.235,173.043 L161.108,173.043 L161.108,183.475 L176.235,183.475 C179.02,183.475 181.276,185.813 181.276,188.694 L181.276,202.128 C181.276,205.009 179.02,207.345 176.235,207.345 L162.375,207.345 L158.863,207.345 L123.791,207.345 L120.332,207.345 L106.417,207.345 C103.634,207.345 101.377,205.009 101.377,202.128 L101.377,188.694 C101.377,185.813 103.634,183.475 106.417,183.475 L121.545,183.475 L121.545,173.043 L106.417,173.043 C98.063,173.043 91.293,180.049 91.293,188.693 L91.293,202.127 C91.293,210.77 98.063,217.777 106.417,217.777 L120.332,217.777 L123.995,217.777 L158.657,217.777 L162.375,217.777 L176.235,217.777 C184.589,217.777 191.361,210.769 191.361,202.127 L191.361,188.693 C191.361,180.049 184.59,173.043 176.235,173.043 Z" id="Path"></path>
            <path d="M165.531,207.346 L150.404,207.346 L150.404,217.778 L165.531,217.778 C168.314,217.778 170.571,220.114 170.571,222.997 L170.571,236.429 C170.571,239.31 168.314,241.646 165.531,241.646 L151.67,241.646 L148.159,241.646 L134.495,241.646 L131.036,241.646 L117.123,241.646 C114.338,241.646 112.081,239.31 112.081,236.429 L112.081,222.997 C112.081,220.114 114.338,217.778 117.123,217.778 L132.249,217.778 L132.249,207.346 L117.123,207.346 C108.767,207.346 101.996,214.35 101.996,222.996 L101.996,236.428 C101.996,245.073 108.767,252.078 117.123,252.078 L131.036,252.078 L134.7,252.078 L147.954,252.078 L151.67,252.078 L165.531,252.078 C173.885,252.078 180.656,245.072 180.656,236.428 L180.656,222.996 C180.656,214.35 173.886,207.346 165.531,207.346 Z" id="Path"></path>
        </g>
    </g>
</svg>