<svg xmlns="http://www.w3.org/2000/svg" viewBox="0 0 30 30"><defs><style>.cls-1{fill:#fff;}</style></defs><title>Asset 8</title><g id="Layer_2" data-name="Layer 2"><g id="Layer_1-2" data-name="Layer 1"><path class="cls-1" d="M15,1A14,14,0,1,0,29,15,14,14,0,0,0,15,1m0,29A15,15,0,1,1,30,15,15,15,0,0,1,15,30"/><path class="cls-1" d="M21.69,11.57c0,.14,0,.3,0,.44A9.82,9.82,0,0,1,6.59,20.29a7.38,7.38,0,0,0,.82,0,7,7,0,0,0,4.29-1.47,3.47,3.47,0,0,1-3.23-2.4,3.49,3.49,0,0,0,.65.06A3.39,3.39,0,0,0,10,16.4,3.45,3.45,0,0,1,7.26,13v0a3.47,3.47,0,0,0,1.57.43A3.45,3.45,0,0,1,7.76,8.79a9.77,9.77,0,0,0,7.11,3.61,3.39,3.39,0,0,1-.09-.78,3.46,3.46,0,0,1,3.45-3.46,3.42,3.42,0,0,1,2.52,1.09A6.74,6.74,0,0,0,23,8.41a3.45,3.45,0,0,1-1.52,1.91,6.91,6.91,0,0,0,2-.54,7,7,0,0,1-1.72,1.79"/></g></g></svg>