<svg width="16" height="14" viewBox="0 0 16 14" fill="none" xmlns="http://www.w3.org/2000/svg">
<path d="M10.3574 5.58588L8.94314 7.00009L10.3574 8.4143L9.41455 9.35711L8.00033 7.9429L6.58612 9.35711L5.64331 8.4143L7.05752 7.00009L5.64331 5.58588L6.58612 4.64307L8.00033 6.05728L9.41455 4.64307L10.3574 5.58588Z" fill="#1A3A89"/>
<path fill-rule="evenodd" clip-rule="evenodd" d="M13.707 8.86L15.3337 7L13.707 5.14L13.9337 2.68L11.527 2.13333L10.267 0L8.00033 0.973333L5.73366 0L4.47366 2.12667L2.06699 2.66667L2.29366 5.13333L0.666992 7L2.29366 8.86L2.06699 11.3267L4.47366 11.8733L5.73366 14L8.00033 13.02L10.267 13.9933L11.527 11.8667L13.9337 11.32L13.707 8.86ZM12.3268 5.58721L13.5624 7L12.3268 8.41279L12.4987 10.2786L10.6723 10.6935L9.71689 12.306L7.99853 11.5682L6.28227 12.3102L5.32838 10.7002L3.50164 10.2852L3.67372 8.41264L2.43692 6.99843L3.67359 5.5793L3.50193 3.71119L5.32732 3.30161L6.28376 1.68729L8.00033 2.4244L9.7154 1.68793L10.6712 3.30624L12.4987 3.72136L12.3268 5.58721Z" fill="#1A3A89"/>
</svg>
