<?xml version="1.0" encoding="UTF-8"?>
<svg width="40px" height="39px" viewBox="0 0 40 39" version="1.1" xmlns="http://www.w3.org/2000/svg" xmlns:xlink="http://www.w3.org/1999/xlink">
    <!-- Generator: Sketch 62 (91390) - https://sketch.com -->
    <title>view_review_hover</title>
    <desc>Created with Sketch.</desc>
    <g id="Collage" stroke="none" stroke-width="1" fill="none" fill-rule="evenodd">
        <g id="Group-24" transform="translate(-1326.000000, -667.000000)" fill-rule="nonzero">
            <g id="Group-19">
                <g id="view_review_hover" transform="translate(1327.000000, 667.000000)">
                    <path d="M37.98,19.499 C37.98,29.982 29.482,38.48 18.999,38.48 C8.518,38.48 0.02,29.982 0.02,19.499 C0.02,9.017 8.518,0.52 18.999,0.52 C29.482,0.52 37.98,9.017 37.98,19.499" id="Path" stroke="#000000" fill="#FFFFFF"></path>
                    <path d="M23.346,8.862 L14.792,8.862 C8.87,8.862 4.053,13.327 4.053,18.815 C4.053,24.323 8.544,28.475 14.5,28.475 L25.135,28.456 L30.253,31.42 C30.301,31.448 30.354,31.461 30.406,31.461 C30.458,31.461 30.511,31.448 30.557,31.422 C30.653,31.367 30.712,31.268 30.712,31.158 L30.772,25.989 C32.911,24.091 34.084,21.549 34.084,18.814 C34.084,13.327 29.267,8.862 23.346,8.862 Z M13.906,17.837 L12.428,19.275 L12.778,21.307 C12.796,21.413 12.751,21.522 12.664,21.585 C12.614,21.621 12.555,21.64 12.496,21.64 C12.451,21.64 12.406,21.629 12.364,21.607 L10.539,20.647 L8.714,21.607 C8.619,21.658 8.502,21.649 8.414,21.586 C8.327,21.523 8.282,21.414 8.3,21.308 L8.65,19.276 L7.173,17.838 C7.095,17.762 7.068,17.649 7.102,17.546 C7.135,17.443 7.224,17.367 7.331,17.352 L9.372,17.055 L10.283,15.207 C10.379,15.013 10.7,15.013 10.796,15.207 L11.707,17.055 L13.748,17.352 C13.855,17.367 13.944,17.443 13.978,17.546 C14.011,17.647 13.984,17.761 13.906,17.837 Z M22.436,17.837 L20.958,19.275 L21.308,21.307 C21.326,21.413 21.282,21.522 21.195,21.585 C21.144,21.621 21.086,21.64 21.026,21.64 C20.981,21.64 20.936,21.629 20.894,21.607 L19.069,20.647 L17.245,21.607 C17.149,21.658 17.034,21.649 16.945,21.586 C16.858,21.523 16.813,21.414 16.831,21.308 L17.181,19.276 L15.704,17.838 C15.626,17.762 15.6,17.649 15.633,17.546 C15.666,17.443 15.756,17.367 15.862,17.352 L17.903,17.055 L18.814,15.207 C18.91,15.013 19.231,15.013 19.326,15.207 L20.238,17.055 L22.279,17.352 C22.385,17.367 22.474,17.443 22.508,17.546 C22.54,17.647 22.514,17.761 22.436,17.837 Z M30.964,17.837 L29.486,19.275 L29.836,21.307 C29.855,21.413 29.81,21.522 29.723,21.585 C29.674,21.621 29.614,21.64 29.556,21.64 C29.509,21.64 29.465,21.629 29.422,21.607 L27.597,20.647 L25.774,21.607 C25.677,21.658 25.562,21.649 25.473,21.586 C25.385,21.523 25.341,21.414 25.359,21.308 L25.709,19.276 L24.233,17.838 C24.155,17.762 24.128,17.649 24.161,17.546 C24.195,17.443 24.284,17.367 24.391,17.352 L26.431,17.055 L27.341,15.207 C27.438,15.013 27.758,15.013 27.854,15.207 L28.765,17.055 L30.806,17.352 C30.912,17.367 31.001,17.443 31.035,17.546 C31.068,17.647 31.041,17.761 30.964,17.837 Z" id="Shape" fill="#000000"></path>
                </g>
            </g>
        </g>
    </g>
</svg>