<?xml version="1.0" encoding="utf-8"?>
<!-- Generator: Adobe Illustrator 16.0.0, SVG Export Plug-In . SVG Version: 6.00 Build 0)  -->
<!DOCTYPE svg PUBLIC "-//W3C//DTD SVG 1.1//EN" "http://www.w3.org/Graphics/SVG/1.1/DTD/svg11.dtd">
<svg version="1.1" id="Layer_1" xmlns="http://www.w3.org/2000/svg" xmlns:xlink="http://www.w3.org/1999/xlink" x="0px" y="0px"
	 width="39px" height="39px" viewBox="0 0 39 39" enable-background="new 0 0 39 39" xml:space="preserve">
<g>
	<g>
		<path fill="#999999" stroke="#999999" stroke-width="0.5" stroke-miterlimit="10" d="M38.48,19.499
			c0,10.483-8.498,18.981-18.981,18.981C9.018,38.48,0.52,29.982,0.52,19.499C0.52,9.017,9.018,0.52,19.499,0.52
			C29.982,0.52,38.48,9.017,38.48,19.499"/>
	</g>
</g>
<g>
	<g>
		<path fill="#FFFFFF" d="M30.406,31.462c-0.053,0-0.105-0.013-0.153-0.041l-5.118-2.964L14.5,28.476
			c-5.956,0-10.447-4.152-10.447-9.66c0-5.488,4.817-9.953,10.739-9.953h8.554c5.921,0,10.738,4.465,10.738,9.953
			c0,2.734-1.173,5.276-3.312,7.175l-0.06,5.169c0,0.109-0.06,0.209-0.155,0.264C30.512,31.449,30.459,31.462,30.406,31.462z
			 M25.216,27.844c0.056,0,0.108,0.015,0.153,0.041l4.738,2.743l0.055-4.774c0-0.088,0.039-0.178,0.105-0.235
			c2.066-1.789,3.203-4.205,3.203-6.803c0-5.15-4.541-9.34-10.125-9.34h-8.554c-5.584,0-10.126,4.19-10.126,9.34
			c0,5.158,4.228,9.048,9.833,9.048L25.216,27.844L25.216,27.844z"/>
	</g>
	<g>
		<g>
			<path fill="#FFFFFF" d="M12.497,21.641c-0.045,0-0.09-0.011-0.132-0.033l-1.825-0.96l-1.825,0.96
				c-0.095,0.051-0.212,0.042-0.3-0.021c-0.087-0.063-0.132-0.172-0.114-0.278l0.35-2.032l-1.477-1.438
				c-0.078-0.076-0.105-0.189-0.071-0.292c0.033-0.103,0.122-0.179,0.229-0.194l2.041-0.297l0.911-1.848
				c0.096-0.194,0.417-0.194,0.513,0l0.911,1.848l2.041,0.297c0.107,0.015,0.196,0.091,0.23,0.194
				c0.033,0.103,0.006,0.217-0.071,0.292l-1.478,1.438l0.35,2.032c0.018,0.106-0.027,0.215-0.114,0.278
				C12.615,21.622,12.556,21.641,12.497,21.641z"/>
		</g>
		<g>
			<path fill="#FFFFFF" d="M21.025,21.641c-0.045,0-0.09-0.011-0.132-0.033l-1.825-0.96l-1.824,0.96
				c-0.096,0.051-0.211,0.042-0.3-0.021c-0.087-0.063-0.132-0.172-0.114-0.278l0.35-2.032l-1.477-1.438
				c-0.078-0.076-0.104-0.189-0.071-0.292c0.033-0.103,0.123-0.179,0.229-0.194l2.041-0.297l0.911-1.848
				c0.096-0.194,0.417-0.194,0.512,0l0.912,1.848l2.041,0.297c0.106,0.015,0.195,0.091,0.229,0.194
				c0.034,0.103,0.008,0.217-0.07,0.292l-1.478,1.438l0.35,2.032c0.018,0.106-0.026,0.215-0.113,0.278
				C21.144,21.622,21.085,21.641,21.025,21.641z"/>
		</g>
		<g>
			<path fill="#FFFFFF" d="M29.556,21.641c-0.047,0-0.091-0.011-0.134-0.033l-1.825-0.96l-1.823,0.96
				c-0.097,0.051-0.212,0.042-0.301-0.021c-0.088-0.063-0.132-0.172-0.114-0.278l0.35-2.032l-1.476-1.438
				c-0.078-0.076-0.105-0.189-0.072-0.292c0.034-0.103,0.123-0.179,0.23-0.194l2.04-0.297l0.91-1.848
				c0.097-0.194,0.417-0.194,0.513,0l0.911,1.848l2.041,0.297c0.106,0.015,0.195,0.091,0.229,0.194
				c0.033,0.103,0.006,0.217-0.071,0.292l-1.478,1.438l0.35,2.032c0.019,0.106-0.026,0.215-0.113,0.278
				C29.674,21.622,29.613,21.641,29.556,21.641z"/>
		</g>
	</g>
</g>
</svg>
