<?xml version="1.0" encoding="UTF-8"?>
<svg width="39px" height="39px" viewBox="0 0 39 39" version="1.1" xmlns="http://www.w3.org/2000/svg" xmlns:xlink="http://www.w3.org/1999/xlink">
    <!-- Generator: Sketch 63.1 (92452) - https://sketch.com -->
    <title>Clickable review</title>
    <desc>Created with Sketch.</desc>
    <g id="Page-1" stroke="none" stroke-width="1" fill="none" fill-rule="evenodd">
        <g id="Clickable-review">
            <path d="M38.48,19.499 C38.48,29.982 29.982,38.48 19.499,38.48 C9.018,38.48 0.52,29.982 0.52,19.499 C0.52,9.017 9.018,0.52 19.499,0.52 C29.982,0.52 38.48,9.017 38.48,19.499" id="Path" stroke="#000000" stroke-width="0.5" fill="#000000"></path>
            <g id="Group" transform="translate(4.000000, 8.000000)" fill-rule="nonzero">
                <path d="M26.406,23.462 C26.353,23.462 26.301,23.449 26.253,23.421 L21.135,20.457 L10.5,20.476 C4.544,20.476 0.053,16.324 0.053,10.816 C0.053,5.328 4.87,0.863 10.792,0.863 L19.346,0.863 C25.267,0.863 30.084,5.328 30.084,10.816 C30.084,13.55 28.911,16.092 26.772,17.991 L26.712,23.16 C26.712,23.269 26.652,23.369 26.557,23.424 C26.512,23.449 26.459,23.462 26.406,23.462 Z" id="Shape" fill="#FFFFFF"></path>
                <g transform="translate(3.000000, 7.000000)" fill="#000000" id="Path">
                    <path d="M5.497,6.641 C5.452,6.641 5.407,6.63 5.365,6.608 L3.54,5.648 L1.715,6.608 C1.62,6.659 1.503,6.65 1.415,6.587 C1.328,6.524 1.283,6.415 1.301,6.309 L1.651,4.277 L0.174,2.839 C0.096,2.763 0.069,2.65 0.103,2.547 C0.136,2.444 0.225,2.368 0.332,2.353 L2.373,2.056 L3.284,0.208 C3.38,0.014 3.701,0.014 3.797,0.208 L4.708,2.056 L6.749,2.353 C6.856,2.368 6.945,2.444 6.979,2.547 C7.012,2.65 6.985,2.764 6.908,2.839 L5.43,4.277 L5.78,6.309 C5.798,6.415 5.753,6.524 5.666,6.587 C5.615,6.622 5.556,6.641 5.497,6.641 Z"></path>
                    <path d="M14.025,6.641 C13.98,6.641 13.935,6.63 13.893,6.608 L12.068,5.648 L10.244,6.608 C10.148,6.659 10.033,6.65 9.944,6.587 C9.857,6.524 9.812,6.415 9.83,6.309 L10.18,4.277 L8.703,2.839 C8.625,2.763 8.599,2.65 8.632,2.547 C8.665,2.444 8.755,2.368 8.861,2.353 L10.902,2.056 L11.813,0.208 C11.909,0.014 12.23,0.014 12.325,0.208 L13.237,2.056 L15.278,2.353 C15.384,2.368 15.473,2.444 15.507,2.547 C15.541,2.65 15.515,2.764 15.437,2.839 L13.959,4.277 L14.309,6.309 C14.327,6.415 14.283,6.524 14.196,6.587 C14.144,6.622 14.085,6.641 14.025,6.641 Z"></path>
                    <path d="M22.556,6.641 C22.509,6.641 22.465,6.63 22.422,6.608 L20.597,5.648 L18.774,6.608 C18.677,6.659 18.562,6.65 18.473,6.587 C18.385,6.524 18.341,6.415 18.359,6.309 L18.709,4.277 L17.233,2.839 C17.155,2.763 17.128,2.65 17.161,2.547 C17.195,2.444 17.284,2.368 17.391,2.353 L19.431,2.056 L20.341,0.208 C20.438,0.014 20.758,0.014 20.854,0.208 L21.765,2.056 L23.806,2.353 C23.912,2.368 24.001,2.444 24.035,2.547 C24.068,2.65 24.041,2.764 23.964,2.839 L22.486,4.277 L22.836,6.309 C22.855,6.415 22.81,6.524 22.723,6.587 C22.674,6.622 22.613,6.641 22.556,6.641 Z"></path>
                </g>
            </g>
        </g>
    </g>
</svg>